<svg width="441" height="428" viewBox="0 0 441 428" fill="none" xmlns="http://www.w3.org/2000/svg">
<path d="M220.5 427.635C342.279 427.635 441 370.638 441 300.329C441 230.02 342.279 173.023 220.5 173.023C98.7212 173.023 0 230.02 0 300.329C0 370.638 98.7212 427.635 220.5 427.635Z" fill="#F0F0F0"/>
<path d="M53.045 345.663L15.0113 323.754C12.8682 322.509 12.8682 320.506 15.0113 319.271L236.251 191.497C237.453 190.883 238.784 190.563 240.134 190.563C241.485 190.563 242.816 190.883 244.018 191.497L282.052 213.452C284.195 214.688 284.195 216.7 282.052 217.935L60.8127 345.663C59.6087 346.272 58.2783 346.589 56.9289 346.589C55.5795 346.589 54.249 346.272 53.045 345.663Z" fill="#E0E0E0"/>
<path d="M216.532 354.75L125.182 302.014L239.339 236.231L330.577 288.902L216.532 354.75Z" fill="#E0E0E0"/>
<path d="M342.65 378.268C366.498 378.268 385.83 367.106 385.83 353.337C385.83 339.567 366.498 328.405 342.65 328.405C318.801 328.405 299.469 339.567 299.469 353.337C299.469 367.106 318.801 378.268 342.65 378.268Z" fill="#E0E0E0"/>
<path d="M400.589 323.314C405.269 326.019 405.269 330.398 400.589 333.103C395.91 335.808 388.32 335.798 383.641 333.103C378.961 330.408 378.961 326.019 383.641 323.314C388.32 320.609 395.91 320.609 400.589 323.314Z" fill="#E0E0E0"/>
<path d="M189.757 306.525L222.456 287.62C225.825 285.673 227.51 283.128 227.51 280.573C227.51 278.018 227.51 276.025 227.51 276.025L193.584 256.895C192.639 256.281 191.852 255.452 191.286 254.476C190.72 253.501 190.392 252.406 190.328 251.28V210.954L133.24 243.952V284.26C133.305 285.386 133.634 286.48 134.2 287.455C134.766 288.431 135.552 289.259 136.496 289.875L165.359 306.496C172.088 310.418 183.018 310.418 189.757 306.525Z" fill="#00D86B"/>
<g opacity="0.6">
<path opacity="0.6" d="M189.757 306.525L222.456 287.62C225.825 285.673 227.51 283.128 227.51 280.573C227.51 278.018 227.51 276.025 227.51 276.025L193.584 256.895C192.639 256.281 191.852 255.452 191.286 254.476C190.72 253.501 190.392 252.406 190.328 251.28V210.954L133.24 243.952V284.26C133.305 285.386 133.634 286.48 134.2 287.455C134.766 288.431 135.552 289.259 136.496 289.875L165.359 306.496C172.088 310.418 183.018 310.418 189.757 306.525Z" fill="black"/>
</g>
<path opacity="0.3" d="M146.95 291.401V295.931L136.478 289.894C135.534 289.279 134.748 288.45 134.184 287.474C133.619 286.499 133.293 285.404 133.23 284.279V243.952L144.105 237.654C144.33 240.462 144.582 243.269 144.807 246.077L137.17 250.494V281.986C137.231 283.113 137.558 284.209 138.124 285.185C138.69 286.161 139.479 286.989 140.427 287.601L146.95 291.401Z" fill="black"/>
<path d="M137.17 281.995C137.235 283.121 137.563 284.216 138.129 285.192C138.694 286.167 139.482 286.996 140.427 287.611L165.34 301.967C172.078 305.851 183.009 305.86 189.757 301.967L222.512 283.062C229.26 279.169 229.26 272.861 222.512 268.968L197.59 254.612C196.644 253.998 195.856 253.169 195.291 252.193C194.725 251.218 194.397 250.123 194.333 248.997V217.495L137.245 250.494L137.17 281.995Z" fill="#00D86B"/>
<path opacity="0.3" d="M137.17 281.995C137.235 283.121 137.563 284.216 138.129 285.192C138.694 286.167 139.482 286.996 140.427 287.611L165.34 301.967C172.078 305.851 183.009 305.86 189.757 301.967L222.512 283.062C229.26 279.169 229.26 272.861 222.512 268.968L197.59 254.612C196.644 253.998 195.856 253.169 195.291 252.193C194.725 251.218 194.397 250.123 194.333 248.997V217.495L137.245 250.494L137.17 281.995Z" fill="black"/>
<path opacity="0.5" d="M204.169 258.458L197.543 254.631C196.597 254.016 195.81 253.188 195.244 252.212C194.678 251.237 194.35 250.141 194.286 249.015V217.495L137.198 250.494V281.995C137.263 283.121 137.591 284.216 138.157 285.192C138.723 286.167 139.51 286.996 140.455 287.611L147.006 291.354L204.169 258.458Z" fill="black"/>
<path d="M227.519 276.024V280.573C227.519 283.128 225.825 285.664 222.465 287.62L189.71 306.515C186.125 308.428 182.122 309.422 178.058 309.407V304.877C182.122 304.892 186.125 303.899 189.71 301.985L222.465 283.072C225.825 281.144 227.519 278.589 227.519 276.024Z" fill="#00D86B"/>
<path opacity="0.5" d="M227.519 276.024V280.573C227.519 283.128 225.825 285.664 222.465 287.62L189.71 306.515C186.125 308.428 182.122 309.422 178.058 309.407V304.877C182.122 304.892 186.125 303.899 189.71 301.985L222.465 283.072C225.825 281.144 227.519 278.589 227.519 276.024Z" fill="black"/>
<path d="M45.4746 321.144C46.7087 321.74 48.0656 322.038 49.436 322.013C50.8063 321.989 52.1518 321.643 53.3639 321.003L274.229 193.491C275.413 192.719 276.399 191.678 277.106 190.454C277.813 189.23 278.222 187.856 278.3 186.444V7.76801C278.247 6.40006 277.873 5.06373 277.208 3.86711C276.543 2.6705 275.606 1.64721 274.472 0.880014C273.24 0.283263 271.884 -0.0141937 270.514 0.0118251C269.145 0.0378439 267.801 0.386604 266.592 1.02975L45.7273 128.532C44.5439 129.303 43.5592 130.342 42.8534 131.565C42.1475 132.788 41.7406 134.16 41.6656 135.57V314.246C41.7148 315.614 42.0852 316.951 42.7469 318.15C43.4086 319.348 44.343 320.373 45.4746 321.144Z" fill="#00D86B"/>
<path d="M53.3632 320.993L274.228 193.481C275.413 192.709 276.399 191.669 277.106 190.444C277.814 189.22 278.222 187.846 278.299 186.434V7.76717C278.299 5.17481 276.474 4.11728 274.228 5.41814L53.3632 132.93C52.1784 133.702 51.1923 134.742 50.485 135.967C49.7777 137.191 49.369 138.565 49.2922 139.977V318.644C49.2922 321.236 51.1171 322.294 53.3632 320.993Z" fill="#00D86B"/>
<path opacity="0.5" d="M53.3632 320.993L274.228 193.481C275.413 192.709 276.399 191.669 277.106 190.444C277.814 189.22 278.222 187.846 278.299 186.434V7.76717C278.299 5.17481 276.474 4.11728 274.228 5.41814L53.3632 132.93C52.1784 133.702 51.1923 134.742 50.485 135.967C49.7777 137.191 49.369 138.565 49.2922 139.977V318.644C49.2922 321.236 51.1171 322.294 53.3632 320.993Z" fill="black"/>
<path d="M52.7643 325.626C51.6099 326.127 50.361 326.373 49.1027 326.347C47.8445 326.321 46.6066 326.024 45.4739 325.476C44.3386 324.704 43.4012 323.676 42.7378 322.474C42.0744 321.273 41.7036 319.932 41.6555 318.56V302.304L49.2828 306.721V322.986C49.2828 325.354 50.7896 326.43 52.7643 325.626Z" fill="#00D86B"/>
<path opacity="0.5" d="M52.7643 325.626C51.6099 326.127 50.361 326.373 49.1027 326.347C47.8445 326.321 46.6066 326.024 45.4739 325.476C44.3386 324.704 43.4012 323.676 42.7378 322.474C42.0744 321.273 41.7036 319.932 41.6555 318.56V302.304L49.2828 306.721V322.986C49.2828 325.354 50.7896 326.43 52.7643 325.626Z" fill="black"/>
<path d="M49.2829 306.721V322.987C49.2829 325.579 51.1546 326.627 53.3539 325.336L274.219 197.824C275.403 197.051 276.389 196.011 277.096 194.786C277.803 193.562 278.212 192.188 278.29 190.776V174.474L49.2829 306.721Z" fill="#00D86B"/>
<path opacity="0.3" d="M49.2922 306.684V322.987C49.2922 325.579 51.1639 326.627 53.3632 325.336L274.228 197.824C275.412 197.051 276.398 196.011 277.105 194.786C277.813 193.562 278.222 192.188 278.299 190.776V174.474L49.2922 306.684Z" fill="black"/>
<path d="M56.9195 286.319V142.504C56.9645 141.659 57.2083 140.836 57.6311 140.103C58.0539 139.369 58.6438 138.746 59.3528 138.283L268.211 17.7249C269.558 16.9481 270.653 17.5751 270.653 19.1287V162.916C270.608 163.763 270.363 164.588 269.938 165.323C269.514 166.058 268.922 166.683 268.211 167.146L59.3715 287.723C58.0145 288.5 56.9195 287.863 56.9195 286.319Z" fill="#00D86B"/>
<path d="M56.9195 286.319V142.504C56.9645 141.659 57.2083 140.836 57.6311 140.103C58.0539 139.369 58.6438 138.746 59.3528 138.283L268.211 17.7249C269.558 16.9481 270.653 17.5751 270.653 19.1287V162.916C270.608 163.763 270.363 164.588 269.938 165.323C269.514 166.058 268.922 166.683 268.211 167.146L59.3715 287.723C58.0145 288.5 56.9195 287.863 56.9195 286.319Z" fill="#263238"/>
<path opacity="0.7" d="M50.4901 135.953C49.7648 137.172 49.3502 138.551 49.2828 139.968V306.721L41.6555 302.304V135.569C41.7058 134.151 42.1182 132.769 42.8534 131.554L50.4901 135.953Z" fill="black"/>
<path opacity="0.3" d="M278.252 7.09339C277.962 4.99704 276.268 4.23899 274.219 5.40882L53.3633 132.93C52.1658 133.679 51.1773 134.719 50.4901 135.953L42.8535 131.545C43.5452 130.312 44.5365 129.272 45.7359 128.522L266.601 1.0196C267.812 0.376362 269.157 0.0275874 270.528 0.00157084C271.898 -0.0244457 273.256 0.273029 274.49 0.869862C275.526 1.57773 276.398 2.4996 277.047 3.57324C277.696 4.64688 278.107 5.84728 278.252 7.09339Z" fill="black"/>
<path d="M73.9804 170.037C73.422 169.651 72.9619 169.139 72.6369 168.542C72.3119 167.946 72.131 167.282 72.1087 166.603V150.777C72.1491 150.074 72.3539 149.39 72.7066 148.781C73.0593 148.171 73.5501 147.653 74.1395 147.268L281.987 27.2425C282.572 26.8741 283.246 26.6724 283.938 26.6591C284.629 26.6459 285.311 26.8216 285.91 27.1672C286.509 27.5129 287.002 28.0155 287.337 28.6208C287.671 29.2262 287.834 29.9113 287.808 30.6023V46.4185C287.773 47.1219 287.572 47.8071 287.221 48.4174C286.869 49.0277 286.378 49.5455 285.786 49.928L77.9017 169.962C77.3003 170.283 76.6315 170.457 75.95 170.47C75.2686 170.483 74.5937 170.335 73.9804 170.037Z" fill="#00D86B"/>
<path opacity="0.4" d="M287.789 30.2748C287.649 29.2266 286.797 28.8429 285.786 29.4325L77.9017 149.467C77.3073 149.847 76.8156 150.368 76.4698 150.983L72.6702 148.746C73.0131 148.129 73.5055 147.608 74.102 147.23L281.987 27.2426C282.544 26.875 283.19 26.6633 283.857 26.6295C284.524 26.5958 285.188 26.7411 285.78 27.0505C286.372 27.3598 286.871 27.822 287.224 28.3889C287.577 28.9559 287.772 29.607 287.789 30.2748Z" fill="white"/>
<path d="M77.9017 298.71C77.4199 299.002 76.8732 299.169 76.3107 299.197C75.5102 299.298 74.6976 299.155 73.9804 298.785C73.4204 298.4 72.9591 297.888 72.6339 297.291C72.3087 296.694 72.1288 296.029 72.1087 295.35V174.782L75.9177 176.982V297.549C75.9177 298.485 76.3762 299 77.0407 299C77.3466 298.973 77.6416 298.873 77.9017 298.71Z" fill="#F0F0F0"/>
<path opacity="0.1" d="M76.4698 150.983C76.106 151.586 75.903 152.272 75.8802 152.976V176.981L72.0712 174.782V150.777C72.0712 150.693 72.0712 150.618 72.0712 150.534C72.0886 150.367 72.1168 150.201 72.1555 150.038C72.2601 149.597 72.4304 149.174 72.6608 148.784L76.4698 150.983Z" fill="black"/>
<path d="M287.808 30.6026V41.4306L138.724 127.53C137.61 128.176 136.702 127.652 136.702 126.361V122.262C136.702 120.97 135.766 120.446 134.671 121.092L85.5103 149.477C84.9193 149.86 84.4273 150.378 84.0744 150.988C83.7215 151.598 83.5177 152.283 83.4795 152.986V157.085C83.4408 157.788 83.2378 158.471 82.8867 159.081C82.5356 159.69 82.0462 160.209 81.458 160.595L75.8428 163.814V152.977C75.8814 152.274 76.0844 151.591 76.4356 150.981C76.7867 150.372 77.276 149.853 77.8643 149.467L285.786 29.4327C286.9 28.787 287.808 29.3111 287.808 30.6026Z" fill="#00D86B"/>
<path d="M287.808 175.166C287.771 175.87 287.569 176.556 287.218 177.167C286.867 177.779 286.376 178.299 285.786 178.685L77.9017 298.71C76.788 299.356 75.8802 298.832 75.8802 297.54V163.805L81.4954 160.585C82.6091 159.94 84.4247 150.113 85.5477 149.467L133.885 121.55C135.008 120.904 137.629 128.167 138.761 127.521L287.845 41.4211V175.157L287.808 175.166Z" fill="#FAFAFA"/>
<path d="M286.872 43.0495V175.166C286.836 175.705 286.678 176.23 286.408 176.698C286.139 177.167 285.766 177.568 285.318 177.871L77.4338 297.905C77.3048 297.99 77.1569 298.041 77.0032 298.055C76.8161 298.055 76.8161 297.568 76.8161 297.54V164.338L81.9259 161.39C82.7401 160.922 83.2455 159.35 84.3779 155.298C84.7846 153.563 85.3452 151.869 86.0531 150.234L133.96 122.542C134.521 123.319 135.031 124.132 135.486 124.975C136.787 127.268 137.517 128.466 138.574 128.466C138.791 128.467 139.005 128.409 139.192 128.298L286.872 43.0214V43.0495ZM287.808 41.4304L138.724 127.53C138.675 127.544 138.623 127.544 138.574 127.53C137.442 127.53 135.139 121.485 133.998 121.485C133.949 121.472 133.897 121.472 133.848 121.485L85.5103 149.402C84.3873 150.047 82.5717 159.874 81.458 160.52L75.8428 163.739V297.55C75.8428 298.485 76.3014 299 76.9658 299C77.2976 298.994 77.6212 298.897 77.9017 298.719L285.786 178.694C286.376 178.308 286.867 177.788 287.218 177.177C287.569 176.565 287.771 175.88 287.808 175.175V41.4304Z" fill="#E0E0E0"/>
<path d="M111.443 222.278L139.145 206.284C139.894 205.853 140.493 206.2 140.493 207.061V253.714C140.468 254.182 140.334 254.639 140.099 255.045C139.865 255.452 139.538 255.797 139.145 256.053L111.443 272.047C110.695 272.478 110.096 272.122 110.096 271.261V224.618C110.12 224.149 110.255 223.693 110.489 223.286C110.723 222.879 111.05 222.534 111.443 222.278Z" fill="#F0F0F0"/>
<path d="M116.506 225.197L134.082 215.053C134.821 214.622 135.43 214.931 135.43 215.736C135.396 216.189 135.257 216.629 135.023 217.019C134.789 217.409 134.466 217.739 134.082 217.982L116.506 228.127C115.767 228.557 115.159 228.248 115.159 227.444C115.193 226.99 115.332 226.551 115.566 226.161C115.8 225.771 116.122 225.441 116.506 225.197Z" fill="#E0E0E0"/>
<path d="M115.159 232.769V233.826C115.159 234.341 115.524 234.547 115.973 234.294L116.909 233.761C117.147 233.609 117.345 233.402 117.486 233.158C117.628 232.914 117.709 232.639 117.723 232.357V231.309C117.723 230.785 117.358 230.579 116.909 230.841L115.973 231.365C115.736 231.519 115.54 231.726 115.398 231.97C115.257 232.214 115.175 232.487 115.159 232.769Z" fill="#00D86B"/>
<path d="M120.203 230.373C120.203 231.178 120.811 231.487 121.56 231.056L134.063 223.831C134.447 223.59 134.769 223.262 135.003 222.873C135.237 222.485 135.377 222.047 135.411 221.595C135.411 220.78 134.802 220.481 134.063 220.911L121.56 228.127C121.173 228.368 120.848 228.697 120.612 229.087C120.376 229.478 120.236 229.918 120.203 230.373Z" fill="#E0E0E0"/>
<path d="M115.159 238.59V239.647C115.159 240.162 115.524 240.368 115.973 240.115L116.909 239.582C117.146 239.429 117.343 239.222 117.484 238.978C117.626 238.734 117.708 238.46 117.723 238.178V237.13C117.723 236.606 117.358 236.4 116.909 236.662L115.973 237.186C115.736 237.34 115.54 237.547 115.398 237.791C115.257 238.035 115.175 238.308 115.159 238.59Z" fill="#00D86B"/>
<path d="M120.203 236.231C120.203 237.036 120.811 237.345 121.56 236.915L134.063 229.69C134.447 229.448 134.769 229.12 135.003 228.732C135.237 228.343 135.377 227.905 135.411 227.453C135.411 226.639 134.802 226.339 134.063 226.77L121.56 233.985C121.173 234.226 120.848 234.555 120.612 234.946C120.376 235.336 120.236 235.777 120.203 236.231Z" fill="#E0E0E0"/>
<path d="M115.159 244.476V245.525C115.159 246.049 115.524 246.255 115.973 245.993L116.909 245.468C117.145 245.315 117.342 245.108 117.483 244.864C117.625 244.62 117.707 244.346 117.723 244.065V243.007C117.723 242.492 117.358 242.287 116.909 242.539L115.973 243.073C115.736 243.226 115.539 243.433 115.397 243.677C115.256 243.921 115.174 244.195 115.159 244.476Z" fill="#00D86B"/>
<path d="M120.203 242.071C120.203 242.885 120.811 243.185 121.56 242.754L134.063 235.539C134.447 235.297 134.769 234.969 135.003 234.581C135.237 234.192 135.377 233.754 135.411 233.302C135.411 232.488 134.802 232.188 134.063 232.619L121.56 239.834C121.174 240.074 120.85 240.402 120.614 240.791C120.378 241.179 120.237 241.618 120.203 242.071Z" fill="#E0E0E0"/>
<path d="M115.159 250.316V251.374C115.159 251.889 115.524 252.104 115.973 251.842L116.909 251.318C117.145 251.164 117.342 250.957 117.483 250.713C117.625 250.469 117.707 250.195 117.723 249.914V248.885C117.723 248.37 117.358 248.155 116.909 248.417L115.973 248.941C115.74 249.092 115.546 249.294 115.404 249.533C115.263 249.772 115.179 250.04 115.159 250.316Z" fill="#00D86B"/>
<path d="M120.203 247.949C120.203 248.753 120.811 249.062 121.56 248.632L134.082 241.397C134.466 241.154 134.788 240.824 135.022 240.434C135.256 240.044 135.395 239.605 135.43 239.151C135.43 238.347 134.821 238.038 134.082 238.468L121.579 245.684C121.186 245.925 120.857 246.257 120.618 246.65C120.379 247.044 120.237 247.489 120.203 247.949Z" fill="#E0E0E0"/>
<path d="M116.403 257.448L133.97 247.303C134.718 246.872 135.327 247.172 135.327 247.986C135.292 248.439 135.151 248.878 134.915 249.267C134.68 249.655 134.356 249.983 133.97 250.223L116.403 260.367C115.655 260.798 115.046 260.499 115.056 259.684C115.088 259.232 115.228 258.793 115.462 258.405C115.696 258.016 116.018 257.688 116.403 257.448Z" fill="#E0E0E0"/>
<path d="M115.046 265.009V266.067C115.046 266.581 115.411 266.797 115.861 266.535L116.796 266.011C117.032 265.856 117.227 265.649 117.367 265.405C117.507 265.161 117.587 264.888 117.601 264.607V263.549C117.601 263.035 117.236 262.819 116.796 263.081L115.861 263.605C115.624 263.759 115.427 263.966 115.286 264.21C115.144 264.454 115.062 264.728 115.046 265.009Z" fill="#00D86B"/>
<path d="M120.119 262.614C120.119 263.418 120.727 263.727 121.466 263.297L133.97 256.081C134.356 255.839 134.68 255.51 134.916 255.12C135.151 254.73 135.292 254.29 135.327 253.835C135.327 253.03 134.718 252.722 133.97 253.152L121.466 260.368C121.082 260.611 120.761 260.941 120.527 261.331C120.293 261.721 120.153 262.16 120.119 262.614Z" fill="#E0E0E0"/>
<path d="M278.309 37.3781C279.722 36.5639 280.864 37.2284 280.864 38.8568C280.817 39.7425 280.561 40.6046 280.117 41.3724C279.673 42.1402 279.053 42.7919 278.309 43.2741C276.905 44.0789 275.763 43.4238 275.763 41.7954C275.809 40.9105 276.063 40.049 276.506 39.2812C276.948 38.5135 277.566 37.8613 278.309 37.3781Z" fill="white"/>
<path d="M269.128 42.6845C270.541 41.8703 271.683 42.5254 271.683 44.1538C271.642 45.046 271.389 45.9156 270.944 46.6903C270.5 47.4651 269.877 48.1227 269.128 48.6085C267.724 49.4227 266.582 48.7583 266.582 47.1392C266.622 46.2478 266.874 45.3788 267.316 44.6041C267.759 43.8294 268.38 43.1714 269.128 42.6845Z" fill="white"/>
<path d="M261.755 51.9668C262.75 50.2434 262.751 48.3813 261.757 47.8076C260.763 47.2339 259.151 48.1658 258.156 49.8891C257.161 51.6125 257.16 53.4746 258.154 54.0483C259.147 54.6221 260.76 53.6901 261.755 51.9668Z" fill="white"/>
<path d="M287.808 41.4304V54.6075L75.8802 176.982V163.805L80.0448 161.39C81.1585 160.744 81.5329 159.762 82.0663 157.881L83.4795 152.977C83.9287 151.273 84.4153 150.113 85.5103 149.467L133.848 121.55C134.971 120.904 135.851 120.839 136.656 122.252L138.387 125.397C139.023 126.492 139.323 127.137 140.455 126.492L287.808 41.4304Z" fill="#E6E6E6"/>
<path d="M75.8802 163.805V176.982L72.0712 174.782V161.615L75.8802 163.805Z" fill="#E0E0E0"/>
<path opacity="0.5" d="M85.1734 164.75L81.9914 166.621L83.208 164.291C83.2555 164.204 83.2804 164.105 83.2804 164.006C83.2804 163.906 83.2555 163.808 83.208 163.72C83.1144 163.608 82.946 163.72 82.843 163.898L81.121 167.211C81.121 167.211 81.121 167.286 81.0743 167.333C81.0653 167.389 81.0653 167.445 81.0743 167.501C81.0636 167.551 81.0636 167.602 81.0743 167.651C81.0877 167.677 81.1034 167.702 81.121 167.726L82.843 169.045C82.8673 169.064 82.8969 169.073 82.9273 169.073C82.9576 169.073 82.9872 169.064 83.0115 169.045C83.102 168.988 83.1711 168.903 83.208 168.802C83.2586 168.721 83.2854 168.627 83.2854 168.531C83.2854 168.435 83.2586 168.341 83.208 168.259L81.9914 167.323L85.1734 165.452C85.2567 165.388 85.3239 165.306 85.3695 165.212C85.415 165.117 85.4376 165.014 85.4354 164.909C85.4354 164.778 85.3137 164.656 85.1734 164.75Z" fill="#455A64"/>
<path opacity="0.5" d="M87.8312 163.215L91.0132 161.343L89.7966 160.407C89.6936 160.333 89.6843 160.089 89.7966 159.865C89.9089 159.64 90.0492 159.546 90.1522 159.621L91.8835 160.95C91.8895 160.972 91.8895 160.994 91.8835 161.016C91.8893 161.062 91.8893 161.11 91.8835 161.156C91.8881 161.215 91.8881 161.275 91.8835 161.334C91.8874 161.374 91.8874 161.415 91.8835 161.456L90.1522 164.778C90.1165 164.859 90.058 164.927 89.9837 164.974C89.9715 164.987 89.957 164.997 89.9409 165.004C89.9248 165.01 89.9076 165.014 89.8901 165.014C89.8727 165.014 89.8555 165.01 89.8394 165.004C89.8233 164.997 89.8088 164.987 89.7966 164.974C89.7482 164.887 89.7229 164.789 89.7229 164.689C89.7229 164.589 89.7482 164.491 89.7966 164.404L91.0132 162.073L87.8312 163.945C87.6909 164.029 87.5786 163.945 87.5786 163.702C87.5848 163.608 87.6104 163.516 87.6539 163.432C87.6974 163.348 87.7578 163.274 87.8312 163.215Z" fill="#455A64"/>
<path opacity="0.5" d="M98.2662 154.053C98.2662 153.866 98.079 153.894 97.9948 154.1L97.5643 155.167C96.8156 155.082 95.9172 155.812 95.3088 157.094C94.5227 158.76 94.5227 160.735 95.3088 161.493C95.5002 161.672 95.7481 161.778 96.0096 161.793C96.271 161.809 96.5297 161.732 96.7407 161.577C97.3739 161.152 97.8685 160.55 98.1632 159.846C98.2144 159.761 98.2415 159.664 98.2415 159.565C98.2415 159.466 98.2144 159.369 98.1632 159.284C98.0696 159.191 97.9012 159.284 97.8076 159.5C97.218 160.744 96.2634 161.296 95.6738 160.726C95.0842 160.155 95.0842 158.685 95.6738 157.441C96.0856 156.561 96.6939 156.037 97.218 155.999L96.8904 156.804C96.8062 157.01 96.8905 157.207 97.0121 157.122L98.313 156.271C98.3647 156.228 98.4047 156.173 98.4293 156.111C98.4539 156.049 98.4622 155.982 98.4534 155.915L98.2662 154.053Z" fill="#455A64"/>
<path opacity="0.5" d="M132.453 127.568L133.614 125.116C133.684 125 133.721 124.867 133.721 124.732C133.721 124.597 133.684 124.464 133.614 124.348C133.474 124.217 133.258 124.348 133.118 124.638L131.957 127.09L130.797 125.977C130.666 125.846 130.441 125.977 130.301 126.257C130.235 126.375 130.201 126.507 130.201 126.641C130.201 126.775 130.235 126.908 130.301 127.025L131.433 128.157L130.273 130.619C130.207 130.734 130.173 130.865 130.173 130.998C130.173 131.13 130.207 131.261 130.273 131.377C130.309 131.405 130.353 131.42 130.399 131.42C130.445 131.42 130.489 131.405 130.526 131.377C130.632 131.3 130.716 131.197 130.769 131.077L131.929 128.616L133.09 129.739C133.125 129.769 133.17 129.785 133.216 129.785C133.262 129.785 133.307 129.769 133.343 129.739C133.451 129.664 133.535 129.56 133.586 129.439C133.656 129.324 133.693 129.191 133.693 129.056C133.693 128.92 133.656 128.788 133.586 128.672L132.453 127.568Z" fill="#455A64"/>
<path d="M102.487 157.076V152.977C102.525 152.273 102.729 151.588 103.082 150.979C103.435 150.369 103.927 149.851 104.518 149.467L274.387 51.4161C275.501 50.7704 276.409 51.2945 276.409 52.586V56.6851C276.37 57.3875 276.167 58.071 275.816 58.6806C275.465 59.2901 274.976 59.8087 274.387 60.1946L104.518 158.246C103.357 158.891 102.487 158.367 102.487 157.076Z" fill="#FAFAFA"/>
<path d="M271.626 60.5221C271.568 60.5329 271.507 60.5329 271.449 60.5221C271.336 60.47 271.245 60.3817 271.189 60.2714C271.133 60.1611 271.116 60.0352 271.14 59.9138L271.336 58.248L270.56 57.6865C270.489 57.6333 270.433 57.5637 270.395 57.4838C270.358 57.4039 270.34 57.3161 270.344 57.2279C270.347 57.0936 270.378 56.9613 270.436 56.8402C270.494 56.7191 270.578 56.6119 270.681 56.526L271.87 55.5901C271.893 55.5635 271.909 55.5312 271.917 55.4965L272.45 53.7464C272.484 53.6047 272.559 53.476 272.666 53.3763C272.772 53.2765 272.905 53.21 273.049 53.1849C273.147 53.1769 273.244 53.1997 273.328 53.25C273.412 53.3004 273.478 53.3758 273.517 53.4657L273.966 54.4016L274.968 54.0178C275.06 53.9802 275.161 53.9717 275.258 53.9935C275.355 54.0152 275.443 54.0662 275.51 54.1395C275.59 54.2622 275.632 54.4052 275.632 54.5513C275.632 54.6974 275.59 54.8404 275.51 54.9631L274.649 56.5728C274.649 56.5728 274.649 56.6664 274.649 56.6757L274.846 58.1357C274.867 58.2722 274.858 58.4119 274.82 58.5446C274.781 58.6773 274.713 58.7997 274.621 58.9031C274.563 58.968 274.49 59.0187 274.409 59.0511C274.328 59.0836 274.24 59.0969 274.153 59.0903L273.217 58.9686L272.169 60.3069C272.105 60.3861 272.021 60.4475 271.926 60.4851C271.831 60.5228 271.728 60.5356 271.626 60.5221ZM271.056 57.1343L271.832 57.6958C271.913 57.7632 271.974 57.8505 272.01 57.949C272.047 58.0476 272.056 58.1539 272.038 58.2573L271.907 59.3617L272.609 58.4726C272.668 58.3869 272.748 58.3179 272.842 58.272C272.935 58.2261 273.039 58.205 273.143 58.2105L274.078 58.3322C274.085 58.2951 274.085 58.257 274.078 58.2199L273.873 56.7599C273.855 56.579 273.891 56.3968 273.975 56.2359L274.734 54.8227L273.957 55.1222C273.841 55.1691 273.712 55.169 273.596 55.1217C273.481 55.0745 273.389 54.984 273.339 54.8695L272.993 54.1302L272.516 55.6837C272.463 55.8551 272.362 56.0077 272.225 56.1236L271.028 57.0594C271.032 57.0859 271.042 57.1113 271.056 57.1343Z" fill="#E0E0E0"/>
<g opacity="0.5">
<path opacity="0.5" d="M278.795 50.9297C278.641 50.9288 278.491 50.8772 278.369 50.7827C278.247 50.6882 278.16 50.5562 278.121 50.4071C278.081 50.258 278.092 50.1 278.151 49.9576C278.211 49.8152 278.315 49.6964 278.449 49.6194L284.148 46.3252C284.31 46.2321 284.501 46.2069 284.681 46.2552C284.861 46.3035 285.015 46.4212 285.108 46.5825C285.201 46.7439 285.226 46.9356 285.178 47.1155C285.129 47.2954 285.012 47.4487 284.85 47.5418L279.151 50.8361C279.043 50.8983 278.92 50.9306 278.795 50.9297Z" fill="#455A64"/>
<path opacity="0.5" d="M278.795 54.2238C278.641 54.223 278.491 54.1713 278.369 54.0769C278.247 53.9824 278.16 53.8504 278.121 53.7013C278.081 53.5522 278.092 53.3942 278.151 53.2518C278.211 53.1094 278.315 52.9906 278.449 52.9136L284.148 49.6194C284.31 49.5263 284.501 49.5011 284.681 49.5494C284.861 49.5976 285.015 49.7154 285.108 49.8767C285.201 50.0381 285.226 50.2298 285.178 50.4097C285.129 50.5896 285.012 50.7429 284.85 50.836L279.151 54.1303C279.041 54.1885 278.919 54.2205 278.795 54.2238Z" fill="#455A64"/>
<path opacity="0.5" d="M278.795 57.5181C278.641 57.5172 278.491 57.4656 278.369 57.3711C278.247 57.2767 278.16 57.1447 278.121 56.9955C278.081 56.8464 278.092 56.6884 278.151 56.546C278.211 56.4037 278.315 56.2848 278.449 56.2079L284.148 52.9136C284.306 52.8249 284.493 52.8017 284.668 52.8489C284.843 52.8961 284.992 53.0101 285.084 53.1663C285.171 53.3248 285.192 53.5106 285.145 53.6848C285.098 53.8591 284.986 54.0086 284.832 54.1021L279.132 57.387C279.033 57.459 278.917 57.5041 278.795 57.5181Z" fill="#455A64"/>
</g>
<path d="M75.8802 176.982L75.8708 190.14L287.789 67.7938L287.808 54.6074L75.8802 176.982Z" fill="#455A64"/>
<path d="M99.6138 168.587V171.132C99.6138 171.656 99.9788 171.862 100.428 171.6L132.248 153.21V148.746L100.428 167.136C100.187 167.296 99.9867 167.51 99.845 167.763C99.7034 168.015 99.6241 168.298 99.6138 168.587Z" fill="#FAFAFA"/>
<path d="M136.581 146.285C137.039 146.023 137.404 146.238 137.404 146.762V149.308C137.389 149.592 137.307 149.868 137.164 150.114C137.02 150.36 136.82 150.568 136.581 150.721L132.276 153.21V148.746L136.581 146.285Z" fill="#00D86B"/>
<path d="M136.262 149.776L135.785 149.626C135.833 149.424 135.858 149.217 135.86 149.009C135.881 148.815 135.852 148.619 135.775 148.44C135.698 148.261 135.576 148.106 135.42 147.988C135.316 147.925 135.196 147.891 135.074 147.891C134.952 147.891 134.832 147.925 134.728 147.988C134.426 148.224 134.185 148.527 134.022 148.874C133.86 149.22 133.781 149.6 133.792 149.982C133.769 150.177 133.797 150.375 133.874 150.555C133.951 150.736 134.075 150.893 134.232 151.011C134.325 151.067 134.432 151.096 134.54 151.096C134.68 151.093 134.817 151.051 134.934 150.974C135.297 150.719 135.569 150.355 135.71 149.935L136.188 150.085H136.244C136.281 150.085 136.317 150.073 136.348 150.051C136.378 150.029 136.4 149.999 136.412 149.963C136.413 149.919 136.399 149.877 136.371 149.842C136.344 149.808 136.305 149.785 136.262 149.776ZM134.728 150.712C134.676 150.745 134.616 150.763 134.554 150.763C134.493 150.763 134.433 150.745 134.381 150.712C134.284 150.621 134.209 150.508 134.164 150.383C134.118 150.258 134.103 150.124 134.119 149.991C134.114 149.669 134.182 149.35 134.318 149.058C134.455 148.767 134.655 148.51 134.905 148.307C134.969 148.265 135.044 148.242 135.121 148.241C135.161 148.232 135.202 148.232 135.242 148.241C135.341 148.331 135.417 148.444 135.462 148.569C135.508 148.695 135.522 148.829 135.504 148.962C135.517 149.291 135.454 149.618 135.319 149.919C135.184 150.219 134.982 150.484 134.728 150.693V150.712Z" fill="#FAFAFA"/>
<path d="M94.0641 170.861L91.8929 172.143C91.6566 172.297 91.4597 172.504 91.3183 172.748C91.1769 172.992 91.0948 173.265 91.0787 173.547V176.064C91.0787 176.588 91.4437 176.794 91.8929 176.532L94.0641 175.278C94.301 175.125 94.4982 174.918 94.6397 174.674C94.7812 174.43 94.863 174.156 94.8783 173.874V171.357C94.8783 170.814 94.5133 170.599 94.0641 170.861Z" fill="#FAFAFA"/>
<path d="M169.523 126.22C168.678 126.773 167.975 127.516 167.471 128.391C166.967 129.266 166.676 130.247 166.622 131.255C166.622 133.127 167.923 133.857 169.523 132.93C170.368 132.378 171.071 131.634 171.575 130.759C172.079 129.885 172.37 128.903 172.424 127.895C172.424 126.052 171.124 125.294 169.523 126.22Z" fill="#00D86B"/>
<path d="M169.186 129.177C169.095 129.179 169.004 129.157 168.924 129.112C168.83 129.049 168.754 128.962 168.705 128.86C168.656 128.758 168.634 128.645 168.643 128.532C168.657 128.265 168.734 128.006 168.867 127.775C169 127.544 169.187 127.348 169.411 127.203C169.509 127.146 169.62 127.116 169.734 127.116C169.847 127.116 169.958 127.146 170.057 127.203C170.151 127.266 170.227 127.353 170.276 127.455C170.325 127.557 170.347 127.67 170.337 127.783C170.324 128.049 170.247 128.309 170.114 128.54C169.98 128.771 169.794 128.967 169.57 129.112C169.45 129.166 169.318 129.188 169.186 129.177Z" fill="white"/>
<path d="M170.674 129.374C170.512 129.293 170.33 129.257 170.149 129.27C169.968 129.283 169.794 129.345 169.645 129.449L169.224 129.692C168.84 129.936 168.521 130.269 168.294 130.664C168.067 131.059 167.94 131.502 167.923 131.957V132.256C168.182 132.368 168.465 132.412 168.745 132.382C169.026 132.353 169.294 132.251 169.523 132.088C170.19 131.67 170.74 131.09 171.124 130.403V130.328C171.141 130.144 171.108 129.958 171.029 129.79C170.95 129.622 170.828 129.478 170.674 129.374Z" fill="white"/>
<path d="M176.168 123.974L196.055 112.482C196.86 112.023 197.515 112.369 197.515 113.277C197.484 113.775 197.336 114.259 197.082 114.688C196.829 115.118 196.477 115.481 196.055 115.748L176.168 127.221C175.363 127.689 174.708 127.334 174.708 126.435C174.741 125.939 174.89 125.458 175.144 125.03C175.397 124.602 175.748 124.241 176.168 123.974Z" fill="#E0E0E0"/>
<path d="M206.527 106.464L218.872 99.2764C219.676 98.8085 220.322 99.1641 220.332 100.063C220.299 100.56 220.149 101.043 219.896 101.472C219.642 101.901 219.291 102.265 218.872 102.533L206.527 109.73C205.723 110.189 205.068 109.842 205.068 108.935C205.1 108.437 205.25 107.954 205.503 107.525C205.757 107.096 206.108 106.733 206.527 106.464Z" fill="#E0E0E0"/>
<path d="M229.363 93.3431L237.879 88.4017C238.684 87.9337 239.339 88.2894 239.339 89.1878C239.308 89.6856 239.159 90.1689 238.905 90.5982C238.652 91.0276 238.3 91.3909 237.879 91.6585L229.363 96.6092C228.558 97.0678 227.903 96.7215 227.903 95.8231C227.934 95.3241 228.083 94.8395 228.336 94.4086C228.59 93.9777 228.942 93.6127 229.363 93.3431Z" fill="#E0E0E0"/>
<path d="M201.324 113.679C201.23 113.679 201.139 113.642 201.073 113.575C201.006 113.509 200.968 113.418 200.968 113.324V108.935C200.982 108.851 201.025 108.776 201.089 108.721C201.153 108.666 201.235 108.636 201.319 108.636C201.404 108.636 201.485 108.666 201.55 108.721C201.614 108.776 201.657 108.851 201.67 108.935V113.324C201.67 113.417 201.634 113.506 201.57 113.572C201.505 113.638 201.417 113.677 201.324 113.679Z" fill="#263238"/>
<path d="M224.131 100.512C224.037 100.512 223.946 100.474 223.88 100.408C223.813 100.341 223.776 100.25 223.776 100.156V95.7669C223.789 95.6836 223.832 95.608 223.896 95.5533C223.961 95.4987 224.042 95.4688 224.126 95.4688C224.211 95.4688 224.292 95.4987 224.357 95.5533C224.421 95.608 224.464 95.6836 224.477 95.7669V100.156C224.477 100.249 224.441 100.338 224.377 100.404C224.312 100.471 224.224 100.509 224.131 100.512Z" fill="#263238"/>
<path d="M243.139 89.5341C243.046 89.5342 242.957 89.498 242.89 89.4333C242.824 89.3686 242.785 89.2805 242.783 89.1879V84.7986C242.775 84.7477 242.778 84.6956 242.791 84.646C242.805 84.5963 242.83 84.5502 242.863 84.5109C242.896 84.4716 242.938 84.44 242.985 84.4184C243.031 84.3967 243.082 84.3855 243.134 84.3855C243.186 84.3855 243.236 84.3967 243.283 84.4184C243.33 84.44 243.372 84.4716 243.405 84.5109C243.438 84.5502 243.463 84.5963 243.477 84.646C243.49 84.6956 243.493 84.7477 243.485 84.7986V89.1879C243.483 89.2789 243.445 89.3656 243.381 89.4301C243.316 89.4945 243.23 89.5318 243.139 89.5341Z" fill="#263238"/>
<path d="M250.448 82.7678V81.963C250.448 81.0271 249.886 80.6153 249.194 81.0271C248.815 81.3007 248.505 81.6589 248.289 82.0732C248.073 82.4874 247.957 82.9464 247.949 83.4136V84.1716C247.934 84.6713 247.789 85.1584 247.528 85.5848C247.462 85.6955 247.427 85.8213 247.425 85.9498C247.425 86.1838 247.565 86.2867 247.734 86.1931L250.663 84.5086C250.757 84.4373 250.834 84.3455 250.888 84.2401C250.941 84.1347 250.97 84.0185 250.972 83.9002C250.975 83.8553 250.968 83.8103 250.952 83.7682C250.936 83.7262 250.911 83.6882 250.878 83.6569C250.724 83.5708 250.6 83.4393 250.523 83.2803C250.446 83.1212 250.42 82.9423 250.448 82.7678Z" fill="#00D86B"/>
<path d="M249.802 85.2009C249.797 85.4269 249.74 85.6487 249.634 85.8486C249.529 86.0484 249.378 86.2208 249.194 86.352C248.866 86.5392 248.595 86.352 248.595 85.8935L249.802 85.2009Z" fill="#00D86B"/>
<path d="M255.792 79.2303C255.69 79.2299 255.59 79.2042 255.501 79.1554C255.395 79.0843 255.309 78.9862 255.254 78.871C255.198 78.7559 255.173 78.6279 255.183 78.5003C255.196 78.1999 255.281 77.907 255.431 77.6464C255.581 77.3857 255.791 77.165 256.044 77.0029C256.151 76.931 256.274 76.888 256.402 76.8782C256.53 76.8683 256.658 76.892 256.774 76.9468C256.881 77.0179 256.966 77.116 257.022 77.2312C257.078 77.3463 257.102 77.4743 257.092 77.6019C257.08 77.9023 256.995 78.1952 256.845 78.4558C256.695 78.7165 256.485 78.9372 256.231 79.0993C256.098 79.1788 255.947 79.2238 255.792 79.2303Z" fill="#00D86B"/>
<path d="M257.467 79.4922C257.284 79.403 257.081 79.3647 256.878 79.3812C256.676 79.3976 256.481 79.4683 256.316 79.5857L255.838 79.8571C255.408 80.1353 255.05 80.5122 254.794 80.9566C254.539 81.401 254.393 81.9 254.369 82.4121V82.749C254.661 82.8736 254.98 82.9218 255.296 82.8891C255.612 82.8564 255.915 82.7437 256.175 82.5618C256.922 82.0959 257.542 81.453 257.982 80.6901V80.6058C258.004 80.391 257.968 80.1741 257.878 79.9781C257.787 79.782 257.645 79.6141 257.467 79.4922Z" fill="#00D86B"/>
<path d="M258.113 77.0588C258.011 77.0632 257.91 77.0371 257.822 76.9839C257.715 76.9143 257.628 76.8164 257.572 76.7009C257.516 76.5854 257.492 76.4567 257.504 76.3288C257.517 76.0284 257.602 75.7355 257.752 75.4749C257.902 75.2142 258.112 74.9935 258.365 74.8314C258.467 74.7506 258.591 74.7024 258.721 74.6932C258.851 74.6841 258.98 74.7144 259.093 74.7802C259.205 74.8459 259.295 74.9441 259.35 75.0618C259.406 75.1795 259.425 75.3112 259.404 75.4397C259.39 75.7385 259.304 76.0296 259.154 76.2885C259.005 76.5474 258.795 76.7666 258.543 76.9278C258.415 77.011 258.265 77.0564 258.113 77.0588Z" fill="#00D86B"/>
<path d="M259.788 77.2834C259.605 77.1921 259.4 77.1518 259.196 77.1666C258.992 77.1814 258.795 77.2508 258.627 77.3676L258.159 77.6484C257.617 77.9834 257.194 78.4813 256.952 79.0709C257.109 78.9857 257.284 78.9411 257.462 78.9411C257.64 78.9411 257.816 78.9857 257.972 79.0709C258.147 79.1898 258.286 79.3531 258.377 79.5439C258.467 79.7347 258.505 79.9461 258.487 80.1565V80.3624C259.241 79.903 259.866 79.2588 260.303 78.4906V78.4064C260.328 78.19 260.293 77.9708 260.203 77.7728C260.112 77.5747 259.968 77.4054 259.788 77.2834Z" fill="#00D86B"/>
<path d="M265.571 71.2938C264.876 71.7466 264.297 72.3573 263.883 73.0762C263.468 73.795 263.229 74.6016 263.185 75.4303C263.167 75.6904 263.205 75.9514 263.297 76.1954C263.389 76.4393 263.533 76.6604 263.718 76.8435L263.419 78.2567C263.419 78.4345 263.503 78.5093 263.615 78.3783L264.692 77.1243C265.002 77.0776 265.3 76.9728 265.571 76.8154C266.265 76.361 266.841 75.7497 267.254 75.031C267.667 74.3124 267.905 73.5066 267.948 72.6789C267.948 71.1534 266.882 70.5357 265.571 71.2938Z" fill="#00D86B"/>
<path d="M277.017 64.6306C277.194 64.5158 277.397 64.4452 277.607 64.4247C277.771 64.4025 277.938 64.4319 278.084 64.5089C278.227 64.5965 278.339 64.7277 278.402 64.8833C278.491 65.0866 278.533 65.3074 278.524 65.529C278.527 65.7244 278.505 65.9194 278.458 66.1093C278.412 66.287 278.356 66.462 278.29 66.6334C278.215 66.7925 278.14 66.9516 278.056 67.1013C277.972 67.251 277.897 67.3914 277.822 67.5318C277.747 67.6722 277.672 67.8219 277.616 67.9623C277.555 68.0968 277.511 68.2382 277.485 68.3834C277.474 68.4499 277.458 68.5156 277.438 68.58C277.417 68.6302 277.381 68.6727 277.335 68.7016L276.661 69.0947C276.646 69.1085 276.626 69.1161 276.605 69.1161C276.585 69.1161 276.565 69.1085 276.549 69.0947C276.516 69.0558 276.499 69.0054 276.502 68.9543C276.504 68.7709 276.529 68.5884 276.577 68.4115C276.63 68.2335 276.692 68.0585 276.764 67.8874C276.839 67.7283 276.923 67.5599 277.008 67.4101C277.092 67.2604 277.176 67.1107 277.251 66.9703C277.323 66.844 277.386 66.7126 277.438 66.5772C277.487 66.4618 277.513 66.3377 277.513 66.2122C277.513 66.0438 277.513 65.9408 277.391 65.894C277.27 65.8472 277.186 65.894 277.017 65.9689C276.871 66.048 276.746 66.1602 276.652 66.2964C276.586 66.4052 276.532 66.5214 276.493 66.6427C276.493 66.755 276.428 66.858 276.409 66.9422C276.387 67.0248 276.337 67.0975 276.268 67.1481L275.585 67.5412C275.572 67.5518 275.555 67.5576 275.538 67.5576C275.521 67.5576 275.505 67.5518 275.492 67.5412C275.478 67.505 275.478 67.465 275.492 67.4288C275.498 67.1916 275.533 66.9561 275.595 66.7269C275.673 66.4559 275.776 66.1927 275.903 65.9408C276.039 65.6779 276.202 65.4301 276.39 65.2015C276.562 64.9741 276.775 64.7806 277.017 64.6306ZM277.504 70.2458C277.502 70.3108 277.486 70.3746 277.457 70.433C277.435 70.4853 277.4 70.5306 277.354 70.564L276.643 70.9664C276.629 70.9796 276.61 70.9869 276.591 70.9869C276.572 70.9869 276.554 70.9796 276.54 70.9664C276.507 70.9275 276.49 70.8771 276.493 70.826V69.9557C276.495 69.8907 276.511 69.8269 276.54 69.7685C276.558 69.7145 276.595 69.6683 276.643 69.6375L277.354 69.2257C277.369 69.2143 277.387 69.2082 277.405 69.2082C277.424 69.2082 277.442 69.2143 277.457 69.2257C277.49 69.2646 277.507 69.315 277.504 69.3661V70.2458Z" fill="#00D86B"/>
<path d="M110.086 177.122V216.335C110.086 217.626 111.022 218.15 112.117 217.505L251.561 136.964C252.15 136.578 252.639 136.059 252.99 135.45C253.341 134.84 253.544 134.157 253.583 133.454V94.2507C253.583 92.9592 252.647 92.4352 251.561 93.0809L112.117 173.612C111.526 173.996 111.034 174.514 110.681 175.124C110.328 175.734 110.124 176.418 110.086 177.122Z" fill="#00D86B"/>
<path opacity="0.7" d="M110.086 177.122V216.335C110.086 217.626 111.022 218.15 112.117 217.505L251.561 136.964C252.15 136.578 252.639 136.059 252.99 135.45C253.341 134.84 253.544 134.157 253.583 133.454V94.2507C253.583 92.9592 252.647 92.4352 251.561 93.0809L112.117 173.612C111.526 173.996 111.034 174.514 110.681 175.124C110.328 175.734 110.124 176.418 110.086 177.122Z" fill="white"/>
<path d="M121.494 182.831C117.292 185.264 113.886 191.16 113.886 196.008C113.886 200.856 117.292 202.821 121.494 200.397C125.696 197.973 129.103 192.077 129.094 187.22C129.084 182.363 125.687 180.407 121.494 182.831Z" fill="#00D86B"/>
<path d="M120.605 190.57C120.369 190.574 120.136 190.512 119.932 190.393C119.683 190.228 119.484 189.999 119.356 189.731C119.227 189.462 119.174 189.164 119.202 188.867C119.233 188.173 119.431 187.496 119.777 186.894C120.124 186.291 120.61 185.78 121.195 185.404C121.43 185.213 121.718 185.098 122.02 185.074C122.321 185.049 122.624 185.117 122.886 185.268C123.149 185.419 123.36 185.647 123.49 185.92C123.621 186.193 123.666 186.5 123.619 186.799C123.586 187.494 123.386 188.171 123.038 188.773C122.69 189.376 122.202 189.886 121.616 190.262C121.312 190.452 120.964 190.559 120.605 190.57Z" fill="white"/>
<path d="M124.499 191.076C124.075 190.866 123.603 190.774 123.132 190.81C122.661 190.846 122.208 191.009 121.822 191.282L120.718 191.918C119.717 192.562 118.884 193.436 118.289 194.466C117.693 195.496 117.351 196.654 117.292 197.842V198.628C118.378 199.227 119.857 199.124 121.494 198.179C123.242 197.091 124.684 195.578 125.687 193.78V193.593C125.725 193.107 125.635 192.618 125.427 192.177C125.218 191.735 124.898 191.356 124.499 191.076Z" fill="white"/>
<path d="M134.353 181.23L150.46 171.937C151.264 171.469 151.92 171.769 151.92 172.592C151.876 173.069 151.721 173.529 151.467 173.935C151.214 174.342 150.869 174.683 150.46 174.932L134.353 184.225C133.548 184.693 132.893 184.403 132.893 183.57C132.937 183.093 133.092 182.633 133.346 182.227C133.599 181.821 133.944 181.48 134.353 181.23Z" fill="#455A64"/>
<path d="M133.754 187.463L143.225 181.998C143.693 181.717 144.077 181.895 144.077 182.382C144.051 182.661 143.961 182.931 143.813 183.17C143.665 183.408 143.464 183.609 143.225 183.757L133.754 189.223C133.277 189.494 132.893 189.326 132.893 188.839C132.918 188.558 133.009 188.287 133.159 188.048C133.308 187.809 133.512 187.608 133.754 187.463Z" fill="#455A64"/>
<path d="M112.117 217.552L251.561 137.067C252.15 136.681 252.639 136.162 252.99 135.553C253.341 134.943 253.544 134.26 253.583 133.557V127.128L110.086 209.943V216.382C110.086 217.673 110.994 218.197 112.117 217.552Z" fill="#F5F5F5"/>
<path d="M148.101 194.876C148.055 194.877 148.01 194.869 147.967 194.852C147.925 194.835 147.886 194.809 147.853 194.777C147.821 194.745 147.796 194.706 147.779 194.663C147.762 194.621 147.754 194.575 147.755 194.529V190.14C147.754 190.094 147.762 190.048 147.779 190.005C147.795 189.962 147.821 189.922 147.853 189.889C147.885 189.856 147.924 189.83 147.966 189.812C148.009 189.794 148.055 189.784 148.101 189.784C148.196 189.784 148.286 189.822 148.353 189.889C148.419 189.955 148.457 190.046 148.457 190.14V194.529C148.457 194.576 148.448 194.621 148.43 194.664C148.412 194.707 148.385 194.745 148.352 194.777C148.319 194.81 148.28 194.835 148.237 194.852C148.193 194.869 148.147 194.877 148.101 194.876Z" fill="#EBEBEB"/>
<path d="M131.096 200.659L143.431 193.462C144.236 193.004 144.891 193.35 144.891 194.258C144.858 194.755 144.709 195.238 144.456 195.667C144.202 196.096 143.851 196.46 143.431 196.728L131.096 203.963C130.292 204.431 129.637 204.075 129.637 203.177C129.662 202.671 129.808 202.179 130.062 201.741C130.316 201.303 130.67 200.932 131.096 200.659Z" fill="#E0E0E0"/>
<path d="M170.384 181.932C170.338 181.932 170.292 181.923 170.249 181.905C170.207 181.887 170.168 181.861 170.136 181.828C170.104 181.795 170.078 181.755 170.062 181.712C170.045 181.669 170.037 181.623 170.038 181.577V177.188C170.038 177.096 170.074 177.008 170.139 176.943C170.204 176.878 170.292 176.841 170.384 176.841C170.477 176.841 170.566 176.877 170.632 176.942C170.699 177.007 170.737 177.095 170.74 177.188V181.577C170.74 181.671 170.702 181.762 170.636 181.828C170.569 181.895 170.479 181.932 170.384 181.932Z" fill="#EBEBEB"/>
<path d="M153.379 187.707L165.714 180.566C166.519 180.098 167.174 180.454 167.174 181.352C167.143 181.85 166.994 182.333 166.741 182.763C166.487 183.192 166.135 183.555 165.714 183.823L153.379 191.02C152.575 191.488 151.92 191.132 151.92 190.234C151.944 189.726 152.089 189.232 152.343 188.793C152.597 188.353 152.952 187.981 153.379 187.707Z" fill="#E0E0E0"/>
<path d="M192.667 168.98C192.575 168.98 192.485 168.944 192.419 168.879C192.353 168.815 192.314 168.726 192.312 168.634V164.245C192.312 164.15 192.349 164.06 192.416 163.993C192.482 163.926 192.573 163.889 192.667 163.889C192.714 163.889 192.759 163.898 192.802 163.916C192.845 163.934 192.883 163.96 192.915 163.994C192.948 164.027 192.973 164.066 192.99 164.109C193.007 164.152 193.015 164.198 193.014 164.245V168.634C193.014 168.726 192.977 168.814 192.912 168.879C192.847 168.944 192.759 168.98 192.667 168.98Z" fill="#EBEBEB"/>
<path d="M175.662 174.764L187.997 167.567C188.802 167.108 189.457 167.454 189.457 168.362C189.424 168.86 189.275 169.342 189.022 169.771C188.768 170.201 188.417 170.564 187.997 170.833L175.662 178.02C174.858 178.488 174.203 178.133 174.203 177.234C174.235 176.737 174.385 176.254 174.638 175.825C174.892 175.396 175.243 175.032 175.662 174.764Z" fill="#E0E0E0"/>
<path d="M214.95 156.037C214.856 156.037 214.766 155.999 214.699 155.933C214.632 155.866 214.595 155.776 214.595 155.681V151.292C214.595 151.246 214.604 151.2 214.622 151.157C214.64 151.115 214.666 151.076 214.699 151.044C214.733 151.011 214.772 150.986 214.815 150.969C214.858 150.952 214.904 150.944 214.95 150.946C214.996 150.944 215.042 150.952 215.084 150.969C215.127 150.986 215.166 151.012 215.198 151.044C215.23 151.077 215.256 151.115 215.273 151.158C215.29 151.201 215.298 151.246 215.297 151.292V155.681C215.298 155.727 215.29 155.773 215.273 155.817C215.256 155.86 215.231 155.899 215.199 155.932C215.166 155.965 215.128 155.992 215.085 156.01C215.042 156.028 214.997 156.037 214.95 156.037Z" fill="#EBEBEB"/>
<path d="M197.946 161.849L210.28 154.661C211.085 154.193 211.74 154.549 211.74 155.447C211.709 155.945 211.56 156.428 211.307 156.858C211.053 157.287 210.701 157.65 210.28 157.918L197.946 165.115C197.131 165.583 196.486 165.227 196.486 164.329C196.515 163.829 196.662 163.344 196.916 162.912C197.17 162.481 197.523 162.117 197.946 161.849Z" fill="#E0E0E0"/>
<path d="M220.219 148.868L232.563 141.671C233.368 141.213 234.023 141.559 234.023 142.467C233.99 142.964 233.841 143.447 233.588 143.876C233.334 144.305 232.983 144.669 232.563 144.937L220.219 152.125C219.414 152.593 218.769 152.237 218.769 151.339C218.8 150.842 218.947 150.36 219.199 149.93C219.451 149.501 219.801 149.137 220.219 148.868Z" fill="#E0E0E0"/>
<path d="M105.229 348.919L117.667 341.751C117.667 341.751 125.388 319.028 123.432 298.102C120.97 272.103 108.692 262.922 101.486 265.861C94.2794 268.8 95.7674 279.122 103.413 293.001C109.45 304.035 109.469 329.416 105.229 348.919Z" fill="#00D86B"/>
<path opacity="0.1" d="M105.229 348.919L117.667 341.751C117.667 341.751 125.388 319.028 123.432 298.102C120.97 272.103 108.692 262.922 101.486 265.861C94.2794 268.8 95.7674 279.122 103.413 293.001C109.45 304.035 109.469 329.416 105.229 348.919Z" fill="black"/>
<path d="M111.172 346.065C111.29 346.065 111.405 346.028 111.501 345.959C111.596 345.89 111.668 345.793 111.705 345.681C119.716 321.152 120.053 286.722 104.892 271.177C104.841 271.124 104.779 271.082 104.711 271.053C104.643 271.024 104.57 271.008 104.496 271.007C104.423 271.006 104.349 271.02 104.281 271.048C104.212 271.075 104.15 271.116 104.097 271.167C104.044 271.219 104.002 271.281 103.973 271.348C103.944 271.416 103.928 271.489 103.927 271.563C103.926 271.637 103.94 271.71 103.968 271.779C103.995 271.848 104.036 271.91 104.087 271.963C118.397 286.619 118.649 320.778 110.638 345.326C110.615 345.396 110.606 345.471 110.612 345.545C110.618 345.619 110.638 345.691 110.672 345.758C110.706 345.824 110.753 345.883 110.81 345.931C110.867 345.978 110.932 346.015 111.003 346.037C111.058 346.055 111.115 346.065 111.172 346.065Z" fill="white"/>
<path d="M82.8431 361.825C81.5516 362.564 78.8937 360.945 77.883 360.262C76.1433 359.076 74.7355 357.466 73.7933 355.583C72.7411 353.437 72.3814 351.017 72.7638 348.657C72.9738 347.413 73.2678 346.184 73.6435 344.979C73.9898 343.791 74.3267 342.602 74.673 341.404C75.0869 340.254 75.2652 339.032 75.1971 337.811C74.8789 335.368 72.717 333.655 70.7423 332.195C68.5617 330.567 66.2969 328.405 66.3063 325.467C66.4617 323.183 67.3739 321.016 68.8987 319.309C70.3025 317.53 71.9683 315.958 73.2411 314.077C74.2435 312.769 74.7656 311.157 74.7198 309.51C74.5825 308.502 74.2452 307.531 73.7277 306.656C72.6889 304.737 71.3132 302.987 70.6019 300.928C69.8907 298.869 69.9843 296.314 71.594 294.845C72.9135 293.638 74.8695 293.469 76.657 293.582C78.3181 293.789 79.9144 294.355 81.3364 295.238C86.0157 297.84 88.6736 303.361 93.6243 305.364C95.496 306.131 97.6298 306.3 99.6232 306.824C101.617 307.348 103.647 308.368 104.565 310.212C106.39 313.843 103.011 318.326 104.284 322.182C105.416 325.588 108.739 326.861 110.601 329.968C111.359 331.325 111.664 332.889 111.471 334.432C111.313 337.043 110.678 339.602 109.6 341.985C108.391 344.349 107.008 346.62 105.463 348.779C105.379 348.835 83.0396 361.713 82.8431 361.825Z" fill="#00D86B"/>
<path d="M96.1886 354.638C96.3112 354.634 96.4286 354.587 96.5196 354.505C96.6105 354.422 96.669 354.31 96.6846 354.188C99.0898 335.134 89.9931 309.426 76.4043 296.894C76.3044 296.817 76.1792 296.781 76.0535 296.791C75.9277 296.802 75.8105 296.859 75.7249 296.952C75.6393 297.045 75.5914 297.166 75.5907 297.292C75.59 297.418 75.6365 297.54 75.7212 297.634C89.0947 309.978 98.051 335.293 95.6832 354.067C95.6674 354.199 95.7047 354.333 95.7872 354.438C95.8696 354.544 95.9904 354.612 96.1231 354.628L96.1886 354.638Z" fill="white"/>
<path d="M93.8583 330.23C93.9369 330.23 94.0143 330.211 94.0843 330.176C94.1543 330.14 94.2147 330.088 94.2607 330.024C94.3402 329.918 94.3749 329.785 94.3574 329.654C94.3399 329.523 94.2716 329.404 94.1671 329.322C86.6802 323.707 75.2064 324.643 74.7291 324.718C74.6627 324.724 74.598 324.743 74.5389 324.774C74.4798 324.805 74.4274 324.847 74.3848 324.898C74.3422 324.95 74.3101 325.009 74.2905 325.073C74.2709 325.137 74.2641 325.204 74.2705 325.27C74.2847 325.402 74.3491 325.523 74.4501 325.608C74.5512 325.693 74.6813 325.737 74.8134 325.729C74.935 325.729 86.3713 324.737 93.5307 330.127C93.6252 330.197 93.7406 330.234 93.8583 330.23Z" fill="white"/>
<path d="M92.7352 325.551C92.8636 325.551 92.987 325.501 93.0795 325.412C93.172 325.323 93.2264 325.202 93.2312 325.073C93.5775 316.342 100.166 311.035 100.232 311.035C100.285 310.995 100.329 310.945 100.363 310.887C100.396 310.829 100.418 310.765 100.426 310.699C100.435 310.633 100.431 310.566 100.413 310.502C100.396 310.437 100.366 310.377 100.325 310.324C100.241 310.221 100.119 310.154 99.9865 310.138C99.8538 310.122 99.7201 310.159 99.6138 310.24C97.4443 312.079 95.671 314.339 94.4017 316.885C93.1324 319.43 92.3935 322.206 92.2298 325.045C92.2247 325.178 92.2719 325.307 92.3612 325.405C92.4505 325.503 92.5747 325.562 92.7071 325.57L92.7352 325.551Z" fill="white"/>
<path d="M216.532 345.971C208.232 341.178 201.119 334.576 195.721 326.657C190.322 318.737 186.777 309.703 185.349 300.226L178.713 256.175C177.449 247.776 174.52 239.714 170.097 232.462C165.674 225.211 159.847 218.917 152.958 213.948L144.302 207.706V212.647L148.981 216.035C155.852 220.994 161.667 227.272 166.086 234.503C170.505 241.734 173.439 249.772 174.717 258.149L181.484 302.51C182.926 311.965 186.476 320.975 191.871 328.874C197.265 336.773 204.366 343.358 212.648 348.142L216.513 350.37V345.981L216.532 345.971Z" fill="#EBEBEB"/>
<path d="M291.785 238.768L285.15 194.716C283.886 186.318 280.958 178.257 276.537 171.006C272.116 163.754 266.291 157.459 259.404 152.49L250.747 146.238L144.302 207.706L152.958 213.958C159.847 218.926 165.674 225.221 170.097 232.472C174.52 239.723 177.449 247.785 178.713 256.184L185.349 300.235C186.777 309.713 190.322 318.747 195.721 326.666C201.119 334.586 208.232 341.187 216.532 345.981L322.978 284.522C314.674 279.73 307.557 273.128 302.157 265.207C296.756 257.285 293.211 248.248 291.785 238.768Z" fill="#FAFAFA"/>
<path d="M250.691 147.352L258.852 153.248C265.624 158.16 271.354 164.367 275.711 171.51C280.067 178.652 282.964 186.587 284.233 194.857L290.859 238.908C292.245 248.265 295.675 257.201 300.906 265.081C306.137 272.962 313.04 279.593 321.125 284.504L216.532 344.886C208.458 340.157 201.547 333.678 196.309 325.924C191.071 318.171 187.639 309.341 186.266 300.086L179.64 256.034C178.335 247.518 175.353 239.346 170.868 231.99C166.383 224.634 160.483 218.241 153.511 213.181L146.024 207.781L250.691 147.352ZM250.747 146.238L144.302 207.706L152.958 213.958C159.847 218.926 165.674 225.221 170.097 232.472C174.52 239.723 177.449 247.785 178.713 256.184L185.349 300.235C186.777 309.713 190.322 318.747 195.721 326.666C201.119 334.586 208.232 341.187 216.532 345.981L322.978 284.522C314.675 279.731 307.559 273.131 302.159 265.211C296.758 257.291 293.213 248.256 291.785 238.777L285.15 194.726C283.888 186.326 280.96 178.263 276.539 171.01C272.118 163.757 266.292 157.46 259.404 152.49L250.747 146.238Z" fill="#E0E0E0"/>
<path d="M216.532 345.971L322.978 284.513V288.902L216.532 350.361V345.971Z" fill="#F5F5F5"/>
<path d="M164.189 204.393C160.445 205.975 160.08 209.213 163.3 211.646C165.126 212.87 167.215 213.646 169.397 213.911C171.579 214.176 173.793 213.922 175.859 213.172C179.603 211.599 179.977 208.352 176.795 205.928C174.965 204.693 172.868 203.91 170.677 203.643C168.485 203.376 166.262 203.633 164.189 204.393Z" fill="#00D86B"/>
<path d="M168.213 208.333C167.902 208.368 167.588 208.368 167.277 208.333C166.582 208.274 165.915 208.035 165.34 207.641C164.479 206.995 164.572 206.153 165.574 205.769C166.231 205.523 166.939 205.449 167.633 205.554C168.327 205.622 168.993 205.863 169.57 206.256C170.431 206.901 170.328 207.744 169.336 208.127C168.976 208.259 168.596 208.329 168.213 208.333Z" fill="white"/>
<path d="M173.482 208.249C172.385 208.084 171.265 208.2 170.225 208.586L169.289 208.998C167.595 209.728 167.418 211.159 168.896 212.264L169.42 212.657C171.192 212.917 173 212.773 174.708 212.236C176.318 211.618 177.3 210.907 177.441 209.887L176.72 209.409C175.757 208.753 174.642 208.354 173.482 208.249Z" fill="white"/>
<path d="M181.474 197.486L212.732 179.433C213.344 179.11 214.031 178.959 214.721 178.995C215.412 179.032 216.079 179.254 216.654 179.639L216.934 179.864C217.166 180.012 217.352 180.221 217.474 180.467C217.596 180.713 217.649 180.988 217.627 181.262C217.605 181.536 217.509 181.799 217.349 182.022C217.189 182.246 216.971 182.422 216.719 182.531L185.489 200.622C184.884 200.926 184.207 201.056 183.532 200.996C182.858 200.937 182.213 200.69 181.671 200.285C181.559 200.2 181.446 200.116 181.343 200.023C181.109 199.897 180.915 199.707 180.784 199.475C180.653 199.243 180.591 198.979 180.605 198.713C180.618 198.447 180.707 198.191 180.861 197.973C181.015 197.756 181.228 197.587 181.474 197.486Z" fill="#455A64"/>
<path d="M188.344 204.768L203.991 195.736C204.117 195.675 204.225 195.583 204.306 195.469C204.386 195.354 204.437 195.222 204.453 195.083C204.468 194.944 204.449 194.803 204.396 194.674C204.343 194.544 204.259 194.43 204.15 194.342L203.87 194.071C203.618 193.845 203.303 193.703 202.968 193.665C202.633 193.626 202.294 193.693 201.998 193.855L186.434 202.952C186.309 203.015 186.201 203.108 186.12 203.223C186.04 203.338 185.99 203.471 185.974 203.611C185.958 203.75 185.977 203.891 186.03 204.021C186.083 204.152 186.167 204.266 186.275 204.356L186.472 204.543C186.723 204.767 187.038 204.909 187.372 204.949C187.707 204.99 188.046 204.926 188.344 204.768Z" fill="#455A64"/>
<path opacity="0.2" d="M178.115 221.922L262.455 173.21C263.011 172.898 263.662 172.801 264.285 172.937C264.908 173.073 265.459 173.434 265.833 173.949L266.011 174.202C266.18 174.453 266.295 174.736 266.349 175.033C266.403 175.33 266.395 175.636 266.324 175.93C266.254 176.224 266.123 176.5 265.94 176.74C265.758 176.981 265.527 177.181 265.263 177.328L180.875 226.077C180.327 226.383 179.683 226.471 179.073 226.323C178.462 226.176 177.93 225.804 177.581 225.282L177.403 225.01C177.231 224.766 177.111 224.488 177.053 224.195C176.996 223.901 177 223.599 177.068 223.307C177.135 223.015 177.263 222.741 177.443 222.503C177.624 222.264 177.852 222.066 178.115 221.922Z" fill="black"/>
<path opacity="0.2" d="M183.234 230.233L267.668 181.502C267.928 181.346 268.218 181.247 268.519 181.21C268.819 181.173 269.125 181.199 269.415 181.287C269.705 181.375 269.973 181.523 270.203 181.721C270.432 181.92 270.617 182.164 270.747 182.438L270.878 182.709C271.13 183.296 271.16 183.954 270.964 184.561C270.768 185.168 270.358 185.684 269.811 186.013L185.358 234.809C185.106 234.962 184.825 235.059 184.532 235.094C184.24 235.13 183.944 235.102 183.663 235.013C183.382 234.925 183.123 234.777 182.904 234.581C182.685 234.384 182.51 234.143 182.391 233.873L182.242 233.574C181.953 232.995 181.895 232.328 182.08 231.708C182.264 231.088 182.676 230.56 183.234 230.233Z" fill="black"/>
<path opacity="0.2" d="M187.033 239.264L271.542 190.477C271.782 190.319 272.057 190.22 272.342 190.19C272.628 190.159 272.917 190.197 273.185 190.3C273.453 190.404 273.693 190.57 273.884 190.784C274.075 190.999 274.213 191.256 274.284 191.534L274.397 191.955C274.554 192.601 274.502 193.281 274.25 193.896C273.998 194.511 273.558 195.031 272.993 195.381L188.521 244.205C188.287 244.361 188.017 244.457 187.737 244.484C187.457 244.511 187.174 244.469 186.914 244.361C186.654 244.252 186.424 244.081 186.246 243.863C186.068 243.645 185.946 243.386 185.892 243.11C185.892 242.96 185.807 242.811 185.761 242.661C185.586 242.033 185.615 241.365 185.843 240.755C186.072 240.144 186.489 239.622 187.033 239.264Z" fill="black"/>
<path opacity="0.2" d="M189.457 249.109L238.581 220.743C238.799 220.58 239.058 220.48 239.33 220.454C239.601 220.428 239.874 220.478 240.119 220.596C240.364 220.715 240.572 220.899 240.72 221.128C240.868 221.356 240.95 221.622 240.958 221.894L241.061 222.549C241.132 223.228 241.013 223.913 240.717 224.527C240.422 225.142 239.961 225.663 239.386 226.03L190.262 254.425C190.044 254.587 189.786 254.687 189.516 254.713C189.245 254.739 188.973 254.691 188.728 254.573C188.483 254.456 188.275 254.273 188.126 254.046C187.978 253.818 187.894 253.554 187.885 253.283C187.885 253.049 187.819 252.824 187.782 252.59C187.718 251.913 187.841 251.23 188.136 250.617C188.431 250.003 188.888 249.482 189.457 249.109Z" fill="black"/>
<path d="M291.036 275.8L210.655 322.219C209.544 322.859 208.235 323.065 206.981 322.795C205.728 322.525 204.619 321.8 203.87 320.759C198.785 312.973 195.391 303.274 193.687 291.663L190.477 270.334C190.339 268.976 190.578 267.606 191.169 266.376C191.761 265.145 192.681 264.102 193.828 263.362L274.312 216.868C276.549 215.577 278.683 216.606 279.067 219.161L282.277 240.499C283.345 250.865 286.812 260.839 292.403 269.633C292.747 270.118 292.987 270.67 293.105 271.253C293.223 271.837 293.217 272.438 293.089 273.02C292.96 273.601 292.711 274.148 292.357 274.627C292.004 275.106 291.554 275.506 291.036 275.8Z" fill="#00D86B"/>
<path opacity="0.7" d="M291.036 275.8L210.655 322.219C209.544 322.859 208.235 323.065 206.981 322.795C205.728 322.525 204.619 321.8 203.87 320.759C198.785 312.973 195.391 303.274 193.687 291.663L190.477 270.334C190.339 268.976 190.578 267.606 191.169 266.376C191.761 265.145 192.681 264.102 193.828 263.362L274.312 216.868C276.549 215.577 278.683 216.606 279.067 219.161L282.277 240.499C283.345 250.865 286.812 260.839 292.403 269.633C292.747 270.118 292.987 270.67 293.105 271.253C293.223 271.837 293.217 272.438 293.089 273.02C292.96 273.601 292.711 274.148 292.357 274.627C292.004 275.106 291.554 275.506 291.036 275.8Z" fill="white"/>
<path d="M210.655 322.219L291.036 275.8C291.554 275.506 292.004 275.106 292.357 274.627C292.711 274.148 292.96 273.601 293.089 273.02C293.217 272.438 293.223 271.837 293.105 271.253C292.987 270.67 292.747 270.118 292.403 269.633C289.774 265.558 287.632 261.189 286.02 256.615L261.079 249.577L250.008 274.153L262.034 283.82L220.07 261.734L198.61 310.521C200.024 314.1 201.786 317.533 203.87 320.768C204.62 321.808 205.73 322.531 206.983 322.799C208.237 323.067 209.545 322.86 210.655 322.219Z" fill="#00D86B"/>
<path d="M244.365 244.364C247.322 242.661 250.139 244.074 250.663 247.527C250.864 249.343 250.557 251.179 249.777 252.831C248.998 254.483 247.775 255.887 246.246 256.886C243.288 258.599 240.471 257.176 239.957 253.723C239.754 251.908 240.059 250.072 240.837 248.42C241.615 246.768 242.836 245.364 244.365 244.364Z" fill="#00D86B"/>
<path d="M268.772 303.305C268.504 303.328 268.235 303.328 267.967 303.305C267.383 303.25 266.823 303.047 266.339 302.716C265.628 302.182 265.712 301.48 266.535 301.125C267.082 300.92 267.671 300.859 268.248 300.947C268.83 301.004 269.389 301.203 269.876 301.527C270.588 302.07 270.503 302.772 269.68 303.127C269.39 303.238 269.083 303.299 268.772 303.305Z" fill="#00D86B"/>
<path d="M273.18 303.24C272.263 303.098 271.325 303.194 270.457 303.52L269.642 303.857C268.229 304.466 268.08 305.663 269.315 306.59L269.745 306.918C271.229 307.132 272.742 307.01 274.172 306.562C275.51 306.047 276.334 305.448 276.456 304.597L275.847 304.204C275.055 303.659 274.137 303.327 273.18 303.24Z" fill="#00D86B"/>
<path d="M274.724 299.711L271.711 299.861L270.897 300.563C270.863 300.59 270.836 300.625 270.818 300.663C270.8 300.702 270.79 300.745 270.79 300.788C270.79 300.831 270.8 300.873 270.818 300.912C270.836 300.951 270.863 300.985 270.897 301.012L271.711 301.658L274.771 301.536L274.724 299.711ZM271.505 300.984C271.476 300.984 271.447 300.978 271.42 300.967C271.394 300.956 271.369 300.939 271.349 300.918C271.329 300.897 271.313 300.872 271.303 300.845C271.293 300.818 271.288 300.789 271.29 300.76C271.29 300.703 271.312 300.648 271.353 300.607C271.393 300.567 271.448 300.544 271.505 300.544C271.534 300.543 271.563 300.548 271.59 300.558C271.617 300.568 271.642 300.584 271.663 300.604C271.684 300.624 271.701 300.648 271.712 300.675C271.724 300.702 271.729 300.731 271.729 300.76C271.729 300.819 271.706 300.876 271.664 300.918C271.622 300.961 271.564 300.984 271.505 300.984Z" fill="#00D86B"/>
<path d="M290.325 294.377C290.325 294.836 289.736 295.219 289.389 295.406C288.736 295.771 288.017 296.003 287.274 296.09C286.563 295.257 287.929 293.806 290.325 294.377Z" fill="#00D86B"/>
<path d="M290.437 291.429C288.229 289.604 284.766 288.93 282.333 290.325C279.9 291.719 279.422 294.667 281.659 296.492C283.896 298.317 287.892 298.364 290.306 296.951C292.721 295.538 292.655 293.245 290.437 291.429ZM286.788 290.999C286.992 290.9 287.221 290.866 287.445 290.901C287.669 290.936 287.877 291.039 288.042 291.195C288.114 291.255 288.17 291.332 288.204 291.419C288.239 291.506 288.251 291.601 288.24 291.694C288.229 291.787 288.194 291.875 288.14 291.952C288.086 292.028 288.013 292.09 287.929 292.131C287.724 292.244 287.489 292.291 287.257 292.266C287.024 292.24 286.805 292.144 286.628 291.991C286.557 291.923 286.502 291.838 286.471 291.744C286.439 291.65 286.43 291.55 286.446 291.453C286.462 291.355 286.501 291.262 286.561 291.183C286.62 291.104 286.698 291.041 286.788 290.999ZM282.352 294.405C282.278 294.337 282.222 294.252 282.189 294.157C282.156 294.062 282.147 293.961 282.162 293.862C282.178 293.763 282.218 293.669 282.279 293.589C282.34 293.509 282.419 293.445 282.511 293.404C282.713 293.304 282.941 293.27 283.164 293.305C283.387 293.34 283.593 293.443 283.755 293.6C283.828 293.66 283.884 293.736 283.92 293.823C283.955 293.909 283.968 294.003 283.958 294.096C283.948 294.189 283.914 294.278 283.861 294.355C283.808 294.432 283.736 294.494 283.652 294.536C283.447 294.666 283.206 294.727 282.963 294.71C282.721 294.693 282.49 294.6 282.305 294.443L282.352 294.405ZM289.689 295.771C288.653 296.324 287.494 296.604 286.32 296.586C285.299 296.601 284.289 296.386 283.362 295.959L289.651 292.412C289.984 292.628 290.264 292.918 290.468 293.258C290.672 293.599 290.796 293.981 290.831 294.377C290.762 294.694 290.619 294.989 290.412 295.239C290.205 295.488 289.941 295.684 289.642 295.809L289.689 295.771Z" fill="#00D86B"/>
<path d="M303.633 283.203C303.41 282.846 303.129 282.53 302.8 282.267C302.03 281.605 301.085 281.18 300.079 281.043C299.073 280.905 298.049 281.06 297.129 281.49C296.731 281.672 296.388 281.955 296.132 282.309C295.877 282.664 295.717 283.079 295.67 283.514C295.623 283.949 295.69 284.389 295.863 284.79C296.037 285.192 296.312 285.541 296.661 285.804C296.858 285.96 297.067 286.097 297.288 286.216C300.096 287.816 305.196 288.013 305.196 288.013C305.148 286.293 304.605 284.623 303.633 283.203ZM301.191 284.971C300.74 285.211 300.233 285.324 299.724 285.298C299.214 285.272 298.722 285.107 298.299 284.822C298.133 284.694 298.002 284.527 297.92 284.335C297.838 284.142 297.806 283.932 297.829 283.724C297.851 283.516 297.927 283.318 298.049 283.148C298.171 282.978 298.334 282.842 298.523 282.753C298.964 282.548 299.454 282.474 299.936 282.541C300.417 282.607 300.869 282.811 301.237 283.128C301.986 283.736 302.014 284.503 301.2 284.971H301.191Z" fill="#00D86B"/>
<path d="M405.315 293.085L393.28 328.209C393.204 328.432 393.059 328.626 392.867 328.764C392.675 328.901 392.445 328.975 392.208 328.975C391.972 328.975 391.742 328.901 391.55 328.764C391.358 328.626 391.213 328.432 391.137 328.209L379.261 292.805L405.315 293.085Z" fill="#FFA8A7"/>
<path d="M391.137 328.199C391.213 328.423 391.358 328.617 391.55 328.754C391.742 328.892 391.972 328.965 392.208 328.965C392.445 328.965 392.675 328.892 392.867 328.754C393.059 328.617 393.204 328.423 393.28 328.199L395.629 321.339C394.616 321.881 393.473 322.134 392.326 322.069C391.178 322.005 390.071 321.626 389.125 320.974L388.601 320.619L391.137 328.199Z" fill="#263238"/>
<path d="M379.71 136.187V139.622V143.768L379.279 292.795C382.159 295.836 386.079 297.68 390.257 297.961C396.556 298.616 403.022 296.548 405.325 293.085L405.746 144.142V136.215C405.437 141.344 379.485 141.334 379.71 136.187Z" fill="#00D86B"/>
<path d="M379.635 149.261V156.935C379.56 159.163 384.314 160.604 389.771 161.1C397.033 161.792 405.587 159.827 405.68 156.879V151.217V149.196C405.568 152.144 397.014 154.118 389.771 153.426C384.53 152.939 379.944 151.554 379.682 149.504C379.644 149.429 379.628 149.345 379.635 149.261Z" fill="#EBEBEB"/>
<path d="M379.654 151.18C379.467 156.346 405.502 156.28 405.69 151.114V143.431C405.502 148.597 379.485 148.662 379.654 143.496V151.18Z" fill="#00D86B"/>
<path d="M379.71 136.187V143.768C379.485 148.84 404.613 148.99 405.746 144.142C405.772 144.047 405.788 143.95 405.793 143.852V136.215C405.437 141.344 379.485 141.334 379.71 136.187Z" fill="#EBEBEB"/>
<path d="M405.858 103.694V103.366C405.858 99.6694 400.037 96.6653 392.85 96.6653C385.662 96.6653 379.832 99.6694 379.832 103.366V106.857L379.71 136.187C379.616 138.386 384.296 139.837 389.724 140.361C396.986 141.072 405.577 139.154 405.736 136.215L405.849 103.928C405.867 103.825 405.858 103.712 405.858 103.694Z" fill="#F28F8F"/>
<path opacity="0.2" d="M392.85 110.067C400.039 110.067 405.867 107.067 405.867 103.366C405.867 99.6653 400.039 96.6653 392.85 96.6653C385.66 96.6653 379.832 99.6653 379.832 103.366C379.832 107.067 385.66 110.067 392.85 110.067Z" fill="white"/>
<path opacity="0.1" d="M405.718 144.142L405.858 103.694C405.69 106.857 400.243 109.852 394.394 110.067L393.973 298.083L393.28 328.208L405.315 293.085L405.718 144.142Z" fill="black"/>
<path d="M363.613 175.475C368.564 174.754 374.666 178.479 378.914 184.45C383.163 190.421 397.969 204.955 399.597 209.578C400.776 212.947 400.084 219.283 393.112 216.307C386.364 213.434 364.848 192.33 364.848 192.33L363.613 175.475Z" fill="#B16668"/>
<path d="M361.245 175.475C362.839 175.133 364.463 174.951 366.093 174.932C367.806 175.044 371.652 176.064 375.611 179.92C379.57 183.776 389.845 196.232 389.845 196.232C389.845 196.232 390.304 199.732 386.86 203.635C383.416 207.538 380.197 207.538 380.197 207.538L364.933 194.894L361.245 175.475Z" fill="#37474F"/>
<path d="M394.787 202.718L405.643 186.958V175.381C405.643 175.381 408.039 176.186 408.993 179.92C409.948 183.654 411.136 187.997 410.659 191.15C410.182 194.304 402.667 213.565 398.614 216.279C394.562 218.993 394.787 202.718 394.787 202.718Z" fill="#B16668"/>
<path d="M345.925 170.243L348.04 183.57L361.245 182.859L359.355 167.379L345.925 170.243Z" fill="#B16668"/>
<path d="M337.044 153.903C337.044 153.903 333.899 158.676 334.236 159.144C334.573 159.612 336.913 160.08 336.913 160.08L337.044 153.903Z" fill="#9A4A4D"/>
<path d="M345.747 140.689C339.383 142.036 337.54 144.834 336.941 154.951C336.314 165.526 337.39 168.849 338.812 170.271C339.748 171.207 344.961 171.404 347.591 170.683C350.876 169.747 358.316 167.136 361.797 161.82C365.887 155.569 366.963 147.081 362.584 143.608C356.416 138.704 348.377 140.146 345.747 140.689Z" fill="#B16668"/>
<path d="M346.047 170.973C347.181 170.767 348.3 170.486 349.397 170.131C348.563 171.083 347.444 171.739 346.206 172.003L346.047 170.973Z" fill="#9A4A4D"/>
<path d="M336.576 143.899C337.461 144.391 338.404 144.772 339.383 145.031C340.937 145.48 340.703 146.06 340.918 147.483C341.108 148.768 341.724 149.951 342.668 150.843C343.277 151.395 343.726 151.442 343.932 152.284C344.03 153.164 344.03 154.052 343.932 154.932C343.932 156.692 345.073 158.021 345.616 155.672C345.616 155.672 346.627 151.76 349.921 152.256C353.216 152.752 353.506 156.458 351.933 159.368C350.998 161.147 348.415 160.679 348.415 160.679C348.322 162.316 348.582 163.954 349.176 165.483C349.77 167.012 350.685 168.396 351.859 169.541C351.859 169.541 355.134 171.975 360.281 169.448C362.469 166.643 364.428 163.666 366.14 160.548C368.423 156.58 370.398 151.694 369.621 147.024C369.372 145.276 368.599 143.645 367.403 142.345C367.072 142.051 366.807 141.691 366.623 141.288C366.439 140.885 366.342 140.448 366.336 140.005C366.14 138.95 365.577 137.998 364.745 137.319C364.094 136.804 363.315 136.474 362.492 136.364C361.668 136.253 360.83 136.367 360.066 136.692C360.002 135.877 359.681 135.103 359.15 134.481C358.619 133.859 357.904 133.421 357.109 133.23C355.499 132.893 353.822 133.124 352.364 133.885C351.936 133.119 351.323 132.472 350.581 132.005C349.839 131.537 348.991 131.263 348.116 131.209C347.24 131.154 346.365 131.319 345.57 131.69C344.776 132.061 344.087 132.626 343.567 133.333C343.325 132.961 342.999 132.652 342.615 132.431C342.231 132.21 341.801 132.083 341.358 132.06C340.475 132.028 339.595 132.168 338.766 132.472C338.061 132.681 337.383 132.97 336.744 133.333C335.59 134.047 334.69 135.107 334.173 136.362C333.655 137.617 333.546 139.003 333.862 140.324C334.044 141.074 334.379 141.779 334.846 142.394C335.313 143.009 335.902 143.521 336.576 143.899Z" fill="#263238"/>
<path d="M366.402 142.841L370.211 140.595C370.063 140.345 369.868 140.126 369.636 139.952C369.404 139.777 369.14 139.65 368.859 139.577C368.578 139.505 368.285 139.488 367.998 139.529C367.71 139.569 367.433 139.666 367.183 139.814C366.933 139.961 366.715 140.156 366.54 140.388C366.365 140.62 366.238 140.884 366.166 141.165C366.093 141.447 366.077 141.739 366.117 142.027C366.158 142.314 366.254 142.591 366.402 142.841Z" fill="#263238"/>
<path d="M369.958 340.674L370.042 341.526C370.197 342.652 370.225 343.791 370.127 344.923C370.125 345.355 370.031 345.782 369.85 346.174C369.669 346.567 369.406 346.916 369.078 347.197C368.3 347.624 367.465 347.939 366.598 348.133C364.665 348.608 362.627 348.407 360.824 347.562C359.327 346.842 358.157 345.691 356.538 345.251C354.866 344.835 353.163 344.554 351.447 344.408C350.683 344.346 349.928 344.208 349.191 343.997C348.632 343.8 348.09 343.555 347.572 343.267C345.764 342.411 344.135 341.22 342.771 339.757C341.91 338.784 341.316 337.604 341.049 336.332C340.899 335.574 340.6 333.412 341.845 333.468C347.975 333.74 354.011 335.059 360.169 334.984C360.568 334.956 360.968 334.956 361.367 334.984C362.114 335.141 362.816 335.461 363.426 335.92C363.679 336.139 363.981 336.295 364.306 336.375C364.632 336.455 364.972 336.456 365.298 336.379C366.35 336.216 367.423 336.232 368.47 336.425C368.698 336.458 368.915 336.542 369.105 336.672C369.295 336.802 369.452 336.974 369.565 337.174C369.625 337.32 369.657 337.475 369.659 337.633C369.762 338.728 369.865 339.664 369.958 340.674Z" fill="#263238"/>
<path d="M369.331 333.337L369.013 337.951C368.713 339.71 362.724 340.759 361.526 337.68L360.936 332.439L369.331 333.337Z" fill="#B16668"/>
<path d="M346.524 351.605C346.524 351.605 347.254 354.001 347.638 356.097C347.937 357.763 348.358 360.552 347.75 361.788C347.142 363.023 344.858 363.772 341.339 363.659C339.065 363.584 335.49 365.054 333.029 366.355C330.567 367.655 325.27 368.133 322.622 367.768C319.506 367.328 316.314 365.437 315.837 364.137C315.36 362.836 316.062 361.497 323.492 358.521C323.558 358.521 333.787 355.414 337.455 351.568L346.524 351.605Z" fill="#263238"/>
<path d="M346.59 348.639C346.59 348.639 346.533 350.669 346.524 351.839C346.515 353.009 345.092 354.703 341.536 354.497C339.037 354.347 337.315 353.636 337.455 351.587L337.521 348.62L346.59 348.639Z" fill="#B16668"/>
<path d="M371.746 297.858C370.688 288.874 369.874 283.717 369.874 283.717C369.874 283.717 370.061 271.195 370.81 259.525C371.605 246.91 371.427 231.028 371.746 227.883C371.746 227.883 331.232 219.236 330.895 233.845C330.521 250.822 331.644 285.945 331.887 290.521C332.224 296.941 332.243 303.623 333.328 314.04C334.405 324.334 337.521 348.62 337.521 348.62C338.916 349.365 340.473 349.755 342.055 349.755C343.637 349.755 345.194 349.365 346.59 348.62C346.59 348.62 350.118 319.505 349.977 312.121C349.893 306.754 349.379 301.403 348.443 296.118L351.634 263.156C351.634 263.156 352.888 273.348 353.225 279.768C353.562 286.188 354.441 290.109 356.032 302.06C357.408 312.42 360.899 334.301 360.899 334.301C362.226 335.049 363.736 335.413 365.258 335.352C366.78 335.29 368.255 334.807 369.518 333.955C369.518 333.955 372.803 306.852 371.746 297.858Z" fill="#00D86B"/>
<path opacity="0.3" d="M371.746 297.858C370.688 288.874 369.874 283.717 369.874 283.717C369.874 283.717 370.061 271.195 370.81 259.525C371.605 246.91 371.427 231.028 371.746 227.883C371.746 227.883 331.232 219.236 330.895 233.845C330.521 250.822 331.644 285.945 331.887 290.521C332.224 296.941 332.243 303.623 333.328 314.04C334.405 324.334 337.521 348.62 337.521 348.62C338.916 349.365 340.473 349.755 342.055 349.755C343.637 349.755 345.194 349.365 346.59 348.62C346.59 348.62 350.118 319.505 349.977 312.121C349.893 306.754 349.379 301.403 348.443 296.118L351.634 263.156C351.634 263.156 352.888 273.348 353.225 279.768C353.562 286.188 354.441 290.109 356.032 302.06C357.408 312.42 360.899 334.301 360.899 334.301C362.226 335.049 363.736 335.413 365.258 335.352C366.78 335.29 368.255 334.807 369.518 333.955C369.518 333.955 372.803 306.852 371.746 297.858Z" fill="black"/>
<path opacity="0.15" d="M367.048 247.836C367.048 247.836 364.24 252.469 355.724 255.857L353.347 263.811L353.094 277.793C352.766 273.292 352.27 268.369 351.634 263.156L352.57 254.958C352.57 254.958 362.003 252.113 367.048 247.836Z" fill="black"/>
<path d="M373.309 184.094C371.68 178.301 367.852 175.746 363.613 175.475C362.537 175.409 360.347 175.475 360.347 175.475C360.646 177.936 353.084 179.667 347.245 178.282C345.467 178.741 342.565 179.405 341.059 179.901C336.838 181.305 331.765 186.583 331.11 200.369C331.11 200.369 330.436 229.989 330.642 238.599C341.077 242.998 351.157 243.55 357.23 242.342C369.893 239.881 371.97 234.453 371.97 234.453C371.97 234.453 371.858 226.966 371.381 214.922C373.496 197.889 374.011 186.602 373.309 184.094Z" fill="#455A64"/>
<path d="M323.942 233.19C325.057 233.885 325.98 234.849 326.625 235.994C327.271 237.138 327.62 238.427 327.638 239.741C327.816 242.436 327.816 245.356 329.079 247.799C329.285 248.201 330.39 249.109 330.82 248.978V245.534C331.522 244.645 333.441 242.988 333.937 241.968C334.76 240.265 333.796 238.225 334.292 236.353C334.61 235.632 334.825 234.869 334.929 234.088C334.998 233.12 334.844 232.15 334.479 231.251C334.114 230.352 333.547 229.549 332.823 228.903C330.951 227.397 329.304 225.525 327.629 223.84C325.458 221.66 322.444 218.45 320.273 216.26L334.844 202.287C336.525 200.686 337.929 198.817 339 196.756C341.386 192.171 344.615 184.131 341.012 179.911C335.818 179.911 332.87 180.706 327.563 186.892C322.987 192.227 308.378 209.727 306.497 212.694C304.616 215.661 303.54 217.692 307.143 220.986C310.079 223.491 313.146 225.837 316.333 228.014C318.794 229.783 321.48 231.44 323.942 233.19Z" fill="#B16668"/>
<path d="M320.282 216.307C318.975 217.57 317.466 218.608 315.818 219.376C317.771 219.107 319.64 218.411 321.293 217.336L320.282 216.307Z" fill="#9A4A4D"/>
<path d="M342.65 179.443C340.542 179.344 338.429 179.504 336.361 179.92C333.207 180.603 331.082 182.204 325.617 188.39C320.151 194.576 316.314 199.62 316.314 199.62C316.314 199.62 314.742 203.102 319.122 207.051C323.502 211 327.451 210.317 327.451 210.317L339.73 198.375C339.73 198.375 348.489 189.213 342.65 179.443Z" fill="#37474F"/>
</svg>
