<svg width="441" height="396" viewBox="0 0 441 396" fill="none" xmlns="http://www.w3.org/2000/svg">
<path d="M220.283 395.361C341.941 395.361 440.565 341.408 440.565 274.853C440.565 208.298 341.941 154.344 220.283 154.344C98.6239 154.344 0 208.298 0 274.853C0 341.408 98.6239 395.361 220.283 395.361Z" fill="#F5F5F5"/>
<path d="M169.178 361.465C193.591 361.465 213.381 350.637 213.381 337.281C213.381 323.924 193.591 313.096 169.178 313.096C144.765 313.096 124.975 323.924 124.975 337.281C124.975 350.637 144.765 361.465 169.178 361.465Z" fill="#E0E0E0"/>
<path d="M93.3014 362.509C112.718 362.509 128.458 353.897 128.458 343.275C128.458 332.652 112.718 324.041 93.3014 324.041C73.8851 324.041 58.145 332.652 58.145 343.275C58.145 353.897 73.8851 362.509 93.3014 362.509Z" fill="#E0E0E0"/>
<path d="M377.442 245.761L286.314 294.561C284.328 295.625 282.076 296.184 279.784 296.184C277.492 296.184 275.24 295.625 273.254 294.561L265.201 291.827C264.414 291.405 263.76 290.799 263.306 290.068C262.852 289.338 262.612 288.509 262.612 287.665C262.612 286.822 262.852 285.993 263.306 285.262C263.76 284.532 264.414 283.925 265.201 283.504L356.329 234.704C358.315 233.64 360.567 233.08 362.859 233.08C365.151 233.08 367.403 233.64 369.389 234.704L377.432 237.438C378.22 237.859 378.874 238.464 379.329 239.195C379.785 239.925 380.025 240.753 380.026 241.597C380.027 242.441 379.788 243.27 379.335 244.001C378.881 244.731 378.228 245.339 377.442 245.761Z" fill="#E0E0E0"/>
<path d="M335.895 333.167L296.679 354.151C294.91 355.101 292.903 355.6 290.86 355.6C288.817 355.6 286.81 355.101 285.041 354.151L254.687 337.884C253.994 337.503 253.42 336.96 253.021 336.31C252.622 335.659 252.412 334.924 252.412 334.176C252.412 333.427 252.622 332.692 253.021 332.042C253.42 331.391 253.994 330.849 254.687 330.467L293.902 309.474C295.673 308.524 297.681 308.025 299.726 308.025C301.77 308.025 303.779 308.524 305.55 309.474L335.895 325.749C336.588 326.131 337.162 326.674 337.561 327.324C337.959 327.974 338.169 328.71 338.169 329.458C338.169 330.206 337.959 330.942 337.561 331.592C337.162 332.242 336.588 332.785 335.895 333.167Z" fill="#E0E0E0"/>
<path d="M267.514 283.193L226.431 303.324C224.661 304.269 222.655 304.767 220.612 304.767C218.57 304.767 216.564 304.269 214.793 303.324L184.439 287.049C183.746 286.667 183.172 286.124 182.773 285.474C182.374 284.824 182.165 284.088 182.165 283.34C182.165 282.592 182.374 281.856 182.773 281.206C183.172 280.556 183.746 280.013 184.439 279.631L225.521 259.5C227.29 258.551 229.297 258.051 231.34 258.051C233.384 258.051 235.391 258.551 237.16 259.5L267.514 275.776C268.207 276.158 268.781 276.7 269.18 277.351C269.578 278.001 269.788 278.736 269.788 279.485C269.788 280.233 269.578 280.968 269.18 281.619C268.781 282.269 268.207 282.811 267.514 283.193Z" fill="#E0E0E0"/>
<path d="M98.4564 109.219C98.5722 107.675 99.2808 106.221 100.453 105.122L106.853 99.1274C107.328 98.6805 107.677 98.1321 107.869 97.5305C108.062 96.9289 108.093 96.2926 107.958 95.6774L106.342 88.4324C106.293 88.2191 106.194 88.0185 106.051 87.8455C105.908 87.6724 105.725 87.5311 105.516 87.4319L96.4501 83.3178L96.2365 83.2143C95.9707 83.116 95.6814 83.0857 95.3988 83.1267C95.1161 83.1676 94.8505 83.2783 94.6296 83.4472L91.9917 85.4654L94.6853 77.8582C94.8383 77.4248 94.8173 76.9546 94.6261 76.5345C94.4349 76.1144 94.0864 75.7727 93.6451 75.5726L84.5889 71.4585C84.3643 71.3445 84.1185 71.2713 83.8644 71.2428L78.0406 70.5615C77.6422 70.5132 77.2372 70.5477 76.8548 70.6626C76.4725 70.7774 76.1225 70.9697 75.83 71.2256C75.5474 71.465 75.3253 71.7595 75.1798 72.0881L70.8886 81.1616C70.4811 82.0368 69.7937 82.7745 68.9195 83.2747L68.6036 82.5329C68.4596 82.1835 68.1724 81.9013 67.8049 81.7481L58.9066 77.7116L58.6187 77.5822C58.3415 77.4776 58.0371 77.4521 57.7442 77.5089C57.4514 77.5658 57.1835 77.7024 56.9746 77.9013L49.3489 85.0687C48.8099 85.5629 48.411 86.1733 48.1878 86.8454C47.9798 87.4734 47.9289 88.1371 48.0392 88.7861L49.1353 95.3066C49.2665 96.1112 49.0783 96.9327 48.6058 97.6181L44.2589 103.906C44.0215 104.27 43.7052 104.584 43.33 104.829C42.7201 105.233 41.9895 105.45 41.2402 105.45H36.2709C35.9569 105.443 35.6436 105.48 35.342 105.562C34.8135 105.69 34.3266 105.937 33.9236 106.279C33.5207 106.622 33.2137 107.051 33.0292 107.528L28.6544 118.603C28.5049 118.985 28.5059 119.405 28.6572 119.787C28.8085 120.168 29.1003 120.488 29.4811 120.69L35.9365 123.631C36.0129 123.895 36.0381 124.17 36.0108 124.442L35.2863 130.652C35.234 131.049 35.1247 131.437 34.9612 131.808C34.7498 132.321 34.4345 132.792 34.0324 133.196L27.4191 139.553C26.9442 140.011 26.5983 140.572 26.412 141.184C26.2257 141.796 26.2047 142.442 26.3509 143.063L28.2086 150.955C28.2497 151.131 28.3362 151.295 28.4608 151.434C28.5854 151.572 28.7443 151.68 28.9238 151.749L37.9428 155.845C38.1586 155.959 38.4064 156.009 38.6535 155.989C38.9006 155.969 39.1354 155.88 39.3268 155.733L42.2526 153.491L39.8005 161.374C39.7388 161.546 39.7135 161.728 39.7262 161.909C39.7369 162.244 39.8477 162.57 40.0461 162.85C40.2445 163.13 40.5229 163.354 40.85 163.496L49.7111 167.489C49.982 167.678 50.3031 167.794 50.64 167.826L55.7114 168.421C56.3843 168.493 57.0646 168.366 57.6551 168.057C58.2456 167.749 58.7162 167.276 58.9995 166.704L63.2721 157.734C63.7117 156.834 64.4463 156.085 65.3713 155.595L65.5942 156.19C65.6681 156.39 65.7902 156.572 65.9512 156.721C66.1122 156.871 66.3077 156.984 66.5231 157.053L75.4306 161.107C75.702 161.229 76.007 161.272 76.3054 161.231C76.6038 161.189 76.8816 161.065 77.1025 160.874L84.8676 154.276C85.3304 153.882 85.6832 153.39 85.8952 152.841C86.1072 152.293 86.1721 151.705 86.0843 151.128L84.979 143.917C84.8035 142.712 85.0966 141.489 85.8057 140.467L89.3631 135.361C89.8147 134.716 90.4326 134.185 91.1609 133.818C91.8892 133.45 92.7047 133.257 93.5336 133.257H98.2614C98.841 133.26 99.4075 133.096 99.882 132.787C100.357 132.478 100.715 132.039 100.909 131.532L105.2 120.802C105.388 120.322 105.389 119.796 105.202 119.315C105.016 118.834 104.653 118.429 104.178 118.171L104.002 118.094L98.057 115.403C97.9951 115.172 97.9701 114.933 97.9827 114.696L98.4564 109.219ZM69.9598 104.044C71.8395 102.746 74.0117 101.861 76.313 101.456C77.2935 103.257 77.8777 105.222 78.0313 107.235C78.9602 116.895 72.8763 129.263 64.3496 134.835C62.4896 136.147 60.3486 137.073 58.0707 137.552C57.014 135.743 56.3809 133.747 56.213 131.695C55.2841 122.035 61.4423 109.667 69.9598 104.061V104.044Z" fill="#00D86B"/>
<path opacity="0.2" d="M45.3271 136.189L35.5093 145.452L26.4531 141.14C26.6329 140.546 26.9642 140.002 27.4191 139.553L34.0603 133.205C34.4624 132.801 34.7777 132.33 34.9891 131.816L45.3271 136.189Z" fill="white"/>
<path opacity="0.2" d="M52.4976 108.917L52.2932 109.952H43.7572L35.3977 105.519C35.6993 105.437 36.0126 105.399 36.3265 105.406H41.2772C42.0265 105.407 42.7572 105.19 43.3671 104.785L52.4976 108.917Z" fill="white"/>
<path opacity="0.2" d="M67.805 81.748L63.9689 85.2584L57.142 91.4598L48.1602 86.8454C48.3833 86.1732 48.7822 85.5628 49.3212 85.0686L56.9655 77.8668C57.1743 77.6678 57.4423 77.5312 57.7351 77.4744C58.028 77.4175 58.3324 77.443 58.6096 77.5476L58.8975 77.677L67.805 81.748Z" fill="white"/>
<path opacity="0.2" d="M93.6916 75.5466H84.7562L75.8579 71.2341C76.1504 70.9783 76.5004 70.786 76.8828 70.6711C77.2651 70.5563 77.6701 70.5217 78.0685 70.57L83.8923 71.2514C84.1464 71.2799 84.3923 71.3531 84.6168 71.467L93.6916 75.5466Z" fill="white"/>
<path d="M100.454 105.122L106.853 99.1273C107.328 98.6804 107.677 98.132 107.87 97.5304C108.062 96.9288 108.093 96.2925 107.959 95.6773L106.342 88.4323C106.29 88.1803 106.167 87.9452 105.987 87.7503C105.807 87.5554 105.575 87.4072 105.315 87.3202C105.055 87.2333 104.775 87.2106 104.502 87.2544C104.23 87.2981 103.974 87.4068 103.76 87.5698L97.082 92.6413C96.7365 92.9075 96.2952 93.0421 95.847 93.0181C95.3989 92.9941 94.9772 92.8132 94.667 92.512L92.7536 90.6662C92.1603 90.095 91.7464 89.3842 91.5566 88.6105C91.3667 87.8368 91.408 87.0296 91.6761 86.2761L94.6577 77.8322C94.7536 77.5666 94.7847 77.2845 94.7487 77.0064C94.7127 76.7283 94.6106 76.4611 94.4496 76.2241C94.2887 75.9872 94.0731 75.7864 93.8183 75.6364C93.5635 75.4864 93.2759 75.3909 92.9765 75.3569L87.1527 74.6755C86.5636 74.6106 85.9675 74.722 85.4513 74.9935C84.9351 75.2649 84.5257 75.6823 84.2826 76.1849L79.9728 85.3101C79.4499 86.4254 78.4856 87.3116 77.2792 87.7855L73.4059 89.3035C72.949 89.4736 72.4379 89.4684 71.9851 89.2889C71.5322 89.1094 71.1747 88.7703 70.991 88.3461L68.5667 82.5329C68.4748 82.3113 68.3247 82.1146 68.13 81.9608C67.9353 81.8069 67.7022 81.7007 67.452 81.6518C67.2018 81.6029 66.9424 81.6129 66.6975 81.681C66.4525 81.749 66.2298 81.8728 66.0496 82.0412L58.4145 89.2C57.8965 89.6816 57.5085 90.2704 57.2825 90.918C57.0565 91.5656 56.9988 92.2537 57.1142 92.926L58.2381 99.4292C58.3737 100.234 58.1852 101.057 57.7086 101.741L53.371 108.054C53.0456 108.528 52.5967 108.918 52.0657 109.188C51.5347 109.458 50.939 109.599 50.3337 109.598H45.3923C44.6933 109.599 44.0114 109.798 43.4385 110.17C42.8655 110.542 42.429 111.068 42.1878 111.677L37.813 122.717C37.7276 122.936 37.6911 123.169 37.7056 123.402C37.7201 123.635 37.7853 123.863 37.8973 124.072C38.0094 124.28 38.1658 124.466 38.3573 124.617C38.5487 124.768 38.7711 124.882 39.0112 124.951L43.5439 126.227C44.0721 126.377 44.5273 126.693 44.8309 127.122C45.1345 127.55 45.2674 128.063 45.2065 128.573L44.482 134.783C44.3872 135.757 43.9385 136.673 43.2095 137.379L36.5776 143.719C36.1003 144.178 35.7523 144.739 35.5644 145.353C35.3764 145.967 35.3544 146.614 35.5002 147.238L37.3578 155.129C37.4052 155.321 37.5043 155.497 37.6456 155.643C37.7869 155.789 37.9659 155.899 38.1657 155.963C38.3654 156.027 38.5794 156.042 38.7875 156.008C38.9955 155.974 39.1908 155.891 39.3548 155.768L45.8567 150.774C46.1144 150.577 46.4115 150.429 46.7309 150.339C47.0503 150.248 47.3857 150.218 47.718 150.248C48.0503 150.278 48.3728 150.369 48.667 150.516C48.9613 150.662 49.2215 150.861 49.4327 151.102L51.086 152.982C51.4853 153.435 51.7599 153.972 51.8861 154.546C52.0123 155.12 51.9864 155.714 51.8105 156.277L48.9218 165.557C48.8429 165.807 48.8237 166.07 48.8655 166.328C48.9072 166.586 49.009 166.832 49.1638 167.05C49.3185 167.267 49.5224 167.451 49.7614 167.588C50.0003 167.725 50.2685 167.812 50.5473 167.843L55.6187 168.438C56.3085 168.528 57.0112 168.408 57.621 168.095C58.2307 167.783 58.7146 167.294 58.9997 166.704L63.2723 157.734C63.7613 156.717 64.6239 155.895 65.7059 155.414L69.4863 153.767C69.7833 153.636 70.1067 153.565 70.4353 153.558C70.764 153.551 71.0905 153.608 71.3937 153.726C71.6969 153.844 71.9699 154.02 72.195 154.242C72.42 154.465 72.5921 154.729 72.7 155.017L74.7063 160.365C74.7904 160.587 74.9324 160.786 75.1195 160.944C75.3067 161.103 75.5333 161.216 75.779 161.273C76.0247 161.33 76.2818 161.33 76.5274 161.272C76.773 161.215 76.9994 161.101 77.1863 160.943L84.9514 154.345C85.4143 153.951 85.767 153.459 85.979 152.91C86.191 152.362 86.2559 151.773 86.1681 151.196L85.0628 143.986C84.8873 142.781 85.1804 141.558 85.8895 140.536L89.4469 135.43C89.8985 134.785 90.5164 134.254 91.2447 133.886C91.973 133.519 92.7885 133.326 93.6174 133.325H98.3452C98.9248 133.329 99.4913 133.165 99.9658 132.856C100.44 132.547 100.799 132.108 100.992 131.6L105.284 120.871C105.397 120.586 105.445 120.283 105.424 119.98C105.404 119.677 105.316 119.381 105.165 119.112C105.015 118.842 104.806 118.605 104.551 118.415C104.296 118.225 104.002 118.086 103.686 118.007L99.7849 117.033C99.2524 116.897 98.7868 116.594 98.4669 116.176C98.147 115.758 97.9925 115.25 98.0294 114.739L98.4566 109.27C98.5593 107.709 99.2689 106.234 100.454 105.122ZM73.5174 139.018C64.9907 144.624 57.2999 141.347 56.3339 131.695C55.3679 122.044 61.489 109.667 70.0064 104.095C78.5238 98.5236 86.2239 101.775 87.1899 111.427C88.1558 121.078 81.9884 133.42 73.471 139.018H73.5174Z" fill="#00D86B"/>
<path opacity="0.5" d="M100.454 105.122L106.853 99.1273C107.328 98.6804 107.677 98.132 107.87 97.5304C108.062 96.9288 108.093 96.2925 107.959 95.6773L106.342 88.4323C106.29 88.1803 106.167 87.9452 105.987 87.7503C105.807 87.5554 105.575 87.4072 105.315 87.3202C105.055 87.2333 104.775 87.2106 104.502 87.2544C104.23 87.2981 103.974 87.4068 103.76 87.5698L97.082 92.6413C96.7365 92.9075 96.2952 93.0421 95.847 93.0181C95.3989 92.9941 94.9772 92.8132 94.667 92.512L92.7536 90.6662C92.1603 90.095 91.7464 89.3842 91.5566 88.6105C91.3667 87.8368 91.408 87.0296 91.6761 86.2761L94.6577 77.8322C94.7536 77.5666 94.7847 77.2845 94.7487 77.0064C94.7127 76.7283 94.6106 76.4611 94.4496 76.2241C94.2887 75.9872 94.0731 75.7864 93.8183 75.6364C93.5635 75.4864 93.2759 75.3909 92.9765 75.3569L87.1527 74.6755C86.5636 74.6106 85.9675 74.722 85.4513 74.9935C84.9351 75.2649 84.5257 75.6823 84.2826 76.1849L79.9728 85.3101C79.4499 86.4254 78.4856 87.3116 77.2792 87.7855L73.4059 89.3035C72.949 89.4736 72.4379 89.4684 71.9851 89.2889C71.5322 89.1094 71.1747 88.7703 70.991 88.3461L68.5667 82.5329C68.4748 82.3113 68.3247 82.1146 68.13 81.9608C67.9353 81.8069 67.7022 81.7007 67.452 81.6518C67.2018 81.6029 66.9424 81.6129 66.6975 81.681C66.4525 81.749 66.2298 81.8728 66.0496 82.0412L58.4145 89.2C57.8965 89.6816 57.5085 90.2704 57.2825 90.918C57.0565 91.5656 56.9988 92.2537 57.1142 92.926L58.2381 99.4292C58.3737 100.234 58.1852 101.057 57.7086 101.741L53.371 108.054C53.0456 108.528 52.5967 108.918 52.0657 109.188C51.5347 109.458 50.939 109.599 50.3337 109.598H45.3923C44.6933 109.599 44.0114 109.798 43.4385 110.17C42.8655 110.542 42.429 111.068 42.1878 111.677L37.813 122.717C37.7276 122.936 37.6911 123.169 37.7056 123.402C37.7201 123.635 37.7853 123.863 37.8973 124.072C38.0094 124.28 38.1658 124.466 38.3573 124.617C38.5487 124.768 38.7711 124.882 39.0112 124.951L43.5439 126.227C44.0721 126.377 44.5273 126.693 44.8309 127.122C45.1345 127.55 45.2674 128.063 45.2065 128.573L44.482 134.783C44.3872 135.757 43.9385 136.673 43.2095 137.379L36.5776 143.719C36.1003 144.178 35.7523 144.739 35.5644 145.353C35.3764 145.967 35.3544 146.614 35.5002 147.238L37.3578 155.129C37.4052 155.321 37.5043 155.497 37.6456 155.643C37.7869 155.789 37.9659 155.899 38.1657 155.963C38.3654 156.027 38.5794 156.042 38.7875 156.008C38.9955 155.974 39.1908 155.891 39.3548 155.768L45.8567 150.774C46.1144 150.577 46.4115 150.429 46.7309 150.339C47.0503 150.248 47.3857 150.218 47.718 150.248C48.0503 150.278 48.3728 150.369 48.667 150.516C48.9613 150.662 49.2215 150.861 49.4327 151.102L51.086 152.982C51.4853 153.435 51.7599 153.972 51.8861 154.546C52.0123 155.12 51.9864 155.714 51.8105 156.277L48.9218 165.557C48.8429 165.807 48.8237 166.07 48.8655 166.328C48.9072 166.586 49.009 166.832 49.1638 167.05C49.3185 167.267 49.5224 167.451 49.7614 167.588C50.0003 167.725 50.2685 167.812 50.5473 167.843L55.6187 168.438C56.3085 168.528 57.0112 168.408 57.621 168.095C58.2307 167.783 58.7146 167.294 58.9997 166.704L63.2723 157.734C63.7613 156.717 64.6239 155.895 65.7059 155.414L69.4863 153.767C69.7833 153.636 70.1067 153.565 70.4353 153.558C70.764 153.551 71.0905 153.608 71.3937 153.726C71.6969 153.844 71.9699 154.02 72.195 154.242C72.42 154.465 72.5921 154.729 72.7 155.017L74.7063 160.365C74.7904 160.587 74.9324 160.786 75.1195 160.944C75.3067 161.103 75.5333 161.216 75.779 161.273C76.0247 161.33 76.2818 161.33 76.5274 161.272C76.773 161.215 76.9994 161.101 77.1863 160.943L84.9514 154.345C85.4143 153.951 85.767 153.459 85.979 152.91C86.191 152.362 86.2559 151.773 86.1681 151.196L85.0628 143.986C84.8873 142.781 85.1804 141.558 85.8895 140.536L89.4469 135.43C89.8985 134.785 90.5164 134.254 91.2447 133.886C91.973 133.519 92.7885 133.326 93.6174 133.325H98.3452C98.9248 133.329 99.4913 133.165 99.9658 132.856C100.44 132.547 100.799 132.108 100.992 131.6L105.284 120.871C105.397 120.586 105.445 120.283 105.424 119.98C105.404 119.677 105.316 119.381 105.165 119.112C105.015 118.842 104.806 118.605 104.551 118.415C104.296 118.225 104.002 118.086 103.686 118.007L99.7849 117.033C99.2524 116.897 98.7868 116.594 98.4669 116.176C98.147 115.758 97.9925 115.25 98.0294 114.739L98.4566 109.27C98.5593 107.709 99.2689 106.234 100.454 105.122ZM73.5174 139.018C64.9907 144.624 57.2999 141.347 56.3339 131.695C55.3679 122.044 61.489 109.667 70.0064 104.095C78.5238 98.5236 86.2239 101.775 87.1899 111.427C88.1558 121.078 81.9884 133.42 73.471 139.018H73.5174Z" fill="white"/>
<path d="M148.168 33.6809C148.252 32.5532 148.77 31.4912 149.626 30.688L154.27 26.2979C154.619 25.9696 154.876 25.5664 155.017 25.124C155.157 24.6817 155.179 24.2139 155.078 23.7621L153.899 18.4664C153.863 18.3103 153.79 18.1636 153.686 18.0368C153.581 17.91 153.448 17.8063 153.295 17.7332L146.672 14.7231L146.505 14.6541C146.314 14.5813 146.105 14.5581 145.9 14.5869C145.696 14.6158 145.504 14.6957 145.344 14.818L143.524 16.2842L145.493 10.7211C145.603 10.4038 145.587 10.0601 145.447 9.75281C145.308 9.44556 145.053 9.19533 144.731 9.04787L138.108 6.04638C137.944 5.96366 137.764 5.90821 137.579 5.8825L133.306 5.41675C133.014 5.38135 132.717 5.40627 132.436 5.48976C132.155 5.57324 131.897 5.71323 131.681 5.89975C131.48 6.0716 131.318 6.28003 131.207 6.51213L128.031 13.1792C127.73 13.817 127.228 14.3552 126.591 14.7231L126.359 14.1797C126.309 14.0526 126.231 13.9363 126.13 13.8384C126.029 13.7404 125.908 13.6628 125.774 13.6105L119.272 10.6607L119.067 10.5659C118.864 10.4918 118.642 10.4752 118.429 10.5182C118.216 10.5612 118.021 10.6618 117.869 10.8074L112.296 16.0427C111.918 16.3934 111.637 16.8232 111.475 17.296C111.313 17.7688 111.276 18.2708 111.367 18.7596L112.166 23.5292C112.27 24.1292 112.131 24.7438 111.776 25.2542L108.599 29.8514C108.356 30.1903 108.023 30.4663 107.633 30.6533C107.244 30.8404 106.809 30.9325 106.37 30.9209H102.757C102.246 30.9191 101.747 31.064 101.328 31.3357C100.909 31.6074 100.591 31.9927 100.416 32.4389L97.2212 40.5377C97.1093 40.8172 97.1086 41.1247 97.2193 41.4046C97.33 41.6845 97.5448 41.9185 97.8249 42.0643L102.525 44.2292C102.581 44.4201 102.599 44.6187 102.581 44.8157L102.051 49.4042C102.02 49.7017 101.938 49.9927 101.81 50.2667C101.65 50.6465 101.41 50.9927 101.104 51.2845L96.2459 55.9247C95.9127 56.2503 95.6648 56.6429 95.5214 57.0718C95.3728 57.5341 95.3537 58.0239 95.4657 58.495L96.8403 64.2651C96.8731 64.3932 96.9369 64.5127 97.0271 64.6144C97.1173 64.716 97.2313 64.7972 97.3605 64.8516L103.955 67.8531C104.115 67.9316 104.295 67.9653 104.475 67.95C104.655 67.9347 104.826 67.871 104.968 67.7668L107.104 66.1281L105.311 71.8292C105.266 71.9569 105.247 72.0916 105.256 72.226C105.261 72.4704 105.341 72.7085 105.485 72.9129C105.63 73.1173 105.834 73.2797 106.073 73.3817L112.491 76.2797C112.689 76.4116 112.919 76.4973 113.16 76.5298L116.875 76.9611C117.372 77.017 117.875 76.9241 118.311 76.6961C118.747 76.468 119.094 76.1167 119.3 75.6932L122.458 69.1468C122.791 68.493 123.337 67.953 124.018 67.603L124.185 68.0342C124.236 68.1816 124.324 68.3156 124.442 68.4251C124.56 68.5346 124.705 68.6164 124.863 68.6638L131.365 71.6308C131.564 71.7204 131.788 71.7519 132.007 71.7211C132.226 71.6903 132.43 71.5987 132.591 71.4583L138.266 66.637C138.612 66.3524 138.877 65.9939 139.038 65.5925C139.2 65.1912 139.254 64.7592 139.195 64.3341L138.387 59.0642C138.248 58.1613 138.466 57.2422 139 56.4767L141.601 52.8542C141.931 52.3805 142.384 51.9911 142.917 51.7215C143.451 51.4518 144.049 51.3105 144.657 51.3103H148.112C148.535 51.3008 148.944 51.1719 149.286 50.9407C149.628 50.7096 149.886 50.3872 150.025 50.0166L153.156 42.1679C153.296 41.8173 153.298 41.4322 153.162 41.0803C153.026 40.7285 152.761 40.4325 152.413 40.2445C152.372 40.2192 152.328 40.199 152.283 40.1841L147.936 38.1917C147.887 38.0232 147.871 37.8479 147.889 37.6742L148.168 33.6809ZM127.353 29.9117C128.724 28.9562 130.313 28.3043 131.997 28.0056C132.719 29.324 133.145 30.7646 133.251 32.2405C133.957 39.3043 129.48 48.3433 123.247 52.4488C121.888 53.3907 120.331 54.0577 118.677 54.4067C117.917 53.0705 117.464 51.6018 117.349 50.0942C116.643 43.0562 121.12 34.0086 127.353 29.9117Z" fill="#00D86B"/>
<path opacity="0.2" d="M109.333 53.4062L102.153 60.1854L95.5215 57.0114C95.6649 56.5824 95.9128 56.1899 96.246 55.8643L101.104 51.224C101.41 50.9322 101.65 50.5861 101.81 50.2063L109.333 53.4062Z" fill="white"/>
<path opacity="0.2" d="M114.553 33.4824L114.404 34.2414H108.228L102.107 30.9984C102.319 30.9461 102.537 30.92 102.757 30.9207H106.37C106.923 30.9199 107.461 30.7602 107.912 30.4636L114.553 33.4824Z" fill="white"/>
<path opacity="0.2" d="M125.774 13.5847L122.987 16.1722L118.018 20.709L111.442 17.3366C111.611 16.8456 111.904 16.3991 112.296 16.0342L117.869 10.7989C118.021 10.6533 118.216 10.5527 118.429 10.5097C118.642 10.4667 118.864 10.4833 119.067 10.5573L119.272 10.6522L125.774 13.5847Z" fill="white"/>
<path opacity="0.2" d="M144.703 9.04788H138.201L131.699 5.86526C131.917 5.68723 132.173 5.55496 132.45 5.47754C132.727 5.40011 133.02 5.37938 133.306 5.41676L137.56 5.90839C137.746 5.93409 137.925 5.98954 138.09 6.07226L144.703 9.04788Z" fill="white"/>
<path d="M149.654 30.6879L154.298 26.2978C154.647 25.9695 154.903 25.5663 155.044 25.1239C155.185 24.6816 155.206 24.2138 155.106 23.762L153.926 18.4663C153.881 18.2893 153.789 18.1255 153.658 17.9899C153.528 17.8542 153.363 17.7509 153.178 17.6893C152.994 17.6277 152.796 17.6097 152.602 17.6369C152.409 17.6641 152.225 17.7357 152.069 17.8453L147.239 21.554C146.988 21.749 146.667 21.8478 146.341 21.8302C146.014 21.8126 145.708 21.6798 145.483 21.4591L144.053 20.0791C143.617 19.6611 143.313 19.1402 143.174 18.573C143.035 18.0058 143.066 17.4141 143.263 16.862L145.446 10.6865C145.515 10.4918 145.537 10.2854 145.509 10.082C145.482 9.87861 145.407 9.68334 145.289 9.5102C145.171 9.33706 145.013 9.19034 144.826 9.08057C144.64 8.97079 144.43 8.90068 144.211 8.87528L139.957 8.37503C139.525 8.32276 139.087 8.40218 138.709 8.60132C138.33 8.80046 138.031 9.10851 137.858 9.47903L134.7 16.1634C134.317 16.9771 133.612 17.6228 132.73 17.966L129.944 19.0786C129.779 19.1428 129.602 19.1756 129.423 19.1751C129.244 19.1746 129.067 19.1408 128.903 19.0756C128.738 19.0105 128.589 18.9154 128.465 18.7959C128.341 18.6764 128.243 18.535 128.179 18.38L126.405 14.1279C126.339 13.9632 126.229 13.8168 126.085 13.7022C125.941 13.5876 125.769 13.5086 125.583 13.4725C125.398 13.4363 125.206 13.4442 125.025 13.4955C124.844 13.5468 124.679 13.6397 124.547 13.7656L118.974 19.001C118.601 19.3566 118.323 19.7882 118.162 20.2615C118.001 20.7347 117.961 21.2364 118.046 21.7265L118.844 26.4961C118.951 27.0962 118.812 27.7117 118.454 28.2211L115.287 32.8269C115.045 33.172 114.715 33.4559 114.326 33.6531C113.937 33.8504 113.501 33.9547 113.058 33.9568H109.445C108.933 33.955 108.434 34.0999 108.015 34.3716C107.596 34.6433 107.278 35.0286 107.104 35.4748L103.909 43.5736C103.845 43.7336 103.817 43.9039 103.827 44.0742C103.837 44.2445 103.884 44.4111 103.966 44.5637C104.048 44.7164 104.162 44.8519 104.303 44.962C104.443 45.0721 104.606 45.1543 104.782 45.2038L108.098 46.1439C108.488 46.2512 108.824 46.4835 109.046 46.7993C109.269 47.1152 109.364 47.4941 109.314 47.8689L108.776 52.4142C108.7 53.1145 108.373 53.7708 107.847 54.2772L102.924 58.8916C102.569 59.2264 102.31 59.6391 102.172 60.0914C102.034 60.5437 102.021 61.021 102.135 61.4791L103.509 67.2492C103.548 67.386 103.623 67.5116 103.727 67.6152C103.831 67.7187 103.961 67.7969 104.105 67.843C104.249 67.889 104.403 67.9014 104.553 67.8791C104.704 67.8567 104.846 67.8004 104.968 67.715L109.732 64.0666C109.921 63.9224 110.139 63.8141 110.373 63.7482C110.607 63.6822 110.853 63.6598 111.096 63.6823C111.339 63.7047 111.576 63.7715 111.791 63.8789C112.007 63.9863 112.197 64.1322 112.352 64.3081L113.559 65.6795C113.852 66.012 114.053 66.4056 114.145 66.8263C114.237 67.247 114.218 67.6822 114.089 68.0945L111.943 74.8651C111.877 75.0514 111.856 75.249 111.883 75.4437C111.909 75.6383 111.982 75.825 112.096 75.9903C112.209 76.1555 112.362 76.2951 112.541 76.3988C112.72 76.5026 112.922 76.5679 113.132 76.5901L116.847 77.0213C117.344 77.0773 117.847 76.9844 118.283 76.7564C118.719 76.5283 119.066 76.177 119.272 75.7535L122.43 69.2071C122.784 68.4531 123.416 67.8413 124.213 67.4821L127 66.266C127.213 66.1688 127.446 66.1141 127.684 66.1054C127.921 66.0966 128.158 66.1341 128.38 66.2152C128.601 66.2964 128.801 66.4196 128.968 66.5768C129.135 66.7341 129.265 66.922 129.349 67.1285L130.817 71.0442C130.877 71.2071 130.981 71.3533 131.117 71.4698C131.254 71.5863 131.419 71.6693 131.599 71.7112C131.779 71.7532 131.967 71.7528 132.147 71.7102C132.327 71.6675 132.492 71.5839 132.628 71.4669L138.303 66.6455C138.649 66.3609 138.914 66.0024 139.075 65.601C139.237 65.1997 139.291 64.7677 139.232 64.3426L138.424 59.0727C138.285 58.1698 138.503 57.2507 139.037 56.4852L141.601 52.8541C141.931 52.3804 142.384 51.991 142.917 51.7214C143.451 51.4517 144.049 51.3104 144.657 51.3102H148.112C148.535 51.3007 148.944 51.1718 149.286 50.9406C149.628 50.7095 149.886 50.3871 150.025 50.0165L153.156 42.1678C153.239 41.9599 153.274 41.7382 153.26 41.5168C153.246 41.2954 153.182 41.0792 153.073 40.882C152.964 40.6848 152.811 40.5109 152.626 40.3714C152.44 40.2319 152.225 40.1299 151.994 40.0719L149.143 39.356C148.751 39.26 148.407 39.0389 148.173 38.7314C147.938 38.4239 147.828 38.0496 147.861 37.6741L148.168 33.6808C148.259 32.5497 148.787 31.4872 149.654 30.6879ZM129.916 55.4416C123.684 59.5471 118.055 57.1666 117.349 50.0855C116.643 43.0044 121.12 33.974 127.352 29.8771C133.585 25.7803 139.214 28.1521 139.92 35.2333C140.626 42.3144 136.149 51.3792 129.916 55.4416Z" fill="#00D86B"/>
<path opacity="0.5" d="M149.654 30.6879L154.298 26.2978C154.647 25.9695 154.903 25.5663 155.044 25.1239C155.185 24.6816 155.206 24.2138 155.106 23.762L153.926 18.4663C153.881 18.2893 153.789 18.1255 153.658 17.9899C153.528 17.8542 153.363 17.7509 153.178 17.6893C152.994 17.6277 152.796 17.6097 152.602 17.6369C152.409 17.6641 152.225 17.7357 152.069 17.8453L147.239 21.554C146.988 21.749 146.667 21.8478 146.341 21.8302C146.014 21.8126 145.708 21.6798 145.483 21.4591L144.053 20.0791C143.617 19.6611 143.313 19.1402 143.174 18.573C143.035 18.0058 143.066 17.4141 143.263 16.862L145.446 10.6865C145.515 10.4918 145.537 10.2854 145.509 10.082C145.482 9.87861 145.407 9.68334 145.289 9.5102C145.171 9.33706 145.013 9.19034 144.826 9.08057C144.64 8.97079 144.43 8.90068 144.211 8.87528L139.957 8.37503C139.525 8.32276 139.087 8.40218 138.709 8.60132C138.33 8.80046 138.031 9.10851 137.858 9.47903L134.7 16.1634C134.317 16.9771 133.612 17.6228 132.73 17.966L129.944 19.0786C129.779 19.1428 129.602 19.1756 129.423 19.1751C129.244 19.1746 129.067 19.1408 128.903 19.0756C128.738 19.0105 128.589 18.9154 128.465 18.7959C128.341 18.6764 128.243 18.535 128.179 18.38L126.405 14.1279C126.339 13.9632 126.229 13.8168 126.085 13.7022C125.941 13.5876 125.769 13.5086 125.583 13.4725C125.398 13.4363 125.206 13.4442 125.025 13.4955C124.844 13.5468 124.679 13.6397 124.547 13.7656L118.974 19.001C118.601 19.3566 118.323 19.7882 118.162 20.2615C118.001 20.7347 117.961 21.2364 118.046 21.7265L118.844 26.4961C118.951 27.0962 118.812 27.7117 118.454 28.2211L115.287 32.8269C115.045 33.172 114.715 33.4559 114.326 33.6531C113.937 33.8504 113.501 33.9547 113.058 33.9568H109.445C108.933 33.955 108.434 34.0999 108.015 34.3716C107.596 34.6433 107.278 35.0286 107.104 35.4748L103.909 43.5736C103.845 43.7336 103.817 43.9039 103.827 44.0742C103.837 44.2445 103.884 44.4111 103.966 44.5637C104.048 44.7164 104.162 44.8519 104.303 44.962C104.443 45.0721 104.606 45.1543 104.782 45.2038L108.098 46.1439C108.488 46.2512 108.824 46.4835 109.046 46.7993C109.269 47.1152 109.364 47.4941 109.314 47.8689L108.776 52.4142C108.7 53.1145 108.373 53.7708 107.847 54.2772L102.924 58.8916C102.569 59.2264 102.31 59.6391 102.172 60.0914C102.034 60.5437 102.021 61.021 102.135 61.4791L103.509 67.2492C103.548 67.386 103.623 67.5116 103.727 67.6152C103.831 67.7187 103.961 67.7969 104.105 67.843C104.249 67.889 104.403 67.9014 104.553 67.8791C104.704 67.8567 104.846 67.8004 104.968 67.715L109.732 64.0666C109.921 63.9224 110.139 63.8141 110.373 63.7482C110.607 63.6822 110.853 63.6598 111.096 63.6823C111.339 63.7047 111.576 63.7715 111.791 63.8789C112.007 63.9863 112.197 64.1322 112.352 64.3081L113.559 65.6795C113.852 66.012 114.053 66.4056 114.145 66.8263C114.237 67.247 114.218 67.6822 114.089 68.0945L111.943 74.8651C111.877 75.0514 111.856 75.249 111.883 75.4437C111.909 75.6383 111.982 75.825 112.096 75.9903C112.209 76.1555 112.362 76.2951 112.541 76.3988C112.72 76.5026 112.922 76.5679 113.132 76.5901L116.847 77.0213C117.344 77.0773 117.847 76.9844 118.283 76.7564C118.719 76.5283 119.066 76.177 119.272 75.7535L122.43 69.2071C122.784 68.4531 123.416 67.8413 124.213 67.4821L127 66.266C127.213 66.1688 127.446 66.1141 127.684 66.1054C127.921 66.0966 128.158 66.1341 128.38 66.2152C128.601 66.2964 128.801 66.4196 128.968 66.5768C129.135 66.7341 129.265 66.922 129.349 67.1285L130.817 71.0442C130.877 71.2071 130.981 71.3533 131.117 71.4698C131.254 71.5863 131.419 71.6693 131.599 71.7112C131.779 71.7532 131.967 71.7528 132.147 71.7102C132.327 71.6675 132.492 71.5839 132.628 71.4669L138.303 66.6455C138.649 66.3609 138.914 66.0024 139.075 65.601C139.237 65.1997 139.291 64.7677 139.232 64.3426L138.424 59.0727C138.285 58.1698 138.503 57.2507 139.037 56.4852L141.601 52.8541C141.931 52.3804 142.384 51.991 142.917 51.7214C143.451 51.4517 144.049 51.3104 144.657 51.3102H148.112C148.535 51.3007 148.944 51.1718 149.286 50.9406C149.628 50.7095 149.886 50.3871 150.025 50.0165L153.156 42.1678C153.239 41.9599 153.274 41.7382 153.26 41.5168C153.246 41.2954 153.182 41.0792 153.073 40.882C152.964 40.6848 152.811 40.5109 152.626 40.3714C152.44 40.2319 152.225 40.1299 151.994 40.0719L149.143 39.356C148.751 39.26 148.407 39.0389 148.173 38.7314C147.938 38.4239 147.828 38.0496 147.861 37.6741L148.168 33.6808C148.259 32.5497 148.787 31.4872 149.654 30.6879ZM129.916 55.4416C123.684 59.5471 118.055 57.1666 117.349 50.0855C116.643 43.0044 121.12 33.974 127.352 29.8771C133.585 25.7803 139.214 28.1521 139.92 35.2333C140.626 42.3144 136.149 51.3792 129.916 55.4416Z" fill="white"/>
<path d="M259.396 282.219L229.673 297.916C227.73 298.949 225.562 299.565 223.329 299.719C220.261 299.94 217.192 299.297 214.524 297.873L195.538 287.661L193.365 286.497C191.107 285.286 189.231 283.545 187.927 281.448C186.623 279.351 185.935 276.973 185.934 274.551V223.664L230.518 200.109V252.092C230.511 254.188 231.1 256.249 232.226 258.066C233.351 259.883 234.973 261.393 236.927 262.442L259.461 274.517C260.182 274.915 260.779 275.481 261.191 276.16C261.603 276.839 261.816 277.606 261.81 278.385C261.803 279.164 261.577 279.928 261.153 280.601C260.73 281.274 260.124 281.831 259.396 282.219Z" fill="#263238"/>
<path d="M223.348 299.719C225.58 299.562 227.747 298.946 229.692 297.916L259.414 282.219C260.154 281.83 260.77 281.266 261.198 280.584C261.626 279.902 261.852 279.127 261.852 278.338C261.852 277.548 261.626 276.773 261.198 276.091C260.77 275.409 260.154 274.845 259.414 274.456L244.024 266.202H223.348V299.719Z" fill="#37474F"/>
<path d="M258.866 271.067L259.693 271.679C260.358 272.17 260.895 272.794 261.264 273.505C261.632 274.216 261.822 274.996 261.82 275.785V278.372H258.839L258.866 271.067Z" fill="#37484F"/>
<path d="M233.9 204.05V250.806C233.901 252.832 234.477 254.822 235.569 256.575C236.662 258.328 238.232 259.784 240.123 260.794L258.867 271.067C259.579 271.443 260.172 271.988 260.584 272.647C260.996 273.305 261.213 274.053 261.213 274.814C261.213 275.575 260.996 276.323 260.584 276.981C260.172 277.64 259.579 278.185 258.867 278.562L256.74 279.683L230.091 293.75C227.855 294.932 225.325 295.55 222.752 295.543C220.179 295.535 217.653 294.902 215.425 293.707L196.969 283.59C195.089 282.583 193.526 281.135 192.437 279.392C191.348 277.648 190.772 275.67 190.764 273.654V226.846L233.9 204.05Z" fill="#455A64"/>
<path d="M233.9 250.806V204.05L190.764 226.846V273.654C190.763 275.677 191.336 277.664 192.426 279.416C193.515 281.168 195.082 282.622 196.969 283.633L239.473 260.466C237.754 259.411 236.345 257.976 235.372 256.29C234.4 254.604 233.893 252.719 233.9 250.806Z" fill="#263238"/>
<path d="M315.21 10.2641C315.214 8.69955 314.78 7.16089 313.949 5.79972C313.118 4.43854 311.92 3.30183 310.472 2.50158L310.082 2.28596C307.376 0.791497 304.286 0.00193254 301.138 0.000334142C300.132 -0.0103252 299.143 0.23423 298.277 0.707585L86.9574 113.566C84.3593 114.96 82.2019 116.964 80.7019 119.377C79.2019 121.79 78.4123 124.528 78.4122 127.314V309.594C78.4083 310.505 78.6629 311.4 79.1505 312.189C79.638 312.979 80.3412 313.635 81.189 314.092C82.0369 314.548 82.9995 314.789 83.9796 314.79C84.9598 314.791 85.9228 314.552 86.7717 314.097L298.082 201.265C300.682 199.872 302.842 197.869 304.344 195.455C305.846 193.042 306.636 190.304 306.636 187.516V10.2641H315.21Z" fill="#455A64"/>
<path d="M104.512 134.136V304.618L97.4161 308.43L92.5118 311.061V319.367C89.3624 319.371 86.2709 318.581 83.5671 317.081L83.177 316.865C82.0556 316.243 81.0815 315.417 80.3136 314.435C79.5458 313.454 79 312.338 78.7093 311.156C78.533 310.648 78.4421 310.119 78.4399 309.586V127.314C78.4544 124.837 79.0904 122.398 80.2976 120.19L104.512 134.136Z" fill="#263238"/>
<path d="M97.3882 308.43L92.484 311.061V319.367C89.3346 319.371 86.2431 318.581 83.5393 317.081L83.1492 316.865C82.0277 316.243 81.0537 315.417 80.2858 314.435C79.5179 313.454 78.9722 312.338 78.6815 311.156C78.5052 310.648 78.4143 310.119 78.4121 309.586V298.261L97.3882 308.43Z" fill="#37474F"/>
<path d="M306.664 205.844L95.3449 318.676C94.4961 319.132 93.533 319.371 92.5529 319.37C91.5727 319.369 90.6101 319.128 89.7623 318.671C88.9144 318.215 88.2112 317.559 87.7237 316.769C87.2362 315.979 86.9815 315.084 86.9854 314.174V131.894C86.9855 129.106 87.7762 126.368 89.2779 123.955C90.7797 121.541 92.9394 119.538 95.54 118.145L306.813 5.31321C307.662 4.85813 308.625 4.61898 309.605 4.61988C310.585 4.62077 311.548 4.8617 312.396 5.31834C313.243 5.77498 313.947 6.43118 314.434 7.22075C314.922 8.01031 315.176 8.90532 315.172 9.81546V192.096C315.176 194.879 314.392 197.614 312.899 200.027C311.406 202.44 309.256 204.446 306.664 205.844Z" fill="#37474F"/>
<path d="M86.9483 302.832V314.192C86.9444 315.102 87.1991 315.997 87.6866 316.786C88.1741 317.576 88.8773 318.232 89.7252 318.689C90.573 319.145 91.5356 319.386 92.5158 319.387C93.4959 319.388 94.459 319.149 95.3078 318.694L306.664 205.844C309.262 204.45 311.42 202.446 312.92 200.033C314.42 197.62 315.21 194.882 315.21 192.096V180.504L86.9483 302.832Z" fill="#455A64"/>
<path d="M302.958 17.6815C301.991 17.6768 301.037 17.8836 300.172 18.2852L101.54 124.304C99.2452 125.533 97.3392 127.302 96.0136 129.432C94.6881 131.562 93.9897 133.979 93.9888 136.439V282.089C93.9867 282.719 94.1259 283.341 94.3975 283.918C94.6745 284.512 95.0839 285.045 95.5988 285.482C96.1137 285.919 96.7223 286.25 97.3848 286.453C98.0472 286.656 98.7484 286.726 99.4422 286.659C100.136 286.593 100.807 286.39 101.41 286.065L300.005 180.047C302.299 178.818 304.206 177.049 305.531 174.919C306.857 172.789 307.555 170.372 307.556 167.912V22.2613C307.557 21.0992 307.082 19.9801 306.229 19.1301C305.376 18.28 304.207 17.7623 302.958 17.6815Z" fill="#00D86B"/>
<path opacity="0.4" d="M302.958 17.6815C301.991 17.6768 301.037 17.8836 300.172 18.2852L101.54 124.304C99.2452 125.533 97.3392 127.302 96.0136 129.432C94.6881 131.562 93.9897 133.979 93.9888 136.439V282.089C93.9867 282.719 94.1259 283.341 94.3975 283.918C94.6745 284.512 95.0839 285.045 95.5988 285.482C96.1137 285.919 96.7223 286.25 97.3848 286.453C98.0472 286.656 98.7484 286.726 99.4422 286.659C100.136 286.593 100.807 286.39 101.41 286.065L300.005 180.047C302.299 178.818 304.206 177.049 305.531 174.919C306.857 172.789 307.555 170.372 307.556 167.912V22.2613C307.557 21.0992 307.082 19.9801 306.229 19.1301C305.376 18.28 304.207 17.7623 302.958 17.6815Z" fill="black"/>
<path d="M113.243 292.629V155.336L107.234 152.111V287.833C107.238 288.531 107.403 289.22 107.718 289.853C108.034 290.486 108.492 291.049 109.061 291.503C109.631 291.958 110.299 292.294 111.021 292.488C111.742 292.682 112.5 292.73 113.243 292.629Z" fill="#E0E0E0"/>
<path d="M109.918 292.086L116.114 295.337V285.212L109.918 292.086Z" fill="#DFDFDF"/>
<path d="M327.145 31.9732V176.873C327.146 179.488 326.405 182.057 324.996 184.32C323.587 186.584 321.56 188.463 319.12 189.767L120.944 295.622C120.146 296.051 119.241 296.277 118.319 296.277C117.397 296.278 116.492 296.053 115.693 295.626C114.895 295.198 114.232 294.583 113.771 293.842C113.31 293.101 113.067 292.26 113.067 291.404V146.505C113.066 143.891 113.808 141.324 115.217 139.061C116.626 136.799 118.653 134.922 121.092 133.619L319.269 27.747C320.067 27.3207 320.973 27.0969 321.894 27.0979C322.816 27.0989 323.72 27.3248 324.518 27.7528C325.316 28.1808 325.979 28.796 326.44 29.5367C326.901 30.2775 327.144 31.1177 327.145 31.9732Z" fill="#FAFAFA"/>
<path d="M322.055 27.5485C323.204 27.5485 324.306 27.9717 325.119 28.7252C325.932 29.4787 326.39 30.501 326.393 31.5678V176.468C326.388 178.929 325.687 181.347 324.36 183.478C323.033 185.609 321.127 187.379 318.832 188.612L120.656 294.475C120.001 294.834 119.255 295.026 118.495 295.031C117.734 295.036 116.986 294.854 116.325 294.504C115.665 294.153 115.116 293.647 114.735 293.036C114.354 292.425 114.153 291.731 114.154 291.025V146.125C114.149 143.653 114.846 141.225 116.176 139.083C117.505 136.942 119.418 135.164 121.724 133.929L319.91 28.0919C320.56 27.7358 321.301 27.5481 322.055 27.5485ZM322.055 26.686C321.138 26.6883 320.238 26.9143 319.445 27.3415L121.232 133.17C118.794 134.475 116.77 136.353 115.363 138.615C113.956 140.877 113.215 143.444 113.216 146.056V290.999C113.216 292.294 113.77 293.535 114.756 294.451C115.742 295.366 117.079 295.881 118.473 295.881C119.394 295.879 120.298 295.65 121.092 295.217L319.297 189.397C321.735 188.09 323.76 186.211 325.169 183.948C326.578 181.684 327.32 179.116 327.322 176.502V31.6023C327.319 30.3068 326.763 29.0651 325.776 28.1498C324.788 27.2346 323.45 26.7205 322.055 26.7205V26.686Z" fill="#E0E0E0"/>
<path d="M318.832 24.2796C318.028 23.8025 317.098 23.541 316.143 23.5243C315.189 23.5076 314.249 23.7361 313.426 24.1848L115.25 130.005C112.806 131.315 110.777 133.202 109.37 135.473C107.962 137.745 107.225 140.321 107.234 142.942V152.154L113.244 155.38L321.303 43.798V30.6449L324.795 27.4019L318.832 24.271V24.2796Z" fill="#00D86B"/>
<path opacity="0.4" d="M318.832 24.2796C318.028 23.8025 317.098 23.541 316.143 23.5243C315.189 23.5076 314.249 23.7361 313.426 24.1848L115.25 130.005C112.806 131.315 110.777 133.202 109.37 135.473C107.962 137.745 107.225 140.321 107.234 142.942V152.154L113.244 155.38L321.303 43.798V30.6449L324.795 27.4019L318.832 24.271V24.2796Z" fill="white"/>
<path d="M327.321 31.5677V40.5722L113.243 155.336V146.056C113.24 143.446 113.976 140.881 115.378 138.619C116.781 136.357 118.799 134.478 121.231 133.17L319.445 27.3414C320.244 26.9152 321.149 26.6914 322.071 26.6924C322.992 26.6934 323.897 26.9193 324.694 27.3473C325.492 27.7753 326.155 28.3905 326.616 29.1312C327.077 29.8719 327.32 30.7122 327.321 31.5677Z" fill="#00D86B"/>
<path opacity="0.6" d="M327.321 31.5677V40.5722L113.243 155.336V146.056C113.24 143.446 113.976 140.881 115.378 138.619C116.781 136.357 118.799 134.478 121.231 133.17L319.445 27.3414C320.244 26.9152 321.149 26.6914 322.071 26.6924C322.992 26.6934 323.897 26.9193 324.694 27.3473C325.492 27.7753 326.155 28.3905 326.616 29.1312C327.077 29.8719 327.32 30.7122 327.321 31.5677Z" fill="white"/>
<path d="M109.296 135.603C107.944 137.829 107.233 140.343 107.234 142.899V152.111L113.243 155.337V146.056C113.243 143.513 113.946 141.012 115.287 138.794L109.296 135.603Z" fill="#00D86B"/>
<path d="M185.869 228.114C185.331 228.116 184.802 227.985 184.337 227.735C183.083 227.062 182.358 225.544 182.358 223.56C182.358 219.972 184.736 215.798 187.653 214.211L265.452 172.509C265.999 172.158 266.637 171.949 267.3 171.905C267.964 171.861 268.628 171.983 269.223 172.259C270.486 172.931 271.201 174.449 271.201 176.433C271.201 180.021 268.833 184.196 265.916 185.783L265.684 185.412L265.916 185.783L188.108 227.493C187.431 227.874 186.66 228.088 185.869 228.114ZM267.69 172.742C267.062 172.76 266.45 172.933 265.916 173.242L188.108 215.004C185.442 216.427 183.278 220.291 183.278 223.629C183.278 225.294 183.835 226.544 184.792 227.079C185.249 227.275 185.753 227.355 186.254 227.311C186.755 227.267 187.234 227.101 187.643 226.829L265.443 185.119C268.099 183.695 270.263 179.831 270.263 176.494C270.263 174.829 269.715 173.578 268.749 173.044C268.432 172.856 268.066 172.752 267.69 172.742Z" fill="#00D86B"/>
<path opacity="0.5" d="M185.869 228.114C185.331 228.116 184.802 227.985 184.337 227.735C183.083 227.062 182.358 225.544 182.358 223.56C182.358 219.972 184.736 215.798 187.653 214.211L265.452 172.509C265.999 172.158 266.637 171.949 267.3 171.905C267.964 171.861 268.628 171.983 269.223 172.259C270.486 172.931 271.201 174.449 271.201 176.433C271.201 180.021 268.833 184.196 265.916 185.783L265.684 185.412L265.916 185.783L188.108 227.493C187.431 227.874 186.66 228.088 185.869 228.114ZM267.69 172.742C267.062 172.76 266.45 172.933 265.916 173.242L188.108 215.004C185.442 216.427 183.278 220.291 183.278 223.629C183.278 225.294 183.835 226.544 184.792 227.079C185.249 227.275 185.753 227.355 186.254 227.311C186.755 227.267 187.234 227.101 187.643 226.829L265.443 185.119C268.099 183.695 270.263 179.831 270.263 176.494C270.263 174.829 269.715 173.578 268.749 173.044C268.432 172.856 268.066 172.752 267.69 172.742Z" fill="black"/>
<path d="M189.343 216.565C188.494 217.074 187.813 217.79 187.374 218.635C186.856 219.521 186.572 220.508 186.547 221.516C186.547 223.431 187.801 224.311 189.334 223.483L236.296 198.358V191.458L189.343 216.565Z" fill="#00D86B"/>
<path opacity="0.3" d="M189.343 216.565C188.494 217.074 187.813 217.79 187.374 218.635C186.856 219.521 186.572 220.508 186.547 221.516C186.547 223.431 187.801 224.311 189.334 223.483L236.296 198.358V191.458L189.343 216.565Z" fill="black"/>
<path d="M264.216 176.511L236.305 191.441V198.341L264.216 183.42C265.067 182.907 265.751 182.188 266.195 181.341C266.709 180.454 266.989 179.467 267.012 178.46C267.059 176.563 265.758 175.683 264.216 176.511Z" fill="#00D86B"/>
<path d="M230.268 122.078C230.194 123.343 229.799 124.575 229.116 125.672C228.434 126.769 227.482 127.701 226.339 128.392C224.174 129.556 222.41 128.607 222.41 126.287C222.484 125.022 222.878 123.791 223.561 122.694C224.244 121.597 225.195 120.665 226.339 119.974C228.512 118.809 230.268 119.75 230.268 122.078Z" fill="#00D86B"/>
<path d="M244.042 118.551C243.974 119.71 243.614 120.838 242.989 121.843C242.365 122.849 241.494 123.703 240.448 124.338C238.46 125.408 236.844 124.537 236.844 122.406C236.913 121.247 237.276 120.119 237.902 119.113C238.528 118.108 239.4 117.253 240.448 116.619C242.435 115.558 244.042 116.421 244.042 118.551Z" fill="#00D86B"/>
<path d="M253.043 123.993C252.977 125.101 252.632 126.178 252.035 127.139C251.438 128.099 250.606 128.916 249.606 129.522C247.748 130.54 246.169 129.712 246.169 127.676C246.234 126.569 246.58 125.491 247.177 124.531C247.774 123.57 248.606 122.754 249.606 122.147C251.501 121.13 253.043 121.958 253.043 123.993Z" fill="#00D86B"/>
<path opacity="0.5" d="M230.268 122.078C230.194 123.343 229.799 124.575 229.116 125.672C228.434 126.769 227.482 127.701 226.339 128.392C224.174 129.556 222.41 128.607 222.41 126.287C222.484 125.022 222.878 123.791 223.561 122.694C224.244 121.597 225.195 120.665 226.339 119.974C228.512 118.809 230.268 119.75 230.268 122.078Z" fill="black"/>
<path opacity="0.5" d="M244.042 118.551C243.974 119.71 243.614 120.838 242.989 121.843C242.365 122.849 241.494 123.703 240.448 124.338C238.46 125.408 236.844 124.537 236.844 122.406C236.913 121.247 237.276 120.119 237.902 119.113C238.528 118.108 239.4 117.253 240.448 116.619C242.435 115.558 244.042 116.421 244.042 118.551Z" fill="black"/>
<path opacity="0.5" d="M253.043 123.993C252.977 125.101 252.632 126.178 252.035 127.139C251.438 128.099 250.606 128.916 249.606 129.522C247.748 130.54 246.169 129.712 246.169 127.676C246.234 126.569 246.58 125.491 247.177 124.531C247.774 123.57 248.606 122.754 249.606 122.147C251.501 121.13 253.043 121.958 253.043 123.993Z" fill="black"/>
<path d="M254.426 136.172C254.365 137.225 254.037 138.251 253.469 139.165C252.901 140.079 252.109 140.856 251.157 141.433C249.346 142.399 247.878 141.614 247.878 139.708C247.939 138.653 248.268 137.627 248.838 136.712C249.408 135.798 250.203 135.022 251.157 134.447C252.959 133.446 254.426 134.231 254.426 136.172Z" fill="#00D86B"/>
<path d="M250.386 151.559C250.327 152.561 250.014 153.536 249.474 154.405C248.933 155.274 248.18 156.013 247.274 156.561C245.556 157.475 244.163 156.734 244.163 154.888C244.221 153.887 244.534 152.913 245.074 152.045C245.615 151.177 246.369 150.44 247.274 149.894C248.993 148.971 250.386 149.722 250.386 151.559Z" fill="#00D86B"/>
<path d="M241.915 165.048C241.86 165.997 241.565 166.92 241.053 167.743C240.542 168.566 239.828 169.265 238.971 169.783C237.345 170.646 236.026 169.947 236.026 168.205C236.081 167.256 236.377 166.333 236.888 165.51C237.4 164.687 238.113 163.988 238.971 163.47C240.596 162.599 241.915 163.306 241.915 165.048Z" fill="#00D86B"/>
<path opacity="0.3" d="M254.426 136.172C254.365 137.225 254.037 138.251 253.469 139.165C252.901 140.079 252.109 140.856 251.157 141.433C249.346 142.399 247.878 141.614 247.878 139.708C247.939 138.653 248.268 137.627 248.838 136.712C249.408 135.798 250.203 135.022 251.157 134.447C252.959 133.446 254.426 134.231 254.426 136.172Z" fill="black"/>
<path opacity="0.3" d="M250.386 151.559C250.327 152.561 250.014 153.536 249.474 154.405C248.933 155.274 248.18 156.013 247.274 156.561C245.556 157.475 244.163 156.734 244.163 154.888C244.221 153.887 244.534 152.913 245.074 152.045C245.615 151.177 246.369 150.44 247.274 149.894C248.993 148.971 250.386 149.722 250.386 151.559Z" fill="black"/>
<path opacity="0.3" d="M241.915 165.048C241.86 165.997 241.565 166.92 241.053 167.743C240.542 168.566 239.828 169.265 238.971 169.783C237.345 170.646 236.026 169.947 236.026 168.205C236.081 167.256 236.377 166.333 236.888 165.51C237.4 164.687 238.113 163.988 238.971 163.47C240.596 162.599 241.915 163.306 241.915 165.048Z" fill="black"/>
<path d="M229.125 176.114C229.073 177.011 228.793 177.884 228.309 178.662C227.825 179.44 227.15 180.101 226.339 180.591C224.806 181.453 223.552 180.746 223.552 179.098C223.606 178.202 223.886 177.329 224.371 176.552C224.855 175.774 225.529 175.113 226.339 174.622C227.881 173.803 229.125 174.467 229.125 176.114Z" fill="#00D86B"/>
<path d="M215.128 179.409C215.079 180.252 214.816 181.073 214.361 181.804C213.906 182.536 213.271 183.157 212.508 183.618C211.069 184.394 209.889 183.764 209.889 182.212C209.941 181.369 210.205 180.549 210.66 179.818C211.114 179.087 211.748 178.465 212.508 178.003C213.957 177.227 215.128 177.856 215.128 179.409Z" fill="#00D86B"/>
<path d="M206.852 173.466C206.807 174.257 206.562 175.028 206.136 175.714C205.709 176.401 205.115 176.984 204.4 177.416C203.044 178.141 201.938 177.554 201.938 176.097C201.986 175.306 202.234 174.538 202.662 173.853C203.089 173.168 203.685 172.586 204.4 172.155C205.756 171.422 206.852 172.017 206.852 173.466Z" fill="#00D86B"/>
<path opacity="0.2" d="M229.125 176.114C229.073 177.011 228.793 177.884 228.309 178.662C227.825 179.44 227.15 180.101 226.339 180.591C224.806 181.453 223.552 180.746 223.552 179.098C223.606 178.202 223.886 177.329 224.371 176.552C224.855 175.774 225.529 175.113 226.339 174.622C227.881 173.803 229.125 174.467 229.125 176.114Z" fill="black"/>
<path opacity="0.2" d="M215.128 179.409C215.079 180.252 214.816 181.073 214.361 181.804C213.906 182.536 213.271 183.157 212.508 183.618C211.069 184.394 209.889 183.764 209.889 182.212C209.941 181.369 210.205 180.549 210.66 179.818C211.114 179.087 211.748 178.465 212.508 178.003C213.957 177.227 215.128 177.856 215.128 179.409Z" fill="black"/>
<path opacity="0.2" d="M206.852 173.466C206.807 174.257 206.562 175.028 206.136 175.714C205.709 176.401 205.115 176.984 204.4 177.416C203.044 178.141 201.938 177.554 201.938 176.097C201.986 175.306 202.234 174.538 202.662 173.853C203.089 173.168 203.685 172.586 204.4 172.155C205.756 171.422 206.852 172.017 206.852 173.466Z" fill="black"/>
<path d="M203.722 163.021C203.678 163.759 203.447 164.478 203.049 165.118C202.65 165.757 202.095 166.301 201.427 166.704C200.164 167.386 199.133 166.834 199.133 165.479C199.176 164.741 199.406 164.023 199.805 163.383C200.203 162.743 200.759 162.199 201.427 161.797C202.69 161.115 203.722 161.667 203.722 163.021Z" fill="#00D86B"/>
<path d="M207.493 147.005C207.456 147.695 207.244 148.367 206.875 148.967C206.505 149.566 205.988 150.076 205.366 150.455C204.186 151.084 203.239 150.575 203.239 149.316C203.273 148.626 203.484 147.953 203.853 147.353C204.223 146.753 204.742 146.243 205.366 145.866C206.536 145.237 207.493 145.745 207.493 147.005Z" fill="#00D86B"/>
<path d="M215.127 134.05C215.094 134.681 214.901 135.296 214.564 135.844C214.227 136.393 213.755 136.86 213.186 137.207C212.099 137.793 211.217 137.319 211.217 136.155C211.254 135.522 211.451 134.905 211.794 134.357C212.136 133.808 212.613 133.343 213.186 132.998C214.254 132.42 215.127 132.886 215.127 134.05Z" fill="#00D86B"/>
<path d="M237.977 145.262L226.849 134.214L214.199 158.01L220.626 154.569V167.179L231.549 161.322V148.712L237.977 145.262Z" fill="#00D86B"/>
<path d="M278.204 119.663C278.205 117.518 278.814 115.41 279.97 113.553C281.126 111.695 282.788 110.153 284.79 109.081L368.45 64.2306C369.008 63.9318 369.631 63.7528 370.273 63.7068C370.915 63.6608 371.56 63.749 372.16 63.965C372.761 64.1809 373.302 64.5191 373.743 64.9546C374.184 65.3902 374.515 65.912 374.71 66.4818C374.486 65.5716 374.065 64.7132 373.472 63.9585C372.88 63.2039 372.129 62.5688 371.264 62.0916L370.967 61.9278C368.883 60.786 366.504 60.1898 364.084 60.2028C363.312 60.193 362.551 60.3778 361.883 60.7375L278.214 105.587C276.214 106.661 274.553 108.203 273.399 110.061C272.245 111.919 271.637 114.026 271.637 116.17V284.151C271.637 284.857 271.837 285.551 272.219 286.162C272.6 286.773 273.149 287.279 273.809 287.63C274.469 287.98 275.218 288.162 275.978 288.157C276.739 288.152 277.484 287.96 278.139 287.601L278.241 287.54L278.204 119.663Z" fill="#37484F"/>
<path d="M368.302 246.287L284.632 291.137C283.978 291.496 283.232 291.688 282.471 291.693C281.711 291.698 280.962 291.516 280.302 291.166C279.642 290.816 279.093 290.309 278.712 289.698C278.33 289.087 278.13 288.393 278.131 287.687V119.663C278.131 117.518 278.74 115.41 279.896 113.553C281.052 111.695 282.715 110.153 284.716 109.081L368.376 64.2306C369.031 63.8714 369.777 63.6795 370.537 63.6744C371.298 63.6693 372.046 63.8512 372.707 64.2016C373.367 64.552 373.916 65.0584 374.297 65.6695C374.678 66.2805 374.879 66.9744 374.878 67.6806V235.704C374.878 237.849 374.271 239.956 373.116 241.813C371.962 243.671 370.302 245.214 368.302 246.287Z" fill="#455A64"/>
<path d="M278.205 287.678V119.663C278.207 117.833 278.652 116.026 279.505 114.376L273.003 110.659C272.079 112.36 271.599 114.239 271.601 116.144V285.557C271.601 286.223 271.788 286.878 272.143 287.457C272.498 288.036 273.009 288.519 273.626 288.86L276.96 290.706C278.114 291.345 279.434 291.682 280.778 291.68H282.431C281.303 291.658 280.23 291.226 279.44 290.479C278.65 289.731 278.207 288.726 278.205 287.678Z" fill="#253239"/>
<path d="M365.441 80.3767V221.594C365.441 223.488 364.903 225.348 363.883 226.988C362.862 228.628 361.394 229.989 359.627 230.935L285.747 270.549C285.183 270.853 284.542 271.014 283.889 271.015C284.103 271.472 284.418 271.882 284.814 272.218C285.21 272.554 285.679 272.809 286.188 272.965C286.698 273.122 287.237 273.176 287.771 273.126C288.305 273.075 288.821 272.92 289.286 272.671L363.166 233.065C364.932 232.117 366.4 230.754 367.42 229.113C368.441 227.472 368.979 225.61 368.98 223.715V83.9043C368.978 83.0103 368.612 82.15 367.956 81.4959C367.3 80.8417 366.401 80.442 365.441 80.3767Z" fill="#37484F"/>
<path d="M283.917 271.015C284.57 271.014 285.21 270.853 285.775 270.549L359.654 230.935C361.422 229.989 362.89 228.628 363.91 226.988C364.931 225.348 365.469 223.488 365.469 221.594V80.3767C364.726 80.3868 363.994 80.5457 363.323 80.8425L289.444 120.457C287.677 121.403 286.211 122.764 285.192 124.404C284.172 126.044 283.637 127.905 283.638 129.798V269.609C283.635 270.102 283.743 270.589 283.954 271.041L283.917 271.015Z" fill="#00D86B"/>
<g opacity="0.7">
<path opacity="0.7" d="M283.917 271.015C284.57 271.014 285.21 270.853 285.775 270.549L359.654 230.935C361.422 229.989 362.89 228.628 363.91 226.988C364.931 225.348 365.469 223.488 365.469 221.594V80.3767C364.726 80.3868 363.994 80.5457 363.323 80.8425L289.444 120.457C287.677 121.403 286.211 122.764 285.192 124.404C284.172 126.044 283.637 127.905 283.638 129.798V269.609C283.635 270.102 283.743 270.589 283.954 271.041L283.917 271.015Z" fill="white"/>
</g>
<path d="M314.838 99.7571C314.81 100.186 314.675 100.603 314.443 100.974C314.21 101.345 313.888 101.661 313.5 101.896C312.767 102.293 312.172 101.974 312.172 101.18C312.198 100.752 312.332 100.336 312.562 99.9641C312.793 99.5926 313.114 99.2765 313.5 99.0412C314.234 98.6445 314.838 98.9722 314.838 99.7571Z" fill="#253239"/>
<path d="M319.78 97.1006C319.757 97.5294 319.624 97.9469 319.393 98.3188C319.162 98.6907 318.839 99.0063 318.451 99.2396C317.717 99.6363 317.123 99.3172 317.123 98.5323C317.146 98.1036 317.278 97.686 317.509 97.3141C317.74 96.9422 318.063 96.6266 318.451 96.3933C319.185 95.9793 319.78 96.3157 319.78 97.1006Z" fill="#253239"/>
<path d="M339.759 87.82L323.671 96.445C323.03 96.79 322.52 96.445 322.52 95.6342C322.528 95.234 322.637 94.8411 322.836 94.4864C323.036 94.1317 323.322 93.8249 323.671 93.5901L339.759 84.9651C340.4 84.6287 340.91 84.9651 340.91 85.7759C340.902 86.1761 340.793 86.569 340.594 86.9237C340.394 87.2784 340.108 87.5852 339.759 87.82Z" fill="#253239"/>
<path d="M337.037 251.583C337.966 251.583 338.616 252.531 338.616 253.998C338.616 256.301 337.065 259.078 335.235 260.035L327.535 264.167C327.193 264.371 326.799 264.487 326.393 264.503C325.464 264.503 324.804 263.554 324.804 262.088C324.804 259.785 326.356 257.016 328.195 256.05L335.895 251.928C336.238 251.726 336.632 251.611 337.037 251.591V251.583ZM337.037 250.988C336.514 251.002 336.004 251.145 335.56 251.402L327.87 255.542C325.817 256.646 324.154 259.595 324.154 262.131C324.154 264.029 325.083 265.158 326.393 265.158C326.915 265.139 327.423 264.997 327.87 264.744L335.56 260.613C337.613 259.518 339.276 256.568 339.276 254.024C339.276 252.135 338.347 251.005 337.037 251.005V250.988Z" fill="#253239"/>
<path d="M292.908 224.216C292.491 224.22 292.08 224.118 291.719 223.922C290.744 223.405 290.187 222.197 290.187 220.697C290.187 217.919 292.044 214.659 294.283 213.469L354.453 181.211C354.876 180.937 355.372 180.774 355.886 180.739C356.401 180.704 356.917 180.799 357.379 181.013C358.308 181.539 358.911 182.738 358.911 184.247C358.911 187.025 357.054 190.285 354.815 191.475L354.639 191.19L354.815 191.475L294.645 223.733C294.121 224.03 293.523 224.197 292.908 224.216ZM356.227 181.367C355.739 181.385 355.265 181.522 354.852 181.763L294.682 214.021C292.62 215.125 290.967 218.109 290.967 220.671C290.903 221.169 290.977 221.675 291.182 222.14C291.387 222.604 291.715 223.013 292.137 223.327C292.49 223.478 292.88 223.54 293.267 223.505C293.654 223.47 294.024 223.34 294.339 223.129L354.509 190.871C356.571 189.767 358.224 186.783 358.224 184.221C358.288 183.723 358.214 183.217 358.009 182.753C357.804 182.288 357.475 181.879 357.054 181.565C356.801 181.434 356.516 181.366 356.227 181.367Z" fill="#00D86B"/>
<path opacity="0.5" d="M292.908 224.216C292.491 224.22 292.08 224.118 291.719 223.922C290.744 223.405 290.187 222.197 290.187 220.697C290.187 217.919 292.044 214.659 294.283 213.469L354.453 181.211C354.876 180.937 355.372 180.774 355.886 180.739C356.401 180.704 356.917 180.799 357.379 181.013C358.308 181.539 358.911 182.738 358.911 184.247C358.911 187.025 357.054 190.285 354.815 191.475L354.639 191.19L354.815 191.475L294.645 223.733C294.121 224.03 293.523 224.197 292.908 224.216ZM356.227 181.367C355.739 181.385 355.265 181.522 354.852 181.763L294.682 214.021C292.62 215.125 290.967 218.109 290.967 220.671C290.903 221.169 290.977 221.675 291.182 222.14C291.387 222.604 291.715 223.013 292.137 223.327C292.49 223.478 292.88 223.54 293.267 223.505C293.654 223.47 294.024 223.34 294.339 223.129L354.509 190.871C356.571 189.767 358.224 186.783 358.224 184.221C358.288 183.723 358.214 183.217 358.009 182.753C357.804 182.288 357.475 181.879 357.054 181.565C356.801 181.434 356.516 181.366 356.227 181.367Z" fill="black"/>
<path d="M295.593 215.28C294.935 215.678 294.408 216.236 294.069 216.893C293.67 217.577 293.45 218.34 293.428 219.118C293.428 220.602 294.357 221.275 295.593 220.636L331.91 201.204V195.857L295.593 215.28Z" fill="#00D86B"/>
<path opacity="0.3" d="M295.593 215.28C294.935 215.678 294.408 216.236 294.069 216.893C293.67 217.577 293.45 218.34 293.428 219.118C293.428 220.602 294.357 221.275 295.593 220.636L331.91 201.204V195.857L295.593 215.28Z" fill="black"/>
<path d="M353.506 184.308L331.91 195.857V201.204L353.506 189.655C354.163 189.261 354.69 188.706 355.029 188.051C355.432 187.368 355.651 186.604 355.67 185.826C355.67 184.342 354.694 183.669 353.506 184.308Z" fill="#00D86B"/>
<path d="M327.247 142.201C327.189 143.18 326.884 144.132 326.356 144.982C325.828 145.831 325.093 146.554 324.21 147.091C322.529 147.953 321.173 147.255 321.173 145.461C321.229 144.481 321.534 143.528 322.061 142.678C322.589 141.829 323.325 141.106 324.21 140.57C325.882 139.673 327.247 140.407 327.247 142.201Z" fill="#00D86B"/>
<path d="M337.901 139.475C337.849 140.372 337.57 141.246 337.086 142.023C336.602 142.801 335.926 143.462 335.115 143.951C333.582 144.814 332.328 144.107 332.328 142.459C332.383 141.563 332.663 140.691 333.147 139.913C333.631 139.136 334.305 138.474 335.115 137.983C336.656 137.155 337.901 137.828 337.901 139.475Z" fill="#00D86B"/>
<path d="M344.858 143.684C344.814 144.547 344.551 145.388 344.089 146.137C343.627 146.887 342.98 147.524 342.202 147.997C340.734 148.781 339.545 148.143 339.545 146.565C339.588 145.702 339.852 144.861 340.314 144.111C340.775 143.361 341.423 142.724 342.202 142.252C343.669 141.476 344.858 142.114 344.858 143.684Z" fill="#00D86B"/>
<path opacity="0.5" d="M327.247 142.201C327.189 143.18 326.884 144.132 326.356 144.982C325.828 145.831 325.093 146.554 324.21 147.091C322.529 147.953 321.173 147.255 321.173 145.461C321.229 144.481 321.534 143.528 322.061 142.678C322.589 141.829 323.325 141.106 324.21 140.57C325.882 139.673 327.247 140.407 327.247 142.201Z" fill="black"/>
<path opacity="0.5" d="M337.901 139.475C337.849 140.372 337.57 141.246 337.086 142.023C336.602 142.801 335.926 143.462 335.115 143.951C333.582 144.814 332.328 144.107 332.328 142.459C332.383 141.563 332.663 140.691 333.147 139.913C333.631 139.136 334.305 138.474 335.115 137.983C336.656 137.155 337.901 137.828 337.901 139.475Z" fill="black"/>
<path opacity="0.5" d="M344.858 143.684C344.814 144.547 344.551 145.388 344.089 146.137C343.627 146.887 342.98 147.524 342.202 147.997C340.734 148.781 339.545 148.143 339.545 146.565C339.588 145.702 339.852 144.861 340.314 144.111C340.775 143.361 341.423 142.724 342.202 142.252C343.669 141.476 344.858 142.114 344.858 143.684Z" fill="black"/>
<path d="M345.936 153.102C345.889 153.919 345.635 154.713 345.195 155.421C344.754 156.129 344.139 156.729 343.4 157.173C342.007 157.924 340.874 157.32 340.874 155.819C340.919 155.004 341.171 154.21 341.61 153.502C342.05 152.795 342.663 152.194 343.4 151.748C344.803 150.998 345.936 151.602 345.936 153.102Z" fill="#00D86B"/>
<path d="M342.805 164.979C342.759 165.755 342.518 166.509 342.1 167.182C341.682 167.855 341.1 168.427 340.4 168.852C339.071 169.559 337.994 168.981 337.994 167.558C338.039 166.784 338.28 166.03 338.698 165.358C339.116 164.687 339.699 164.117 340.4 163.694C341.728 163.004 342.805 163.582 342.805 164.979Z" fill="#00D86B"/>
<path d="M336.257 175.441C336.214 176.175 335.984 176.889 335.587 177.524C335.19 178.16 334.637 178.699 333.972 179.098C332.718 179.78 331.697 179.228 331.697 177.882C331.739 177.148 331.967 176.434 332.362 175.797C332.758 175.16 333.309 174.618 333.972 174.217C335.235 173.544 336.257 174.087 336.257 175.441Z" fill="#00D86B"/>
<path opacity="0.3" d="M345.936 153.102C345.889 153.919 345.635 154.713 345.195 155.421C344.754 156.129 344.139 156.729 343.4 157.173C342.007 157.924 340.874 157.32 340.874 155.819C340.919 155.004 341.171 154.21 341.61 153.502C342.05 152.795 342.663 152.194 343.4 151.748C344.803 150.998 345.936 151.602 345.936 153.102Z" fill="black"/>
<path opacity="0.3" d="M342.805 164.979C342.759 165.755 342.518 166.509 342.1 167.182C341.682 167.855 341.1 168.427 340.4 168.852C339.071 169.559 337.994 168.981 337.994 167.558C338.039 166.784 338.28 166.03 338.698 165.358C339.116 164.687 339.699 164.117 340.4 163.694C341.728 163.004 342.805 163.582 342.805 164.979Z" fill="black"/>
<path opacity="0.3" d="M336.257 175.441C336.214 176.175 335.984 176.889 335.587 177.524C335.19 178.16 334.637 178.699 333.972 179.098C332.718 179.78 331.697 179.228 331.697 177.882C331.739 177.148 331.967 176.434 332.362 175.797C332.758 175.16 333.309 174.618 333.972 174.217C335.235 173.544 336.257 174.087 336.257 175.441Z" fill="black"/>
<path d="M326.356 183.997C326.316 184.689 326.101 185.362 325.729 185.961C325.356 186.561 324.835 187.07 324.21 187.447C323.021 188.085 322.055 187.568 322.055 186.3C322.098 185.609 322.316 184.936 322.69 184.337C323.065 183.738 323.585 183.228 324.21 182.85C325.399 182.229 326.356 182.721 326.356 183.997Z" fill="#00D86B"/>
<path d="M315.535 186.542C315.499 187.194 315.296 187.829 314.944 188.394C314.592 188.959 314.101 189.439 313.51 189.793C312.395 190.397 311.485 189.905 311.485 188.707C311.523 188.055 311.727 187.421 312.079 186.856C312.43 186.291 312.921 185.811 313.51 185.455C314.634 184.86 315.535 185.351 315.535 186.542Z" fill="#00D86B"/>
<path d="M309.135 181.953C309.099 182.565 308.907 183.161 308.576 183.691C308.245 184.222 307.785 184.672 307.231 185.006C306.191 185.567 305.373 185.11 305.373 183.989C305.406 183.381 305.591 182.788 305.913 182.258C306.236 181.728 306.687 181.275 307.231 180.935C308.281 180.375 309.135 180.832 309.135 181.953Z" fill="#00D86B"/>
<path opacity="0.2" d="M326.356 183.997C326.316 184.689 326.101 185.362 325.729 185.961C325.356 186.561 324.835 187.07 324.21 187.447C323.021 188.085 322.055 187.568 322.055 186.3C322.098 185.609 322.316 184.936 322.69 184.337C323.065 183.738 323.585 183.228 324.21 182.85C325.399 182.229 326.356 182.721 326.356 183.997Z" fill="black"/>
<path opacity="0.2" d="M315.535 186.542C315.499 187.194 315.296 187.829 314.944 188.394C314.592 188.959 314.101 189.439 313.51 189.793C312.395 190.397 311.485 189.905 311.485 188.707C311.523 188.055 311.727 187.421 312.079 186.856C312.43 186.291 312.921 185.811 313.51 185.455C314.634 184.86 315.535 185.351 315.535 186.542Z" fill="black"/>
<path opacity="0.2" d="M309.135 181.953C309.099 182.565 308.907 183.161 308.576 183.691C308.245 184.222 307.785 184.672 307.231 185.006C306.191 185.567 305.373 185.11 305.373 183.989C305.406 183.381 305.591 182.788 305.913 182.258C306.236 181.728 306.687 181.275 307.231 180.935C308.281 180.375 309.135 180.832 309.135 181.953Z" fill="black"/>
<path d="M306.711 173.871C306.678 174.442 306.5 174.998 306.192 175.492C305.883 175.987 305.453 176.407 304.937 176.718C304.008 177.244 303.163 176.821 303.163 175.769C303.198 175.199 303.377 174.644 303.685 174.15C303.993 173.655 304.422 173.235 304.937 172.923C305.912 172.397 306.711 172.819 306.711 173.871Z" fill="#00D86B"/>
<path d="M309.627 161.529C309.597 162.059 309.432 162.575 309.146 163.035C308.86 163.495 308.462 163.887 307.983 164.177C307.055 164.66 306.339 164.272 306.339 163.314C306.369 162.784 306.533 162.267 306.819 161.807C307.105 161.347 307.504 160.956 307.983 160.667C308.856 160.115 309.627 160.511 309.627 161.529Z" fill="#00D86B"/>
<path d="M315.535 151.464C315.506 151.952 315.354 152.428 315.091 152.852C314.828 153.276 314.462 153.636 314.021 153.905C313.176 154.353 312.498 153.991 312.498 153.094C312.526 152.604 312.679 152.128 312.943 151.704C313.208 151.279 313.577 150.919 314.021 150.653C314.857 150.205 315.535 150.567 315.535 151.464Z" fill="#00D86B"/>
<path d="M333.211 160.141L324.6 151.593L314.82 169.999L319.789 167.334V177.089L328.241 172.561V162.806L333.211 160.141Z" fill="#00D86B"/>
<path d="M190.718 211.451L195.929 217.229L183.724 235.488L188.099 240.215L205.264 221.412C206.252 220.329 206.823 218.97 206.885 217.552C206.947 216.133 206.498 214.735 205.607 213.581L198.882 204.835L190.718 211.451Z" fill="#945959"/>
<path d="M175.977 190.363L180.77 189.957C182.619 189.799 184.482 190.077 186.185 190.764C187.888 191.452 189.377 192.527 190.514 193.89L201.047 206.474C201.047 206.474 199.663 211.27 191.034 213.848L178.569 197.547L175.977 190.363Z" fill="#00D86B"/>
<path opacity="0.2" d="M175.977 190.363L180.77 189.957C182.619 189.799 184.482 190.077 186.185 190.764C187.888 191.452 189.377 192.527 190.514 193.89L201.047 206.474C201.047 206.474 199.663 211.27 191.034 213.848L178.569 197.547L175.977 190.363Z" fill="black"/>
<path d="M178.745 328.932C177.93 330.936 177.612 333.085 177.817 335.219C177.891 336.185 181.309 337.013 182.275 337.22C184.219 338.001 186.066 338.976 187.783 340.127C190.619 342.159 194.093 343.274 197.675 343.301C202.802 343.301 205.189 341.645 205.189 339.989C205.189 338.333 201.836 336.461 199.31 336.116C197.675 335.892 189.492 331.424 188.006 327.966L178.745 328.932Z" fill="#263238"/>
<path d="M178.745 327.75C177.93 329.754 177.612 331.903 177.817 334.038C177.891 335.004 181.309 335.832 182.275 336.039C184.219 336.816 186.066 337.788 187.783 338.937C190.615 340.977 194.091 342.095 197.675 342.119C202.802 342.119 205.189 340.463 205.189 338.799C205.189 337.134 201.836 335.28 199.31 334.935C197.675 334.71 189.492 330.234 188.006 326.784L178.745 327.75Z" fill="#455A64"/>
<path d="M193.542 339.204C193.477 340.067 193.542 341.464 193.542 341.567C194.899 341.919 196.302 342.099 197.712 342.102C202.839 342.102 205.226 340.446 205.226 338.781C205.226 337.117 201.873 335.262 199.347 334.917C199.347 334.935 193.922 334.65 193.542 339.204Z" fill="#FAFAFA"/>
<path d="M190.792 334.943C190.702 334.94 190.614 334.919 190.532 334.883C190.41 334.818 190.321 334.711 190.283 334.585C190.244 334.459 190.261 334.325 190.328 334.21C191.498 332.278 194.201 332.045 194.313 332.037C194.444 332.038 194.57 332.085 194.667 332.167C194.763 332.25 194.823 332.363 194.834 332.485C194.846 332.606 194.809 332.728 194.729 332.825C194.65 332.922 194.535 332.989 194.406 333.011C194.406 333.011 192.139 333.218 191.257 334.693C191.209 334.768 191.141 334.831 191.06 334.875C190.979 334.918 190.886 334.942 190.792 334.943Z" fill="#FAFAFA"/>
<path d="M188.34 333.356C188.252 333.355 188.165 333.331 188.09 333.287C188.028 333.258 187.973 333.217 187.929 333.166C187.885 333.116 187.852 333.058 187.833 332.996C187.814 332.934 187.809 332.869 187.818 332.805C187.826 332.741 187.85 332.679 187.885 332.623C189.046 330.691 191.749 330.458 191.861 330.45C191.93 330.443 192 330.448 192.066 330.467C192.133 330.485 192.195 330.516 192.249 330.557C192.302 330.598 192.347 330.648 192.379 330.706C192.411 330.763 192.431 330.825 192.436 330.89C192.443 330.954 192.435 331.019 192.415 331.081C192.394 331.143 192.36 331.201 192.315 331.25C192.27 331.3 192.215 331.341 192.153 331.371C192.091 331.401 192.023 331.419 191.953 331.424C191.953 331.424 189.696 331.631 188.805 333.106C188.758 333.182 188.69 333.245 188.608 333.289C188.527 333.333 188.435 333.356 188.34 333.356Z" fill="#FAFAFA"/>
<path d="M186.111 331.441C186.02 331.442 185.931 331.421 185.851 331.381C185.791 331.35 185.738 331.308 185.695 331.257C185.653 331.207 185.622 331.149 185.604 331.087C185.585 331.025 185.581 330.961 185.59 330.897C185.599 330.834 185.621 330.772 185.656 330.717C186.817 328.785 189.52 328.543 189.631 328.535C189.771 328.525 189.91 328.567 190.017 328.65C190.125 328.734 190.193 328.854 190.207 328.983C190.215 329.113 190.17 329.24 190.08 329.34C189.99 329.439 189.863 329.503 189.724 329.518C189.724 329.518 187.458 329.716 186.575 331.191C186.529 331.268 186.461 331.331 186.38 331.375C186.298 331.419 186.205 331.442 186.111 331.441Z" fill="#FAFAFA"/>
<path d="M169.921 235.575L174.566 284.03C174.566 284.03 173.934 289.826 175.225 303.367C176.516 316.908 178.012 328.509 178.012 328.509C178.012 328.509 185.052 330.993 189.223 327.405C189.223 327.405 190.402 294.354 190.411 283.331C190.411 271.506 189.223 236.04 189.223 236.04L169.921 235.575Z" fill="#37474F"/>
<path d="M173.163 269.574L175.457 252.997C175.457 252.997 183.129 252.022 184.467 248.521C186.139 244.165 185.21 238.576 185.21 238.576L170.163 238.059L173.163 269.574Z" fill="#263238"/>
<path d="M152.682 334.935C152.682 334.935 151.085 343.353 151.085 346.251C151.085 349.149 152.942 352.892 158.237 352.892C163.531 352.892 163.262 347.234 162.955 344.905C162.649 342.576 161.358 334.935 161.358 334.935H152.682Z" fill="#263238"/>
<path d="M152.812 334.029C152.812 334.029 151.242 342.249 151.242 345.078C151.242 347.907 153.1 351.572 158.237 351.572C163.373 351.572 163.15 346.044 162.881 343.767C162.611 341.49 161.265 334.029 161.265 334.029H152.812Z" fill="#455A64"/>
<path d="M157.596 344.12H156.871C155.89 344.119 154.925 344.348 154.064 344.785C153.204 345.222 152.476 345.854 151.948 346.622L151.558 347.191C151.96 348.518 152.84 349.677 154.049 350.475C155.259 351.274 156.727 351.664 158.209 351.581C161.45 351.581 162.556 349.382 162.853 347.191C162.377 346.271 161.631 345.495 160.701 344.952C159.771 344.409 158.694 344.12 157.596 344.12Z" fill="#FAFAFA"/>
<path d="M154.568 234.755L152.19 282.46C150.256 291.927 149.589 301.58 150.202 311.199C151.391 325.749 151.586 335.694 151.586 335.694C151.586 335.694 158.432 339.006 161.905 335.142L168.946 281.08L173.804 251.514C173.804 251.514 183.232 251.057 185.117 246.451C186.323 243.242 187.057 239.897 187.3 236.506L154.568 234.755Z" fill="#37474F"/>
<path d="M154.967 341.791C154.872 341.792 154.778 341.768 154.696 341.723C154.614 341.677 154.547 341.611 154.503 341.533C154.436 341.419 154.42 341.286 154.458 341.162C154.496 341.037 154.586 340.932 154.707 340.869C154.828 340.808 157.568 339.454 159.955 340.869C160.014 340.903 160.066 340.948 160.107 341.001C160.147 341.054 160.176 341.114 160.192 341.177C160.207 341.24 160.209 341.306 160.197 341.37C160.185 341.434 160.16 341.495 160.122 341.55C160.044 341.658 159.924 341.734 159.787 341.761C159.65 341.789 159.507 341.766 159.388 341.697C157.531 340.575 155.236 341.697 155.218 341.697C155.145 341.749 155.059 341.782 154.967 341.791Z" fill="#FAFAFA"/>
<path d="M154.967 339.635C154.872 339.636 154.778 339.612 154.696 339.566C154.614 339.521 154.547 339.455 154.503 339.377C154.436 339.263 154.42 339.13 154.458 339.006C154.496 338.881 154.586 338.776 154.707 338.712C154.828 338.652 157.568 337.298 159.955 338.712C160.014 338.747 160.066 338.792 160.107 338.845C160.147 338.897 160.176 338.957 160.192 339.021C160.207 339.084 160.209 339.15 160.197 339.214C160.185 339.278 160.16 339.339 160.122 339.394C160.044 339.502 159.924 339.578 159.787 339.605C159.65 339.633 159.507 339.609 159.388 339.54C157.531 338.419 155.236 339.54 155.218 339.54C155.143 339.588 155.057 339.621 154.967 339.635Z" fill="#FAFAFA"/>
<path d="M154.967 337.479C154.872 337.481 154.779 337.459 154.697 337.415C154.615 337.371 154.547 337.306 154.503 337.229C154.45 337.124 154.438 337.007 154.469 336.895C154.499 336.784 154.57 336.685 154.67 336.616C154.791 336.565 157.531 335.211 159.918 336.616C159.977 336.65 160.028 336.694 160.069 336.746C160.109 336.798 160.138 336.858 160.154 336.92C160.169 336.983 160.171 337.048 160.159 337.111C160.148 337.175 160.122 337.235 160.085 337.289C160.047 337.344 159.998 337.391 159.941 337.428C159.884 337.465 159.819 337.491 159.751 337.504C159.683 337.518 159.612 337.519 159.544 337.507C159.475 337.495 159.41 337.471 159.351 337.436C157.493 336.315 155.199 337.436 155.181 337.436C155.114 337.465 155.041 337.479 154.967 337.479Z" fill="#FAFAFA"/>
<path d="M188.6 200.609L189.966 239.154C189.966 239.154 175.912 248.642 153.537 241.448V198.151C153.535 196.591 154.158 195.087 155.284 193.93C156.41 192.773 157.959 192.045 159.63 191.889L176.005 190.345C177.568 190.203 179.147 190.36 180.642 190.807C182.137 191.253 183.518 191.98 184.698 192.942C185.879 193.904 186.834 195.081 187.505 196.4C188.177 197.719 188.549 199.151 188.6 200.609Z" fill="#00D86B"/>
<path d="M142.511 209.829L138.35 220.61L109.157 225.863V232.763L142.353 231.038C143.51 230.979 144.627 230.626 145.582 230.018C146.537 229.409 147.293 228.569 147.768 227.588L153.471 215.789L142.511 209.829Z" fill="#945959"/>
<path d="M159.602 191.906V196.978C159.601 201.061 158.749 205.106 157.094 208.889L152.348 219.73C152.348 219.73 141.74 217.626 139.874 212.83L146.673 198.108C147.481 196.373 148.802 194.886 150.481 193.818C152.161 192.749 154.131 192.144 156.165 192.07L159.602 191.906Z" fill="#00D86B"/>
<path opacity="0.2" d="M159.602 191.906V196.978C159.601 201.061 158.749 205.106 157.094 208.889L152.348 219.73C152.348 219.73 141.74 217.626 139.874 212.83L146.673 198.108C147.481 196.373 148.802 194.886 150.481 193.818C152.161 192.749 154.131 192.144 156.165 192.07L159.602 191.906Z" fill="black"/>
<path d="M185.238 162.262C185.238 162.262 191.285 167.187 186.037 178.175L179.888 163.323L185.238 162.262Z" fill="#263238"/>
<path d="M165.296 191.372L175.504 198.453V175.916H165.296V191.372Z" fill="#945959"/>
<path d="M175.504 188.844C171.732 187.499 166.958 185.256 166.958 183.117L165.714 175.916H175.504V188.844Z" fill="#703838"/>
<path d="M173.386 159.218C177.101 159.218 184.987 161.141 185.897 170.154C186.807 179.167 185.386 186.835 180.919 186.835C172.141 186.835 163.717 185.8 163.652 172.466C163.587 160.667 169.773 159.218 173.386 159.218Z" fill="#945959"/>
<path d="M165.296 180.366L166.726 176.286C166.832 176.373 166.963 176.429 167.103 176.448C167.243 176.467 167.386 176.448 167.515 176.393C167.643 176.338 167.752 176.25 167.828 176.14C167.904 176.029 167.944 175.9 167.943 175.769V168.507C167.943 168.507 171.584 167.541 171.203 164.694C171.203 164.694 173.061 166.247 180.222 166.247C187.383 166.247 189.12 160.615 188.405 157.475C188.405 157.475 187.077 158.743 183.296 158.743C179.516 158.743 163.791 154.336 163.345 163.168C163.345 163.168 162.017 161.357 159.871 163.168L162.658 164.694C162.658 164.694 159.388 164.6 159.871 169.067C160.271 172.578 161.85 179.253 162.5 181.927C162.681 182.667 163.16 183.315 163.837 183.738L165.296 184.644V180.366Z" fill="#263238"/>
<path d="M178.968 172.854V178.175L182.321 177.218L178.968 172.854Z" fill="#703838"/>
<path d="M173.015 173.777C173.003 173.994 173.063 174.209 173.185 174.395C173.307 174.58 173.486 174.728 173.699 174.818C173.912 174.908 174.15 174.936 174.381 174.9C174.611 174.863 174.825 174.763 174.994 174.612C175.163 174.462 175.279 174.268 175.328 174.055C175.377 173.842 175.356 173.621 175.268 173.419C175.18 173.218 175.028 173.046 174.834 172.925C174.639 172.804 174.41 172.74 174.176 172.742C173.876 172.744 173.589 172.852 173.373 173.044C173.157 173.237 173.029 173.499 173.015 173.777Z" fill="#263238"/>
<path d="M181.745 173.026C181.745 173.242 181.814 173.452 181.943 173.631C182.072 173.81 182.256 173.949 182.47 174.031C182.684 174.113 182.92 174.134 183.147 174.091C183.375 174.049 183.583 173.944 183.747 173.792C183.91 173.639 184.021 173.444 184.065 173.233C184.109 173.022 184.084 172.803 183.994 172.604C183.904 172.406 183.753 172.237 183.559 172.118C183.365 172 183.138 171.938 182.906 171.939C182.753 171.939 182.601 171.968 182.46 172.022C182.319 172.077 182.19 172.157 182.082 172.258C181.974 172.359 181.889 172.479 181.831 172.611C181.773 172.743 181.744 172.884 181.745 173.026Z" fill="#263238"/>
<path d="M184.328 170.766L182.052 169.507C182.052 169.507 182.925 168.645 183.798 169.171C184.048 169.357 184.231 169.609 184.326 169.893C184.42 170.178 184.421 170.482 184.328 170.766Z" fill="#263238"/>
<path d="M171.807 171.551L174.092 170.292C174.092 170.292 173.209 169.43 172.346 169.956C172.093 170.141 171.907 170.392 171.811 170.676C171.715 170.961 171.713 171.266 171.807 171.551Z" fill="#263238"/>
<path d="M180.538 180.332C179.426 180.403 178.321 180.127 177.399 179.547C177.399 179.547 177.185 181.082 178.569 181.375C178.977 181.44 179.396 181.372 179.755 181.181C180.114 180.991 180.391 180.691 180.538 180.332Z" fill="#703838"/>
<path d="M166.16 174.769C167.478 176.899 167.144 179.478 165.296 180.366C164.116 180.927 160.652 179.702 159.295 177.58C157.939 175.459 158.71 173.63 160.512 172.664C162.314 171.698 164.887 172.647 166.16 174.769Z" fill="#945959"/>
<path d="M166.828 176.355L162.788 172.285L165.686 170.672L166.828 176.355Z" fill="#253239"/>
<path d="M149.032 144.452L143.459 139.734L128.198 164.626L115.659 168.835L113.513 164.729L131.727 140.519L126.154 135.801C125.579 135.968 124.993 136.157 124.399 136.37C110.466 141.416 97.3048 156.639 95.0385 170.387C93.9796 176.744 95.4472 181.677 98.7538 184.635L99.3204 185.093L103.732 188.793L105.219 190.095L85.2764 310.293C76.1645 317.366 68.9382 327.983 67.3034 337.833C66.4489 343.008 67.3034 347.242 69.3469 350.227V350.278L74.9199 354.996L76.3224 338.928L84.6262 325.387L87.0505 324.585L97.2677 321.178L101.912 330.079L92.8557 344.379L86.7068 354.151L92.2798 358.869L99.4876 347.432C108.776 340.36 116.207 329.579 117.851 319.574C118.49 316.351 118.273 313.032 117.219 309.905H119.56L114.349 305.489C112.396 303.681 109.83 302.556 107.085 302.306L127.334 179.831C136.557 172.75 143.904 162.029 145.549 152.076C145.688 151.214 145.762 150.463 145.818 149.687L149.032 144.452Z" fill="#00D86B"/>
<path d="M112.603 307.033L132.851 184.558C142.075 177.477 149.431 166.756 151.075 156.803C151.93 151.628 151.122 147.401 149.032 144.417L133.771 169.335L121.167 173.552L116.522 164.643L131.7 140.493C131.124 140.657 130.548 140.846 129.953 141.062C116.021 146.099 102.85 161.331 100.584 175.07C98.9489 184.92 103.37 191.337 111.135 192.32L90.8216 315.054C81.7097 322.126 74.4833 332.752 72.8579 342.602C72.0034 347.777 72.8579 352.012 74.9013 354.996L90.1621 330.105L102.757 325.896L107.401 334.805L92.2148 358.955C92.7907 358.783 93.3759 358.601 93.961 358.386C107.894 353.349 121.064 338.117 123.34 324.378C125.021 314.355 120.507 307.912 112.603 307.033Z" fill="#00D86B"/>
<path d="M119.504 309.879L114.294 305.463C113.891 305.084 113.456 304.735 112.993 304.419L112.575 307.007C115.159 307.241 117.591 308.249 119.504 309.879Z" fill="#00D86B"/>
<path opacity="0.4" d="M119.504 309.879L114.294 305.463C113.891 305.084 113.456 304.735 112.993 304.419L112.575 307.007C115.159 307.241 117.591 308.249 119.504 309.879Z" fill="black"/>
<path d="M99.4599 347.441L107.439 334.762L102.757 325.853L100.147 326.724L101.884 330.036L92.8559 344.388L86.707 354.16L92.2522 358.878L99.4599 347.441Z" fill="#00D86B"/>
<path opacity="0.2" d="M99.2461 185.093L103.658 188.793L103.742 188.862C100.825 185.869 99.5526 181.099 100.556 175.105C102.822 161.365 115.974 146.133 129.926 141.096C130.52 140.881 131.096 140.691 131.672 140.527L126.099 135.809C125.523 135.976 124.938 136.166 124.343 136.379C110.411 141.424 97.2491 156.647 94.9828 170.396C93.9239 176.752 95.3915 181.686 98.6981 184.644L99.2461 185.093Z" fill="black"/>
<path opacity="0.2" d="M143.477 139.725L128.217 164.617L133.771 169.335L149.032 144.452L143.477 139.725Z" fill="black"/>
<path opacity="0.4" d="M128.216 164.617L133.771 169.335L121.167 173.552L118.231 167.955L128.216 164.617Z" fill="black"/>
<path opacity="0.3" d="M111.108 192.346C108.9 192.099 106.808 191.294 105.061 190.018L105.144 190.095L85.2766 310.293L90.8496 315.011L111.108 192.346Z" fill="black"/>
<path opacity="0.2" d="M67.3034 337.833C66.4489 343.008 67.3034 347.243 69.3469 350.227V350.279L74.9199 354.996C72.83 352.012 72.0219 347.786 72.8765 342.602C74.5019 332.753 81.7283 322.127 90.8401 315.054L85.2671 310.336C76.1645 317.366 68.9382 327.992 67.3034 337.833Z" fill="black"/>
<path opacity="0.4" d="M101.884 330.036L107.439 334.762L102.757 325.853L100.147 326.724L101.884 330.036Z" fill="black"/>
<path opacity="0.2" d="M86.707 354.16L92.2522 358.878L107.439 334.762L101.884 330.036L86.707 354.16Z" fill="black"/>
<path d="M329.059 285.729L309.692 275.379C308.606 274.646 307.129 274.629 305.494 275.5L270.403 294.268C268.108 295.501 266.111 298.184 265.108 301.073C265.025 301.306 264.941 301.547 264.876 301.789V301.91C264.82 302.125 264.755 302.341 264.709 302.557C264.709 302.634 264.709 302.712 264.709 302.789C264.709 302.867 264.634 303.143 264.607 303.324C264.579 303.505 264.607 303.574 264.607 303.704C264.607 303.833 264.607 303.962 264.607 304.092C264.607 304.351 264.607 304.601 264.607 304.859V333.063C264.585 334.049 264.788 335.027 265.201 335.935C265.273 336.09 265.357 336.24 265.452 336.384C265.584 336.597 265.74 336.796 265.916 336.979C265.916 336.979 265.916 337.031 265.981 337.048C266.22 337.272 266.496 337.458 266.799 337.6L286.165 347.95C286.354 348.082 286.56 348.192 286.778 348.278C287.374 348.485 288.016 348.556 288.648 348.484C289.281 348.412 289.885 348.199 290.41 347.864L325.501 329.053C328.808 327.276 331.492 322.515 331.492 318.427V290.275C331.334 287.92 330.443 286.298 329.059 285.729Z" fill="#00D86B"/>
<path opacity="0.2" d="M309.693 275.379C308.606 274.646 307.129 274.629 305.494 275.5L270.403 294.268C268.791 295.229 267.462 296.548 266.539 298.106L286.537 308.456C287.438 306.992 288.714 305.757 290.252 304.859L325.343 286.04C325.88 285.694 326.5 285.479 327.149 285.412C327.798 285.346 328.454 285.431 329.059 285.66L309.693 275.379Z" fill="black"/>
<path opacity="0.4" d="M266.539 298.106C265.952 299.046 265.472 300.04 265.108 301.073C265.025 301.306 264.941 301.547 264.876 301.789V301.91C264.82 302.125 264.755 302.341 264.709 302.556C264.709 302.634 264.709 302.712 264.709 302.789C264.709 302.867 264.634 303.143 264.607 303.324C264.579 303.505 264.607 303.574 264.607 303.704C264.607 303.833 264.607 303.962 264.607 304.092C264.607 304.35 264.607 304.601 264.607 304.859V333.063C264.585 334.049 264.788 335.027 265.201 335.935C265.273 336.09 265.357 336.24 265.452 336.384C265.584 336.597 265.74 336.796 265.916 336.979C265.916 336.979 265.916 337.031 265.981 337.048C266.22 337.272 266.496 337.458 266.799 337.6L286.165 347.95C285.087 347.191 284.419 345.699 284.419 343.637V315.434C284.492 312.944 285.277 310.518 286.694 308.404L266.539 298.106Z" fill="black"/>
<path d="M284.289 298.011C283.869 298.011 283.452 297.934 283.064 297.784C282.676 297.635 282.323 297.415 282.026 297.139C281.73 296.863 281.494 296.535 281.334 296.174C281.174 295.813 281.093 295.426 281.094 295.036V275.44C281.094 266.815 287.419 256.603 295.491 252.273C299.949 249.884 304.296 249.59 307.751 251.41C311.207 253.23 313.101 256.913 313.101 261.683V281.287C313.101 282.076 312.764 282.833 312.163 283.391C311.562 283.949 310.747 284.263 309.897 284.263C309.047 284.263 308.232 283.949 307.631 283.391C307.03 282.833 306.692 282.076 306.692 281.287V261.709C306.692 259.19 305.912 257.318 304.547 256.594C303.181 255.869 301.054 256.163 298.695 257.456C292.63 260.717 287.493 268.928 287.493 275.44V295.036C287.495 295.427 287.413 295.814 287.252 296.176C287.091 296.537 286.855 296.866 286.558 297.142C286.26 297.419 285.906 297.638 285.517 297.787C285.127 297.936 284.71 298.012 284.289 298.011Z" fill="#37474F"/>
<path d="M311.782 315.054L315.163 324.085L303.283 330.484L306.256 319.367L306.674 317.788C304.667 317.84 303.274 316.4 303.274 313.855C303.291 312.834 303.479 311.821 303.831 310.854C304.759 308.157 306.662 305.841 309.219 304.299C312.507 302.574 315.163 303.962 315.163 307.49C315.001 310.302 313.801 312.977 311.764 315.063L311.782 315.054Z" fill="#455A64"/>
<path d="M306.256 319.367L306.674 317.788C304.667 317.84 303.274 316.4 303.274 313.855C303.291 312.834 303.479 311.821 303.831 310.854L311.782 315.115L315.163 324.145L306.256 319.367Z" fill="#37474F"/>
</svg>
