<svg width="39" height="39" viewBox="0 0 39 39" fill="none" xmlns="http://www.w3.org/2000/svg">
<path d="M38.6572 19.4263C38.6572 8.92489 30.1461 0.413818 19.6448 0.413818C9.1434 0.413818 0.632324 8.92489 0.632324 19.4263C0.632324 28.9177 7.58375 36.7825 16.6741 38.2085V24.922H11.8467V19.4263H16.6741V15.2376C16.6741 10.4733 19.5111 7.84055 23.8557 7.84055C25.9352 7.84055 28.1112 8.21189 28.1112 8.21189V12.8907H25.7124C23.3507 12.8907 22.6155 14.3575 22.6155 15.8614V19.4263H27.8884L27.0455 24.922H22.6155V38.2085C31.7058 36.7825 38.6572 28.9177 38.6572 19.4263Z" fill="#1877F2"/>
<path d="M27.0455 24.9221L27.8884 19.4263H22.6154V15.8614C22.6154 14.3576 23.3507 12.8908 25.7124 12.8908H28.1112V8.21191C28.1112 8.21191 25.9352 7.84058 23.8557 7.84058C19.5111 7.84058 16.6741 10.4733 16.6741 15.2376V19.4263H11.8466V24.9221H16.6741V38.2085C17.6432 38.3608 18.6347 38.4387 19.6448 38.4387C20.6548 38.4387 21.6463 38.3608 22.6154 38.2085V24.9221H27.0455Z" fill="white"/>
</svg>
