<svg width="39" height="39" viewBox="0 0 39 39" fill="none" xmlns="http://www.w3.org/2000/svg">
<path d="M2.69029 33.6925H8.7397V19.001L0.0976868 12.5195V31.0999C0.0976868 32.5323 1.25788 33.6925 2.69029 33.6925Z" fill="#4285F4"/>
<path d="M29.4805 33.6925H35.5299C36.9624 33.6925 38.1225 32.5323 38.1225 31.0999V12.5195L29.4805 19.001V33.6925Z" fill="#34A853"/>
<path d="M29.4805 7.76646V19.0011L38.1225 12.5196V9.06276C38.1225 5.85874 34.4648 4.02879 31.9003 5.95164L29.4805 7.76646Z" fill="#FBBC04"/>
<path fill-rule="evenodd" clip-rule="evenodd" d="M8.73972 19.0011V7.76648L19.1101 15.5443L29.4806 7.76648V19.0011L19.1101 26.7789L8.73972 19.0011Z" fill="#EA4335"/>
<path d="M0.0976868 9.06276V12.5196L8.7397 19.0011V7.76646L6.31994 5.95164C3.75542 4.02879 0.0976868 5.85874 0.0976868 9.06276Z" fill="#C5221F"/>
<path d="M0.0976868 0.413818V-2.58618H-2.90231V0.413818H0.0976868ZM38.1226 0.413818H41.1226V-2.58618H38.1226V0.413818ZM38.1226 38.4387V41.4387H41.1226V38.4387H38.1226ZM0.0976868 38.4387H-2.90231V41.4387H0.0976868V38.4387ZM0.0976868 3.41382H38.1226V-2.58618H0.0976868V3.41382ZM35.1226 0.413818V38.4387H41.1226V0.413818H35.1226ZM38.1226 35.4387H0.0976868V41.4387H38.1226V35.4387ZM3.09769 38.4387V0.413818H-2.90231V38.4387H3.09769Z" fill="white"/>
</svg>
