<svg width="40" height="39" viewBox="0 0 40 39" fill="none" xmlns="http://www.w3.org/2000/svg">
<path d="M0.978699 19.4263C0.978699 8.92598 9.49086 0.413818 19.9911 0.413818C30.4914 0.413818 39.0036 8.92598 39.0036 19.4263C39.0036 29.9265 30.4914 38.4387 19.9911 38.4387C9.49086 38.4387 0.978699 29.9265 0.978699 19.4263Z" fill="#0077B5"/>
<path fill-rule="evenodd" clip-rule="evenodd" d="M14.6984 12.1561C14.6984 13.3992 13.7627 14.3938 12.2603 14.3938H12.2328C10.7863 14.3938 9.85117 13.3992 9.85117 12.1561C9.85117 10.8868 10.8148 9.92004 12.2887 9.92004C13.7627 9.92004 14.6704 10.8868 14.6984 12.1561ZM14.4146 16.1608V29.1064H10.1059V16.1608H14.4146ZM29.953 29.1064L29.9532 21.6838C29.9532 17.7074 27.8276 15.8568 24.9923 15.8568C22.7047 15.8568 21.6805 17.1133 21.1087 17.9947V16.1611H16.7995C16.8563 17.3759 16.7995 29.1068 16.7995 29.1068H21.1087V21.8768C21.1087 21.4899 21.1366 21.104 21.2505 20.827C21.5619 20.054 22.271 19.2537 23.4613 19.2537C25.021 19.2537 25.6445 20.4408 25.6445 22.1805V29.1064H29.953Z" fill="white"/>
</svg>
